<?xml version="1.0" encoding="UTF-8"?>
<svg id="Layer_1" data-name="Layer 1" xmlns="http://www.w3.org/2000/svg" viewBox="0 0 100 100">
  <defs>
    <style>
      .cls-1 {
        fill: #010101;
      }
    </style>
  </defs>
  <path class="cls-1" d="M12.26,50.5c0-20.61,16.77-37.38,37.38-37.38s37.38,16.77,37.38,37.38-16.77,37.38-37.38,37.38S12.26,71.11,12.26,50.5ZM82.98,50.5c0-18.39-14.95-33.34-33.34-33.34s-33.34,14.95-33.34,33.34,14.95,33.34,33.34,33.34,33.34-14.95,33.34-33.34ZM22.36,50.5c0-15.05,12.22-27.28,27.28-27.28s27.28,12.22,27.28,27.28-12.22,27.28-27.28,27.28-27.28-12.22-27.28-27.28ZM72.87,50.5c0-12.83-10.4-23.23-23.23-23.23s-23.23,10.41-23.23,23.23,10.4,23.23,23.23,23.23,23.23-10.41,23.23-23.23ZM32.47,50.5c0-9.5,7.68-17.17,17.17-17.17s17.17,7.68,17.17,17.17-7.68,17.17-17.17,17.17-17.17-7.68-17.17-17.17ZM62.77,50.5c0-7.27-5.86-13.13-13.13-13.13s-13.13,5.86-13.13,13.13,5.86,13.13,13.13,13.13,13.13-5.86,13.13-13.13ZM42.57,50.5c0-3.94,3.13-7.07,7.07-7.07s7.07,3.13,7.07,7.07-3.13,7.07-7.07,7.07-7.07-3.13-7.07-7.07ZM52.67,50.5c0-1.72-1.31-3.03-3.03-3.03s-3.03,1.31-3.03,3.03,1.31,3.03,3.03,3.03,3.03-1.31,3.03-3.03Z"/>
</svg>