<?xml version="1.0" encoding="UTF-8"?>
<svg id="Layer_1" data-name="Layer 1" xmlns="http://www.w3.org/2000/svg" viewBox="0 0 100 100">
  <defs>
    <style>
      .cls-1 {
        fill: #010101;
      }
    </style>
  </defs>
  <path class="cls-1" d="M85.01,17.03c-18.09,0-32.97,14.79-32.97,32.97s14.79,32.97,32.97,32.97h14.99v4h-14.99c-20.38,0-36.97-16.59-36.97-36.97S64.73,13.03,85.01,13.03l14.99.1v4l-14.99-.1ZM85.01,27.02c-12.69,0-22.98,10.29-22.98,22.98s10.29,22.98,22.98,22.98h14.99v4h-14.99c-14.89,0-26.98-12.09-26.98-26.98s12.09-26.98,26.98-26.98h14.99v4h-14.99ZM85.01,37.01c-7.19,0-12.99,5.8-12.99,12.99s5.8,12.99,12.99,12.99h14.99v4h-14.99c-9.39,0-16.99-7.59-16.99-16.99s7.59-16.99,16.99-16.99h14.99v4h-14.99ZM85.01,47c-1.7,0-3,1.3-3,3s1.3,3,3,3h14.99v4h-14.99c-3.9,0-6.99-3.1-6.99-6.99s3.1-6.99,6.99-6.99h14.99v4h-14.99Z"/>
</svg>