<?xml version="1.0" encoding="UTF-8"?>
<svg id="Layer_1" data-name="Layer 1" xmlns="http://www.w3.org/2000/svg" viewBox="0 0 100 100">
  <defs>
    <style>
      .cls-1 {
        fill: #010101;
      }
    </style>
  </defs>
  <path class="cls-1" d="M82.97,85.01c0-18.09-14.79-32.97-32.97-32.97s-32.97,14.79-32.97,32.97v14.99h-4v-14.99c0-20.38,16.59-36.97,36.97-36.97s36.97,16.69,36.97,36.97l-.1,14.99h-4l.1-14.99ZM72.98,85.01c0-12.69-10.29-22.98-22.98-22.98s-22.98,10.29-22.98,22.98v14.99h-4v-14.99c0-14.89,12.09-26.98,26.98-26.98s26.98,12.09,26.98,26.98v14.99h-4v-14.99ZM62.99,85.01c0-7.19-5.8-12.99-12.99-12.99s-12.99,5.8-12.99,12.99v14.99h-4v-14.99c0-9.39,7.59-16.99,16.99-16.99s16.99,7.59,16.99,16.99v14.99h-4v-14.99ZM53,85.01c0-1.7-1.3-3-3-3s-3,1.3-3,3v14.99h-4v-14.99c0-3.9,3.1-6.99,6.99-6.99s6.99,3.1,6.99,6.99v14.99h-4v-14.99Z"/>
</svg>