<?xml version="1.0" encoding="UTF-8"?>
<svg id="Layer_1" data-name="Layer 1" xmlns="http://www.w3.org/2000/svg" viewBox="0 0 100 100">
  <defs>
    <style>
      .cls-1 {
        fill: #010101;
      }
    </style>
  </defs>
  <path class="cls-1" d="M16.79,100c0-47.62,35.59-83.21,83.21-83.21v-4.01C50.18,12.78,12.78,50.18,12.78,100h4.01ZM26.82,100c0-41.9,31.28-73.18,73.18-73.18v-4.01c-44.21,0-77.19,33.08-77.19,77.19h4.01ZM36.84,100c0-36.09,26.97-63.16,63.16-63.16v-4.01c-38.29,0-67.17,28.87-67.17,67.17h4.01ZM46.87,100c0-30.37,22.66-53.13,53.13-53.13v-4.01c-32.58,0-57.14,24.56-57.14,57.14h4.01ZM56.89,100c0-24.66,18.45-43.11,43.11-43.11v-4.01c-26.97,0-47.12,20.25-47.12,47.12h4.01ZM66.92,100c0-18.95,14.13-33.08,33.08-33.08v-4.01c-21.25,0-37.09,15.94-37.09,37.09h4.01ZM76.94,100c0-13.23,9.82-23.06,23.06-23.06v-4.01c-15.44,0-27.07,11.63-27.07,27.07h4.01ZM86.97,100c0-7.52,5.61-13.03,13.03-13.03v-4.01c-9.72,0-17.04,7.32-17.04,17.04h4.01Z"/>
</svg>