<?xml version="1.0" encoding="UTF-8"?>
<svg id="Layer_1" data-name="Layer 1" xmlns="http://www.w3.org/2000/svg" viewBox="0 0 100 100">
  <defs>
    <style>
      .cls-1 {
        fill: #010101;
      }
    </style>
  </defs>
  <path class="cls-1" d="M14.99,82.97c18.09,0,32.97-14.79,32.97-32.97S33.17,17.03,14.99,17.03H0v-4h14.99c20.38,0,36.97,16.59,36.97,36.97s-16.69,36.97-36.97,36.97l-14.99-.1v-4l14.99.1ZM14.99,72.98c12.69,0,22.98-10.29,22.98-22.98s-10.29-22.98-22.98-22.98H0v-4h14.99c14.89,0,26.98,12.09,26.98,26.98s-12.09,26.98-26.98,26.98H0v-4h14.99ZM14.99,62.99c7.19,0,12.99-5.8,12.99-12.99s-5.8-12.99-12.99-12.99H0v-4h14.99c9.39,0,16.99,7.59,16.99,16.99s-7.59,16.99-16.99,16.99H0v-4h14.99ZM14.99,53c1.7,0,3-1.3,3-3s-1.3-3-3-3H0v-4h14.99c3.9,0,6.99,3.1,6.99,6.99s-3.1,6.99-6.99,6.99H0v-4h14.99Z"/>
</svg>