<?xml version="1.0" encoding="UTF-8"?>
<svg id="Layer_1" data-name="Layer 1" xmlns="http://www.w3.org/2000/svg" viewBox="0 0 100 100">
  <defs>
    <style>
      .cls-1 {
        fill: #010101;
      }
    </style>
  </defs>
  <path class="cls-1" d="M83.21,100C83.21,52.38,47.62,16.79,0,16.79v-4.01c49.82,0,87.22,37.39,87.22,87.22h-4.01ZM73.18,100C73.18,58.1,41.9,26.82,0,26.82v-4.01c44.21,0,77.19,33.08,77.19,77.19h-4.01ZM63.16,100c0-36.09-26.97-63.16-63.16-63.16v-4.01c38.29,0,67.17,28.87,67.17,67.17h-4.01ZM53.13,100c0-30.37-22.66-53.13-53.13-53.13v-4.01c32.58,0,57.14,24.56,57.14,57.14h-4.01ZM43.11,100c0-24.66-18.45-43.11-43.11-43.11v-4.01c26.97,0,47.12,20.25,47.12,47.12h-4.01ZM33.08,100c0-18.95-14.13-33.08-33.08-33.08v-4.01c21.25,0,37.09,15.94,37.09,37.09h-4.01ZM23.06,100c0-13.23-9.82-23.06-23.06-23.06v-4.01c15.44,0,27.07,11.63,27.07,27.07h-4.01ZM13.03,100c0-7.52-5.61-13.03-13.03-13.03v-4.01c9.72,0,17.04,7.32,17.04,17.04h-4.01Z"/>
</svg>