<?xml version="1.0" encoding="UTF-8"?>
<svg id="Layer_1" data-name="Layer 1" xmlns="http://www.w3.org/2000/svg" viewBox="0 0 100 100">
  <defs>
    <style>
      .cls-1 {
        fill: #010101;
      }
    </style>
  </defs>
  <path class="cls-1" d="M17.03,14.99c0,18.09,14.79,32.97,32.97,32.97s32.97-14.79,32.97-32.97V0h4v14.99c0,20.38-16.59,36.97-36.97,36.97S13.03,35.27,13.03,14.99l.1-14.99h4l-.1,14.99ZM27.02,14.99c0,12.69,10.29,22.98,22.98,22.98s22.98-10.29,22.98-22.98V0h4v14.99c0,14.89-12.09,26.98-26.98,26.98s-26.98-12.09-26.98-26.98V0h4v14.99ZM37.01,14.99c0,7.19,5.8,12.99,12.99,12.99s12.99-5.8,12.99-12.99V0h4v14.99c0,9.39-7.59,16.99-16.99,16.99s-16.99-7.59-16.99-16.99V0h4v14.99ZM47,14.99c0,1.7,1.3,3,3,3s3-1.3,3-3V0h4v14.99c0,3.9-3.1,6.99-6.99,6.99s-6.99-3.1-6.99-6.99V0h4v14.99Z"/>
</svg>