<?xml version="1.0" encoding="UTF-8"?>
<svg id="Layer_1" data-name="Layer 1" xmlns="http://www.w3.org/2000/svg" viewBox="0 0 100 100">
  <defs>
    <style>
      .cls-1 {
        fill: #010101;
      }
    </style>
  </defs>
  <path class="cls-1" d="M16.79,0c0,47.62,35.59,83.21,83.21,83.21v4.01C50.18,87.22,12.78,49.82,12.78,0h4.01ZM26.82,0c0,41.9,31.28,73.18,73.18,73.18v4.01C55.79,77.19,22.81,44.11,22.81,0h4.01ZM36.84,0c0,36.09,26.97,63.16,63.16,63.16v4.01C61.71,67.17,32.83,38.29,32.83,0h4.01ZM46.87,0c0,30.37,22.66,53.13,53.13,53.13v4.01c-32.58,0-57.14-24.56-57.14-57.14h4.01ZM56.89,0c0,24.66,18.45,43.11,43.11,43.11v4.01c-26.97,0-47.12-20.25-47.12-47.12h4.01ZM66.92,0c0,18.95,14.13,33.08,33.08,33.08v4.01c-21.25,0-37.09-15.94-37.09-37.09h4.01ZM76.94,0c0,13.23,9.82,23.06,23.06,23.06v4.01c-15.44,0-27.07-11.63-27.07-27.07h4.01ZM86.97,0c0,7.52,5.61,13.03,13.03,13.03v4.01c-9.72,0-17.04-7.32-17.04-17.04h4.01Z"/>
</svg>