<?xml version="1.0" encoding="UTF-8"?>
<svg id="Layer_1" data-name="Layer 1" xmlns="http://www.w3.org/2000/svg" viewBox="0 0 100 100">
  <defs>
    <style>
      .cls-1 {
        fill: #010101;
      }
    </style>
  </defs>
  <path class="cls-1" d="M100,17.04v-4.01c-6.64,0-11.82-4.42-12.84-10.74.02-.76.05-1.52.05-2.29h-4.26c0,.86.08,1.7.19,2.52-.11,4.2-.5,8.3-1.15,12.28-2.63-3.24-4.35-7.28-4.87-11.82.03-.99.07-1.98.07-2.99h-4.26c0,1.08.06,2.14.17,3.18-.18,4.8-.79,9.44-1.77,13.9-2.3-4-3.78-8.58-4.26-13.57.05-1.16.08-2.33.08-3.51h-4.26c0,1.2.06,2.37.16,3.53-.26,5.15-1.08,10.09-2.39,14.79-2-4.51-3.25-9.48-3.64-14.79.06-1.17.11-2.34.11-3.53h-4.26c0,1.19.05,2.37.13,3.53-.32,5.38-1.34,10.49-3.02,15.24-1.67-4.75-2.7-9.86-3.02-15.24.08-1.17.13-2.34.13-3.53h-4.26c0,1.19.04,2.36.11,3.53-.39,5.31-1.64,10.28-3.64,14.79-1.31-4.69-2.14-9.63-2.39-14.79.1-1.16.16-2.34.16-3.53h-4.26c0,1.18.03,2.35.08,3.51-.47,4.99-1.96,9.57-4.26,13.57-.98-4.46-1.58-9.11-1.77-13.9.11-1.04.17-2.1.17-3.18h-4.26c0,1,.04,1.99.07,2.99-.53,4.54-2.25,8.58-4.87,11.82-.65-3.99-1.04-8.09-1.15-12.28.11-.82.19-1.66.19-2.52h-4.26c0,.77.04,1.53.05,2.29-1.02,6.32-6.2,10.74-12.84,10.74v4.01c5.57,0,10.34-2.4,13.4-6.28.28,2.52.64,5.02,1.12,7.46-3.9,3.06-8.9,4.83-14.53,4.83v4.01c5.84,0,11.14-1.67,15.47-4.58.51,2.07,1.11,4.09,1.75,6.09-4.95,2.88-10.81,4.5-17.22,4.5v4.01c6.88,0,13.18-1.68,18.57-4.65.72,1.92,1.49,3.8,2.34,5.64-6.12,3.22-13.21,5.02-20.91,5.02v4.01c8.34,0,16.03-1.94,22.68-5.42.94,1.81,1.94,3.57,3,5.3-7.51,3.93-16.22,6.13-25.68,6.13v4.01c10.25,0,19.7-2.43,27.85-6.78,1.16,1.7,2.38,3.35,3.66,4.96-9.15,5.02-19.85,7.84-31.51,7.84v4.01c12.63,0,24.23-3.16,34.11-8.74,1.39,1.58,2.85,3.11,4.36,4.59-11.03,6.5-24.12,10.17-38.47,10.17v4.01c15.55,0,29.71-4.11,41.53-11.34,1.6,1.41,3.26,2.76,4.97,4.05-13.09,8.47-28.98,13.3-46.5,13.3v4.01c18.92,0,36.03-5.4,50-14.81,13.97,9.41,31.08,14.81,50,14.81v-4.01c-17.52,0-33.41-4.83-46.5-13.3,1.71-1.29,3.37-2.64,4.97-4.05,11.83,7.23,25.98,11.34,41.53,11.34v-4.01c-14.34,0-27.44-3.67-38.47-10.17,1.51-1.47,2.96-3,4.36-4.59,9.88,5.58,21.48,8.74,34.11,8.74v-4.01c-11.66,0-22.35-2.82-31.51-7.84,1.28-1.6,2.5-3.26,3.66-4.96,8.15,4.35,17.6,6.78,27.85,6.78v-4.01c-9.46,0-18.17-2.2-25.68-6.13,1.06-1.73,2.06-3.49,3-5.3,6.64,3.47,14.33,5.42,22.68,5.42v-4.01c-7.7,0-14.79-1.8-20.91-5.02.85-1.84,1.62-3.73,2.34-5.64,5.39,2.97,11.69,4.65,18.57,4.65v-4.01c-6.41,0-12.27-1.62-17.22-4.5.65-2,1.25-4.02,1.75-6.09,4.33,2.91,9.62,4.58,15.47,4.58v-4.01c-5.62,0-10.63-1.78-14.53-4.83.48-2.44.84-4.93,1.12-7.46,3.07,3.87,7.84,6.28,13.4,6.28ZM65.68,14.64c1.13,2.79,2.58,5.39,4.31,7.76-.68,2.3-1.47,4.55-2.36,6.74-1.6-1.8-3.05-3.74-4.32-5.81.97-2.8,1.76-5.7,2.38-8.69ZM50,54.5c-1.52-1.39-2.97-2.84-4.36-4.36,1.53-1.38,2.98-2.84,4.36-4.36,1.38,1.52,2.84,2.98,4.36,4.36-1.39,1.52-2.84,2.97-4.36,4.36ZM37.16,38.75c-1.08-1.82-2.08-3.7-3-5.63,1.57-1.63,3.02-3.37,4.34-5.22.91,2.1,1.92,4.14,3.03,6.12-1.35,1.67-2.81,3.25-4.37,4.73ZM43.7,37.62c1.15,1.77,2.39,3.47,3.7,5.11-1.38,1.54-2.84,3.02-4.37,4.41-1.3-1.59-2.52-3.26-3.68-4.97,1.54-1.43,2.99-2.95,4.36-4.55ZM46.32,34.3c1.34-1.85,2.57-3.79,3.68-5.81,1.11,2.02,2.34,3.96,3.68,5.81-1.14,1.83-2.36,3.6-3.68,5.29-1.32-1.69-2.54-3.45-3.68-5.29ZM52.6,42.72c1.31-1.64,2.55-3.34,3.7-5.11,1.36,1.6,2.82,3.12,4.36,4.55-1.16,1.71-2.38,3.38-3.68,4.97-1.53-1.39-2.99-2.87-4.37-4.41ZM58.48,34.02c1.11-1.97,2.12-4.01,3.03-6.12,1.32,1.85,2.76,3.6,4.34,5.22-.92,1.93-1.92,3.81-3,5.63-1.55-1.48-3.01-3.06-4.37-4.73ZM55.23,15.28c.95,2.98,2.18,5.81,3.66,8.47-.88,2.32-1.88,4.58-3.02,6.75-1.37-2.04-2.6-4.19-3.68-6.44,1.23-2.8,2.25-5.73,3.03-8.77ZM44.77,15.28c.78,3.05,1.8,5.97,3.03,8.77-1.08,2.25-2.31,4.4-3.68,6.44-1.13-2.17-2.13-4.42-3.02-6.75,1.48-2.66,2.71-5.49,3.66-8.47ZM34.32,14.64c.61,2.98,1.4,5.88,2.38,8.69-1.28,2.07-2.72,4.01-4.32,5.81-.89-2.19-1.68-4.44-2.36-6.74,1.73-2.37,3.18-4.97,4.31-7.76ZM18.95,19.68c1.95-1.87,3.61-4.05,4.9-6.47.44,2.83,1.03,5.59,1.75,8.28-1.46,1.76-3.11,3.35-4.92,4.76-.66-2.15-1.23-4.34-1.73-6.57ZM22.03,30.26c1.78-1.27,3.42-2.69,4.92-4.25.7,2.11,1.5,4.18,2.37,6.19-1.54,1.39-3.19,2.67-4.94,3.82-.85-1.88-1.63-3.8-2.35-5.77ZM26.14,39.68c1.74-1.11,3.39-2.34,4.95-3.68.93,1.87,1.94,3.69,3.01,5.46-1.57,1.27-3.23,2.45-4.96,3.53-1.06-1.73-2.07-3.5-3-5.31ZM31.32,48.33c1.72-1.09,3.38-2.26,4.96-3.52,1.16,1.69,2.37,3.34,3.66,4.92-1.59,1.26-3.24,2.43-4.96,3.53-1.28-1.59-2.5-3.24-3.66-4.93ZM37.58,56.32c1.72-1.12,3.37-2.32,4.96-3.58,1.39,1.53,2.86,2.99,4.38,4.4-1.6,1.29-3.26,2.52-4.97,3.67-1.51-1.44-2.98-2.93-4.37-4.48ZM50,67.51c-1.72-1.24-3.37-2.56-4.97-3.94,1.71-1.18,3.38-2.43,4.97-3.74,1.6,1.32,3.26,2.56,4.97,3.74-1.6,1.37-3.26,2.69-4.97,3.94ZM58.04,60.81c-1.71-1.15-3.37-2.37-4.97-3.67,1.52-1.4,2.98-2.87,4.38-4.4,1.59,1.27,3.25,2.47,4.96,3.58-1.39,1.56-2.86,3.04-4.37,4.48ZM65.02,53.26c-1.72-1.1-3.37-2.27-4.96-3.53,1.29-1.58,2.5-3.23,3.66-4.92,1.58,1.26,3.23,2.43,4.96,3.52-1.16,1.69-2.38,3.34-3.66,4.93ZM70.85,44.99c-1.73-1.08-3.38-2.26-4.96-3.53,1.08-1.77,2.08-3.59,3.01-5.46,1.56,1.33,3.21,2.56,4.95,3.68-.94,1.82-1.94,3.59-3,5.31ZM75.62,36.03c-1.75-1.15-3.4-2.43-4.94-3.82.87-2.02,1.66-4.08,2.37-6.19,1.5,1.56,3.15,2.98,4.92,4.25-.72,1.96-1.5,3.89-2.35,5.77ZM79.32,26.25c-1.81-1.4-3.46-2.99-4.92-4.76.72-2.7,1.31-5.46,1.75-8.28,1.29,2.42,2.95,4.6,4.9,6.47-.5,2.23-1.07,4.42-1.73,6.57Z"/>
</svg>