<?xml version="1.0" encoding="UTF-8"?>
<svg id="Layer_1" data-name="Layer 1" xmlns="http://www.w3.org/2000/svg" viewBox="0 0 100 100">
  <defs>
    <style>
      .cls-1 {
        fill: #010101;
      }
    </style>
  </defs>
  <path class="cls-1" d="M87.22,0h-4.01c0,17.52-4.83,33.41-13.3,46.5-1.29-1.71-2.64-3.37-4.05-4.97,7.23-11.83,11.34-25.98,11.34-41.53h-4.01c0,14.34-3.67,27.44-10.17,38.47-1.47-1.51-3-2.96-4.59-4.36,5.58-9.88,8.74-21.48,8.74-34.11h-4.01c0,11.66-2.82,22.35-7.84,31.51-1.6-1.28-3.26-2.5-4.96-3.65,4.35-8.15,6.78-17.6,6.78-27.85h-4.01c0,9.46-2.2,18.17-6.13,25.68-1.73-1.06-3.49-2.06-5.3-3,3.47-6.64,5.42-14.33,5.42-22.68h-4.01c0,7.7-1.8,14.79-5.02,20.91-1.84-.85-3.73-1.62-5.64-2.34,2.97-5.39,4.65-11.69,4.65-18.57h-4.01c0,6.41-1.62,12.27-4.5,17.22-2-.65-4.02-1.25-6.09-1.75,2.91-4.33,4.58-9.62,4.58-15.47h-4.01c0,5.62-1.78,10.63-4.83,14.53-2.44-.48-4.93-.84-7.46-1.12,3.87-3.07,6.28-7.84,6.28-13.4h-4.01c0,6.64-4.42,11.82-10.74,12.84-.76-.02-1.52-.05-2.29-.05v4.26c.86,0,1.7-.08,2.52-.19,4.2.11,8.3.5,12.28,1.15-3.24,2.63-7.28,4.35-11.82,4.87-.99-.03-1.98-.07-2.99-.07v4.26c1.08,0,2.14-.06,3.18-.17,4.8.18,9.44.79,13.9,1.77-4,2.3-8.58,3.78-13.57,4.26-1.16-.05-2.33-.08-3.51-.08v4.26c1.2,0,2.37-.06,3.53-.16,5.15.26,10.09,1.08,14.79,2.39-4.51,2-9.48,3.25-14.79,3.64-1.17-.06-2.34-.11-3.53-.11v4.26c1.19,0,2.37-.05,3.53-.13,5.38.32,10.49,1.34,15.24,3.02-4.75,1.67-9.86,2.7-15.24,3.02-1.17-.08-2.34-.13-3.53-.13v4.26c1.19,0,2.36-.04,3.53-.11,5.31.39,10.28,1.64,14.79,3.64-4.69,1.31-9.63,2.14-14.78,2.39-1.16-.1-2.34-.16-3.53-.16v4.26c1.18,0,2.35-.03,3.51-.08,4.99.47,9.57,1.96,13.57,4.26-4.46.98-9.11,1.58-13.9,1.77-1.04-.11-2.1-.17-3.18-.17v4.26c1,0,1.99-.04,2.99-.07,4.54.53,8.58,2.25,11.82,4.87-3.99.65-8.08,1.04-12.28,1.15-.82-.11-1.66-.19-2.52-.19v4.26c.77,0,1.53-.04,2.29-.05,6.32,1.02,10.74,6.2,10.74,12.84h4.01c0-5.57-2.4-10.34-6.28-13.4,2.52-.28,5.02-.64,7.46-1.12,3.06,3.9,4.83,8.9,4.83,14.53h4.01c0-5.84-1.67-11.14-4.58-15.47,2.07-.51,4.09-1.11,6.09-1.75,2.88,4.95,4.5,10.81,4.5,17.22h4.01c0-6.88-1.68-13.18-4.65-18.57,1.92-.72,3.8-1.49,5.64-2.34,3.22,6.12,5.02,13.21,5.02,20.91h4.01c0-8.34-1.94-16.03-5.42-22.68,1.81-.94,3.57-1.94,5.3-3,3.93,7.51,6.13,16.22,6.13,25.68h4.01c0-10.25-2.43-19.7-6.78-27.85,1.7-1.16,3.35-2.38,4.96-3.65,5.02,9.15,7.84,19.85,7.84,31.51h4.01c0-12.63-3.16-24.23-8.74-34.11,1.58-1.39,3.12-2.85,4.59-4.36,6.5,11.03,10.17,24.12,10.17,38.47h4.01c0-15.55-4.11-29.71-11.34-41.53,1.41-1.6,2.76-3.26,4.05-4.97,8.47,13.09,13.3,28.98,13.3,46.5h4.01c0-18.92-5.4-36.03-14.81-50,9.41-13.97,14.81-31.08,14.81-50ZM60.81,41.96c-1.15,1.71-2.37,3.37-3.67,4.97-1.4-1.52-2.87-2.98-4.4-4.38,1.27-1.59,2.47-3.25,3.58-4.96,1.56,1.39,3.04,2.86,4.48,4.37ZM50.14,54.36c-1.38-1.53-2.84-2.98-4.36-4.36,1.52-1.38,2.98-2.84,4.36-4.36,1.52,1.39,2.97,2.84,4.36,4.36-1.39,1.52-2.84,2.97-4.36,4.36ZM33.12,65.85c-1.63-1.57-3.37-3.02-5.22-4.34,2.1-.91,4.14-1.92,6.12-3.03,1.67,1.35,3.25,2.81,4.73,4.37-1.82,1.08-3.7,2.08-5.63,3ZM37.62,56.3c1.77-1.15,3.47-2.39,5.11-3.7,1.54,1.38,3.02,2.84,4.41,4.37-1.59,1.3-3.26,2.52-4.97,3.68-1.43-1.54-2.95-2.99-4.55-4.36ZM38.75,37.16c-1.48,1.55-3.06,3.01-4.73,4.37-1.97-1.11-4.01-2.12-6.12-3.03,1.85-1.32,3.6-2.76,5.22-4.34,1.93.92,3.81,1.92,5.63,3ZM42.17,39.34c1.71,1.16,3.38,2.38,4.97,3.68-1.39,1.53-2.87,2.99-4.41,4.37-1.64-1.31-3.34-2.55-5.11-3.7,1.6-1.36,3.12-2.82,4.55-4.36ZM39.59,50c-1.69,1.32-3.45,2.54-5.29,3.68-1.85-1.34-3.79-2.57-5.81-3.68,2.02-1.11,3.96-2.34,5.81-3.68,1.83,1.14,3.6,2.36,5.29,3.68ZM53.26,34.98c-1.1,1.72-2.27,3.37-3.53,4.96-1.58-1.29-3.23-2.5-4.92-3.66,1.26-1.58,2.43-3.23,3.52-4.96,1.69,1.16,3.34,2.38,4.93,3.66ZM44.99,29.15c-1.08,1.73-2.26,3.38-3.53,4.96-1.77-1.08-3.59-2.08-5.46-3.01,1.33-1.56,2.56-3.21,3.68-4.95,1.82.94,3.59,1.94,5.31,3ZM36.03,24.38c-1.15,1.75-2.43,3.4-3.82,4.94-2.02-.87-4.08-1.66-6.19-2.37,1.56-1.5,2.98-3.15,4.25-4.92,1.96.72,3.89,1.5,5.77,2.35ZM13.21,23.85c2.42-1.29,4.6-2.95,6.47-4.9,2.23.5,4.42,1.07,6.57,1.73-1.4,1.81-2.99,3.46-4.76,4.92-2.7-.72-5.46-1.31-8.28-1.75ZM14.64,34.32c2.79-1.13,5.39-2.58,7.76-4.31,2.3.68,4.55,1.47,6.74,2.36-1.8,1.6-3.74,3.05-5.81,4.32-2.8-.97-5.7-1.76-8.69-2.38ZM15.28,44.77c2.98-.95,5.81-2.18,8.47-3.66,2.32.88,4.58,1.88,6.75,3.02-2.04,1.37-4.19,2.6-6.44,3.68-2.8-1.23-5.73-2.25-8.77-3.03ZM15.28,55.23c3.05-.78,5.97-1.8,8.77-3.03,2.25,1.08,4.4,2.31,6.44,3.68-2.17,1.13-4.42,2.13-6.75,3.02-2.66-1.48-5.49-2.71-8.47-3.66ZM14.64,65.68c2.98-.61,5.88-1.4,8.69-2.38,2.07,1.28,4.01,2.72,5.81,4.32-2.19.89-4.44,1.68-6.74,2.36-2.37-1.73-4.97-3.18-7.76-4.31ZM19.68,81.05c-1.87-1.95-4.05-3.61-6.47-4.9,2.83-.44,5.59-1.03,8.28-1.75,1.76,1.46,3.35,3.11,4.76,4.92-2.15.66-4.34,1.23-6.57,1.73ZM30.26,77.97c-1.27-1.78-2.69-3.42-4.25-4.92,2.11-.7,4.18-1.5,6.19-2.37,1.39,1.54,2.67,3.19,3.82,4.94-1.88.85-3.8,1.63-5.77,2.35ZM39.68,73.86c-1.11-1.74-2.34-3.39-3.68-4.95,1.87-.93,3.69-1.94,5.46-3.01,1.27,1.57,2.45,3.23,3.53,4.96-1.73,1.06-3.5,2.07-5.31,3ZM48.33,68.68c-1.09-1.72-2.26-3.38-3.52-4.96,1.69-1.16,3.34-2.37,4.92-3.66,1.26,1.59,2.43,3.24,3.53,4.96-1.59,1.28-3.24,2.5-4.93,3.66ZM56.32,62.42c-1.12-1.72-2.32-3.37-3.58-4.96,1.53-1.39,2.99-2.86,4.4-4.38,1.29,1.6,2.52,3.26,3.67,4.97-1.44,1.51-2.93,2.98-4.48,4.37ZM63.58,54.97c-1.18-1.71-2.43-3.38-3.74-4.97,1.32-1.6,2.56-3.26,3.74-4.97,1.37,1.6,2.69,3.26,3.94,4.97-1.24,1.72-2.56,3.37-3.94,4.97Z"/>
</svg>