<?xml version="1.0" encoding="UTF-8"?>
<svg id="Layer_1" data-name="Layer 1" xmlns="http://www.w3.org/2000/svg" viewBox="0 0 100 100">
  <defs>
    <style>
      .cls-1 {
        fill: #010101;
      }
    </style>
  </defs>
  <path class="cls-1" d="M0,62.91v4.01c18.95,0,33.08,14.13,33.08,33.08h4.01c0-21.25-15.94-37.09-37.09-37.09Z"/>
  <path class="cls-1" d="M0,72.93v4.01c13.23,0,23.06,9.82,23.06,23.06h4.01c0-15.44-11.63-27.07-27.07-27.07Z"/>
  <path class="cls-1" d="M58.84,34.47c-7.55-9.12-11.97-21.03-11.97-34.47h-4.01c0,9.94,2.29,19.12,6.39,27.09-2.8-1.84-5.73-3.51-8.77-5.02-2.36-6.8-3.64-14.22-3.64-22.07h-4.01c0,6.96.96,13.6,2.75,19.82-2.24-.95-4.54-1.79-6.89-2.56-1.22-5.5-1.88-11.27-1.88-17.26h-4.01c0,5.51.51,10.84,1.5,15.96-2.09-.56-4.2-1.07-6.36-1.49-.75-4.68-1.16-9.5-1.16-14.47h-4.01c0,4.71.34,9.3.98,13.77-4.46-.65-9.06-.98-13.77-.98v4.01c4.97,0,9.79.41,14.47,1.16.41,2.16.93,4.27,1.49,6.36-5.12-.99-10.45-1.5-15.96-1.5v4.01c5.99,0,11.76.66,17.26,1.88.76,2.35,1.61,4.65,2.56,6.89-6.22-1.79-12.86-2.75-19.82-2.75v4.01c7.85,0,15.27,1.28,22.07,3.65,1.51,3.03,3.18,5.97,5.02,8.76-7.97-4.1-17.16-6.39-27.09-6.39v4.01c13.42,0,25.34,4.42,34.48,11.99,2.1,2.35,4.33,4.58,6.68,6.68,7.55,9.12,11.97,21.03,11.97,34.47h4.01c0-9.94-2.29-19.12-6.39-27.09,2.8,1.84,5.73,3.51,8.77,5.02,2.36,6.8,3.64,14.22,3.64,22.07h4.01c0-6.96-.96-13.6-2.75-19.82,2.24.95,4.54,1.79,6.89,2.56,1.22,5.5,1.88,11.27,1.88,17.26h4.01c0-5.51-.51-10.84-1.5-15.96,2.09.56,4.2,1.07,6.36,1.49.75,4.68,1.16,9.5,1.16,14.47h4.01c0-4.71-.34-9.3-.98-13.77,4.46.65,9.06.98,13.77.98v-4.01c-4.97,0-9.79-.41-14.47-1.16-.41-2.16-.93-4.27-1.49-6.36,5.12.99,10.45,1.5,15.96,1.5v-4.01c-5.99,0-11.76-.66-17.26-1.88-.76-2.35-1.61-4.65-2.56-6.89,6.22,1.79,12.86,2.75,19.82,2.75v-4.01c-7.85,0-15.27-1.28-22.07-3.65-1.51-3.03-3.18-5.97-5.02-8.76,7.97,4.1,17.16,6.39,27.09,6.39v-4.01c-13.42,0-25.34-4.42-34.48-11.99-2.1-2.35-4.33-4.58-6.68-6.68ZM37.3,24.97c1.22,3.22,2.66,6.31,4.33,9.25-2.91-1.78-5.95-3.37-9.12-4.76-1.01-2.45-1.89-4.98-2.65-7.58,2.55.91,5.03,1.94,7.44,3.09ZM55.4,51.03c3.66,4.17,6.83,8.79,9.43,13.8-5.01-2.6-9.63-5.78-13.8-9.43-1.99-2.3-4.14-4.44-6.43-6.43-3.66-4.17-6.83-8.79-9.43-13.8,5.01,2.6,9.63,5.78,13.8,9.43,1.99,2.3,4.14,4.44,6.43,6.43ZM18.74,18.74c2.22.47,4.41,1,6.56,1.63.61,2.4,1.31,4.76,2.12,7.05-2.29-.81-4.64-1.52-7.05-2.12-.63-2.14-1.16-4.34-1.63-6.56ZM21.88,29.86c2.6.75,5.12,1.63,7.57,2.64,1.39,3.17,2.98,6.22,4.76,9.12-2.93-1.67-6.02-3.11-9.24-4.33-1.14-2.41-2.17-4.89-3.09-7.44ZM43.86,62.57c-1.96-2.32-4.11-4.47-6.44-6.44-3.62-4.07-6.82-8.52-9.56-13.31,4.98,2.31,9.55,5.26,13.65,8.73,2.15,2.46,4.46,4.77,6.93,6.93,3.47,4.1,6.42,8.67,8.73,13.65-4.79-2.74-9.24-5.94-13.31-9.56ZM62.7,75.03c-1.22-3.22-2.66-6.31-4.33-9.25,2.91,1.78,5.95,3.37,9.12,4.76,1.01,2.45,1.89,4.98,2.65,7.58-2.55-.91-5.03-1.94-7.44-3.09ZM81.26,81.26c-2.22-.47-4.41-1-6.56-1.63-.61-2.4-1.31-4.76-2.12-7.05,2.29.81,4.64,1.52,7.05,2.12.63,2.14,1.16,4.34,1.63,6.56ZM78.12,70.14c-2.6-.75-5.12-1.63-7.57-2.64-1.39-3.17-2.98-6.22-4.76-9.12,2.93,1.67,6.02,3.11,9.24,4.33,1.14,2.41,2.17,4.89,3.09,7.44ZM72.14,57.17c-4.98-2.31-9.55-5.26-13.65-8.73-2.15-2.46-4.47-4.77-6.93-6.93-3.47-4.1-6.42-8.67-8.73-13.65,4.79,2.74,9.25,5.94,13.31,9.56,1.96,2.32,4.11,4.47,6.44,6.44,3.62,4.07,6.82,8.52,9.56,13.31Z"/>
  <path class="cls-1" d="M0,82.96v4.01c7.52,0,13.03,5.61,13.03,13.03h4.01c0-9.72-7.32-17.04-17.04-17.04Z"/>
  <path class="cls-1" d="M0,52.88v4.01c24.66,0,43.11,18.45,43.11,43.11h4.01c0-26.97-20.25-47.12-47.12-47.12Z"/>
  <path class="cls-1" d="M66.92,0h-4.01c0,21.25,15.94,37.09,37.09,37.09v-4.01c-18.95,0-33.08-14.13-33.08-33.08Z"/>
  <path class="cls-1" d="M56.89,0h-4.01c0,26.97,20.25,47.12,47.12,47.12v-4.01c-24.66,0-43.11-18.45-43.11-43.11Z"/>
  <path class="cls-1" d="M86.97,0h-4.01c0,9.72,7.32,17.04,17.04,17.04v-4.01c-7.52,0-13.03-5.61-13.03-13.03Z"/>
  <path class="cls-1" d="M76.94,0h-4.01c0,15.44,11.63,27.07,27.07,27.07v-4.01c-13.23,0-23.06-9.82-23.06-23.06Z"/>
</svg>