<?xml version="1.0" encoding="UTF-8"?>
<svg id="Layer_1" data-name="Layer 1" xmlns="http://www.w3.org/2000/svg" viewBox="0 0 100 100">
  <defs>
    <style>
      .cls-1 {
        fill: #010101;
      }
    </style>
  </defs>
  <path class="cls-1" d="M17.03,32.41c0-7.99,14.39-15.39,32.97-15.39s32.97,7.39,32.97,15.39c0,.79-.14,1.57-.4,2.34,1.13,1.1,2.07,2.26,2.78,3.49,1.05-1.83,1.62-3.78,1.62-5.83,0-11.09-16.89-19.39-36.97-19.39S13.03,21.32,13.03,32.41c0,2.05.57,4,1.62,5.83.71-1.23,1.65-2.39,2.78-3.49-.26-.77-.4-1.55-.4-2.34Z"/>
  <path class="cls-1" d="M17.03,44c0-.75.13-1.5.39-2.24-1.13-1.11-2.06-2.29-2.77-3.52-1.05,1.8-1.62,3.73-1.62,5.76s.58,4.03,1.64,5.88c.71-1.22,1.65-2.39,2.78-3.49-.27-.79-.42-1.59-.42-2.39Z"/>
  <path class="cls-1" d="M85.35,38.24c-.71,1.24-1.64,2.41-2.77,3.52.25.74.39,1.49.39,2.24,0,.8-.15,1.6-.42,2.39,1.13,1.1,2.07,2.26,2.78,3.49,1.06-1.84,1.64-3.81,1.64-5.88s-.57-3.96-1.62-5.76Z"/>
  <path class="cls-1" d="M17.03,55.7c0-.78.14-1.54.4-2.3-1.12-1.11-2.05-2.28-2.76-3.51-1.06,1.82-1.64,3.77-1.64,5.81s.58,4.03,1.64,5.87c.71-1.22,1.65-2.39,2.78-3.48-.27-.79-.42-1.59-.42-2.39Z"/>
  <path class="cls-1" d="M82.97,55.7c0,.81-.15,1.6-.42,2.39,1.13,1.1,2.06,2.26,2.78,3.48,1.06-1.84,1.64-3.81,1.64-5.87s-.58-3.99-1.64-5.81c-.71,1.23-1.64,2.4-2.76,3.51.26.76.4,1.53.4,2.3Z"/>
  <path class="cls-1" d="M82.97,67.39c0,8.09-14.39,15.59-32.97,15.59s-32.97-7.49-32.97-15.59c0-.78.14-1.56.41-2.32-1.12-1.1-2.05-2.27-2.76-3.5-1.06,1.82-1.64,3.77-1.64,5.82,0,11.19,16.89,19.58,36.97,19.58s36.97-8.39,36.97-19.58c0-2.05-.58-4-1.64-5.82-.71,1.23-1.64,2.4-2.76,3.5.27.76.41,1.54.41,2.32Z"/>
  <path class="cls-1" d="M80.43,38.27c1.01-1.13,1.73-2.31,2.15-3.53-6.3-6.1-18.67-10.03-32.57-10.03s-26.28,3.93-32.57,10.03c.41,1.21,1.14,2.4,2.15,3.53,4.92-5.4,16.5-9.56,30.43-9.56s25.5,4.15,30.43,9.56Z"/>
  <path class="cls-1" d="M23.99,41.84c-1.79-1.1-3.28-2.3-4.41-3.57-1.02,1.12-1.75,2.29-2.16,3.49.83.82,1.78,1.61,2.81,2.35,1.14-.81,2.4-1.57,3.76-2.27Z"/>
  <path class="cls-1" d="M76.01,41.84c1.36.7,2.62,1.46,3.76,2.27,1.04-.74,1.98-1.52,2.81-2.35-.41-1.2-1.14-2.37-2.16-3.49-1.13,1.27-2.63,2.47-4.41,3.57Z"/>
  <path class="cls-1" d="M23.97,46.4c-1.36-.71-2.61-1.47-3.75-2.29-1.02.72-1.95,1.49-2.78,2.29.42,1.2,1.14,2.38,2.14,3.5,1.13-1.25,2.61-2.42,4.39-3.5Z"/>
  <path class="cls-1" d="M76.03,46.4c1.77,1.08,3.26,2.25,4.39,3.5,1-1.12,1.72-2.3,2.14-3.5-.82-.8-1.75-1.56-2.78-2.29-1.14.81-2.39,1.58-3.75,2.29Z"/>
  <path class="cls-1" d="M23.99,41.84c1.35.83,2.87,1.6,4.53,2.29,5.72-2.34,13.18-3.82,21.48-3.82s15.76,1.48,21.48,3.82c1.67-.69,3.19-1.46,4.53-2.29-6.73-3.46-15.97-5.53-26.01-5.53s-19.28,2.07-26.01,5.53Z"/>
  <path class="cls-1" d="M24.04,53.5c-1.81-1.11-3.31-2.32-4.46-3.61-1.01,1.12-1.75,2.29-2.16,3.5.84.83,1.79,1.63,2.84,2.38,1.15-.81,2.41-1.57,3.78-2.27Z"/>
  <path class="cls-1" d="M75.96,53.5c1.37.7,2.63,1.46,3.78,2.27,1.05-.75,2-1.54,2.84-2.38-.42-1.2-1.15-2.38-2.16-3.5-1.14,1.29-2.65,2.5-4.46,3.61Z"/>
  <path class="cls-1" d="M75.98,58.06c1.79,1.08,3.29,2.26,4.42,3.52,1-1.12,1.73-2.29,2.15-3.49-.84-.81-1.78-1.58-2.82-2.32-1.14.82-2.39,1.58-3.75,2.29Z"/>
  <path class="cls-1" d="M24.02,58.06c-1.36-.71-2.61-1.48-3.75-2.29-1.04.73-1.98,1.5-2.82,2.32.42,1.2,1.14,2.37,2.15,3.49,1.14-1.25,2.63-2.44,4.42-3.52Z"/>
  <path class="cls-1" d="M50,48c5.86,0,11.45.71,16.42,1.99,3.55-.92,6.8-2.13,9.6-3.59-1.35-.82-2.88-1.58-4.55-2.27-5.72,2.38-13.18,3.87-21.48,3.87Z"/>
  <path class="cls-1" d="M28.52,44.13c-1.67.69-3.2,1.45-4.55,2.27,2.81,1.46,6.05,2.67,9.6,3.59,4.98-1.28,10.56-1.99,16.42-1.99-8.3,0-15.76-1.5-21.48-3.87Z"/>
  <path class="cls-1" d="M50,52c-5.86,0-11.45-.72-16.42-2.01-3.52.9-6.74,2.09-9.53,3.52,1.35.83,2.86,1.6,4.53,2.29,5.71-2.33,13.15-3.8,21.43-3.8Z"/>
  <path class="cls-1" d="M71.43,55.8c1.67-.7,3.18-1.47,4.53-2.29-2.79-1.43-6.01-2.61-9.53-3.52-4.98,1.29-10.56,2.01-16.42,2.01,8.28,0,15.72,1.47,21.43,3.8Z"/>
  <path class="cls-1" d="M50,71.28c-13.91,0-25.47-4.2-30.41-9.71-1.01,1.12-1.75,2.29-2.16,3.49,6.3,6.19,18.66,10.21,32.57,10.21s26.27-4.02,32.57-10.21c-.42-1.2-1.15-2.37-2.16-3.49-4.93,5.51-16.49,9.71-30.41,9.71Z"/>
  <path class="cls-1" d="M50,59.69c-8.28,0-15.72-1.51-21.43-3.89-1.68.68-3.2,1.44-4.56,2.26,6.73,3.51,15.96,5.63,25.98,5.63s19.25-2.12,25.98-5.63c-1.35-.82-2.88-1.58-4.56-2.26-5.71,2.39-13.15,3.89-21.43,3.89Z"/>
</svg>