<?xml version="1.0" encoding="UTF-8"?>
<svg id="Layer_1" data-name="Layer 1" xmlns="http://www.w3.org/2000/svg" viewBox="0 0 100 100">
  <defs>
    <style>
      .cls-1 {
        fill: #010101;
      }
    </style>
  </defs>
  <path class="cls-1" d="M85.01,46.95l14.99.1v-4l-14.99-.1c-9.11,0-17.33,1.75-23.7,4.8,1.5.84,3.16,1.59,4.96,2.25,5.22-1.93,11.62-3.06,18.74-3.06Z"/>
  <path class="cls-1" d="M48.04,65.04c0,12.89,16.19,21.98,36.97,21.98h14.99v-4h-14.99c-18.94,0-32.61-7.89-32.96-17.61-1.41-1.66-2.48-3.46-3.15-5.39-.56,1.59-.86,3.27-.86,5.01Z"/>
  <path class="cls-1" d="M52.05,55.42c.06,1.59.47,3.14,1.21,4.61.36-.72.79-1.42,1.3-2.1-.93-.79-1.76-1.63-2.51-2.51Z"/>
  <path class="cls-1" d="M54.54,52.1c.77,1.02,1.7,2,2.79,2.92,1.17-.99,2.51-1.91,4.01-2.76-1.44-.69-2.78-1.44-4.02-2.26-1,.66-1.92,1.36-2.78,2.09Z"/>
  <path class="cls-1" d="M48.9,50.03c-.56,1.59-.86,3.27-.86,5.01s.3,3.4.86,4.98c.62-1.78,1.57-3.46,2.81-5.01-1.24-1.55-2.19-3.21-2.81-4.98Z"/>
  <path class="cls-1" d="M52.05,65.41c6.05,7.13,18.37,11.62,32.96,11.62h14.99v-4h-14.99c-15.84,0-27.99-5.52-31.75-13-.8,1.59-1.23,3.27-1.23,5.01,0,.13.01.25.02.37Z"/>
  <path class="cls-1" d="M57.33,45.03c5.73-4.86,15.68-8.07,27.68-8.07l14.99.1v-4l-14.99-.1c-12.81,0-23.86,3.46-30.47,9.15.77,1.02,1.7,2,2.79,2.92Z"/>
  <path class="cls-1" d="M54.56,47.94c-.93-.79-1.76-1.63-2.51-2.51.06,1.59.47,3.14,1.21,4.61.36-.72.79-1.42,1.3-2.1Z"/>
  <path class="cls-1" d="M53.26,40.04c3.78-7.55,15.99-13.08,31.75-13.08l14.99.1v-4l-14.99-.1c-14.59,0-26.9,4.48-32.96,11.65,0,.15-.02.29-.02.44,0,1.73.43,3.4,1.23,4.98Z"/>
  <path class="cls-1" d="M48.9,40.04c-.56,1.59-.86,3.27-.86,5.01s.3,3.4.86,4.98c.62-1.78,1.57-3.46,2.81-5.01-1.24-1.55-2.19-3.21-2.81-4.98Z"/>
  <path class="cls-1" d="M54.56,57.93c6.61,5.66,17.65,9.11,30.45,9.11h14.99v-4h-14.99c-12.05,0-21.97-3.19-27.68-8.02-1.08.91-2.01,1.89-2.77,2.91Z"/>
  <path class="cls-1" d="M52.06,54.6c.74-.87,1.57-1.71,2.49-2.5-.5-.67-.93-1.36-1.28-2.07-.73,1.46-1.14,2.99-1.21,4.57Z"/>
  <path class="cls-1" d="M52.05,55.42c0-.12-.02-.25-.02-.37,0-.15.01-.29.02-.44-.12.14-.23.27-.35.41.11.14.23.27.34.41Z"/>
  <path class="cls-1" d="M85.01,16.98l14.99.1v-4l-14.99-.1c-20.78,0-36.97,9.09-36.97,22.08,0,1.73.3,3.4.86,4.98.68-1.94,1.75-3.75,3.16-5.42.4-9.79,14.15-17.64,32.96-17.64Z"/>
  <path class="cls-1" d="M54.54,42.11c-.5-.67-.93-1.36-1.28-2.07-.73,1.46-1.14,2.99-1.21,4.57.74-.87,1.57-1.71,2.49-2.5Z"/>
  <path class="cls-1" d="M85.01,57.04h14.99v-4h-14.99c-7.14,0-13.52-1.12-18.74-3.04-1.79.66-3.44,1.42-4.94,2.25,6.36,3.04,14.58,4.78,23.67,4.78Z"/>
  <path class="cls-1" d="M54.56,47.94c.85.73,1.77,1.42,2.76,2.07,1.23-.81,2.56-1.57,3.99-2.25-1.49-.83-2.82-1.75-3.98-2.73-1.08.91-2.01,1.89-2.77,2.91Z"/>
  <path class="cls-1" d="M52.04,45.05c0-.15.01-.29.02-.44-.12.14-.23.27-.35.41.11.14.23.27.34.41,0-.12-.02-.25-.02-.37Z"/>
</svg>