<?xml version="1.0" encoding="UTF-8"?>
<svg id="Layer_1" data-name="Layer 1" xmlns="http://www.w3.org/2000/svg" viewBox="0 0 100 100">
  <defs>
    <style>
      .cls-1 {
        fill: #010101;
      }
    </style>
  </defs>
  <path class="cls-1" d="M47.9,54.54c-1.02.77-2,1.7-2.92,2.79.99,1.17,1.91,2.51,2.76,4.01.69-1.44,1.44-2.78,2.26-4.02-.66-1-1.36-1.92-2.09-2.78Z"/>
  <path class="cls-1" d="M44.58,52.05c-1.59.06-3.14.47-4.61,1.21.72.36,1.42.79,2.1,1.3.79-.93,1.63-1.76,2.51-2.51Z"/>
  <path class="cls-1" d="M34.96,48.04c-12.89,0-21.98,16.19-21.98,36.97v14.99h4v-14.99c0-18.94,7.89-32.61,17.61-32.96,1.66-1.41,3.46-2.48,5.39-3.15-1.59-.56-3.27-.86-5.01-.86Z"/>
  <path class="cls-1" d="M53.05,85.01l-.1,14.99h4l.1-14.99c0-9.11-1.75-17.33-4.8-23.7-.84,1.5-1.59,3.16-2.25,4.96,1.93,5.22,3.06,11.62,3.06,18.74Z"/>
  <path class="cls-1" d="M49.97,48.9c-1.59-.56-3.27-.86-5.01-.86s-3.4.3-4.98.86c1.78.62,3.46,1.57,5.01,2.81,1.55-1.24,3.21-2.19,4.98-2.81Z"/>
  <path class="cls-1" d="M34.59,52.05c-7.13,6.05-11.62,18.37-11.62,32.96v14.99h4v-14.99c0-15.84,5.52-27.99,13-31.75-1.59-.8-3.27-1.23-5.01-1.23-.13,0-.25.01-.37.02Z"/>
  <path class="cls-1" d="M52.06,54.56c.79-.93,1.63-1.76,2.51-2.51-1.59.06-3.14.47-4.61,1.21.72.36,1.42.79,2.1,1.3Z"/>
  <path class="cls-1" d="M54.97,57.33c4.86,5.73,8.07,15.68,8.07,27.68l-.1,14.99h4l.1-14.99c0-12.81-3.46-23.86-9.15-30.47-1.02.77-2,1.7-2.92,2.79Z"/>
  <path class="cls-1" d="M45.4,52.06c.87.74,1.71,1.57,2.5,2.49.67-.5,1.36-.93,2.07-1.28-1.46-.73-2.99-1.14-4.57-1.21Z"/>
  <path class="cls-1" d="M59.96,53.26c7.55,3.78,13.08,15.99,13.08,31.75l-.1,14.99h4l.1-14.99c0-14.59-4.48-26.9-11.65-32.96-.15,0-.29-.02-.44-.02-1.73,0-3.4.43-4.98,1.23Z"/>
  <path class="cls-1" d="M42.07,54.56c-5.66,6.61-9.11,17.65-9.11,30.45v14.99h4v-14.99c0-12.05,3.19-21.97,8.02-27.68-.91-1.08-1.89-2.01-2.91-2.77Z"/>
  <path class="cls-1" d="M59.96,48.9c-1.59-.56-3.27-.86-5.01-.86s-3.4.3-4.98.86c1.78.62,3.46,1.57,5.01,2.81,1.55-1.24,3.21-2.19,4.98-2.81Z"/>
  <path class="cls-1" d="M44.58,52.05c.12,0,.25-.02.37-.02.15,0,.29.01.44.02-.14-.12-.27-.23-.41-.35-.14.11-.27.23-.41.34Z"/>
  <path class="cls-1" d="M64.94,48.04c-1.73,0-3.4.3-4.98.86,1.94.68,3.75,1.75,5.42,3.16,9.79.4,17.64,14.15,17.64,32.96l-.1,14.99h4l.1-14.99c0-20.78-9.09-36.97-22.08-36.97Z"/>
  <path class="cls-1" d="M52.06,54.56c-.73.85-1.42,1.77-2.07,2.76.81,1.23,1.57,2.56,2.25,3.99.83-1.49,1.75-2.82,2.73-3.98-.91-1.08-1.89-2.01-2.91-2.77Z"/>
  <path class="cls-1" d="M42.96,85.01v14.99h4v-14.99c0-7.14,1.12-13.52,3.04-18.74-.66-1.79-1.42-3.44-2.25-4.94-3.04,6.36-4.78,14.58-4.78,23.67Z"/>
  <path class="cls-1" d="M57.89,54.54c.67-.5,1.36-.93,2.07-1.28-1.46-.73-2.99-1.14-4.57-1.21.87.74,1.71,1.57,2.5,2.49Z"/>
  <path class="cls-1" d="M54.95,52.04c.15,0,.29.01.44.02-.14-.12-.27-.23-.41-.35-.14.11-.27.23-.41.34.12,0,.25-.02.37-.02Z"/>
</svg>