<?xml version="1.0" encoding="UTF-8"?>
<svg id="Layer_1" data-name="Layer 1" xmlns="http://www.w3.org/2000/svg" viewBox="0 0 100 100">
  <defs>
    <style>
      .cls-1 {
        fill: #010101;
      }
    </style>
  </defs>
  <path class="cls-1" d="M45.44,57.93c.51.68.94,1.38,1.3,2.1.74-1.47,1.15-3.01,1.21-4.61-.74.88-1.58,1.71-2.51,2.51Z"/>
  <path class="cls-1" d="M45.46,52.1c-.85-.74-1.78-1.44-2.78-2.09-1.24.81-2.58,1.57-4.02,2.26,1.5.84,2.84,1.76,4.01,2.76,1.09-.92,2.02-1.89,2.79-2.92Z"/>
  <path class="cls-1" d="M14.99,83.02H0v4h14.99c20.78,0,36.97-9.09,36.97-21.98,0-1.75-.3-3.42-.86-5.01-.68,1.92-1.75,3.73-3.15,5.39-.34,9.72-14.02,17.61-32.96,17.61Z"/>
  <path class="cls-1" d="M14.99,42.96l-14.99.1v4l14.99-.1c7.12,0,13.51,1.13,18.74,3.06,1.8-.66,3.46-1.42,4.96-2.25-6.37-3.05-14.59-4.8-23.7-4.8Z"/>
  <path class="cls-1" d="M45.44,47.94c.51.68.94,1.38,1.3,2.1.74-1.47,1.15-3.01,1.21-4.61-.74.88-1.58,1.71-2.51,2.51Z"/>
  <path class="cls-1" d="M45.46,42.11c-6.6-5.69-17.66-9.15-30.47-9.15l-14.99.1v4l14.99-.1c12.01,0,21.95,3.2,27.68,8.07,1.09-.92,2.02-1.89,2.79-2.92Z"/>
  <path class="cls-1" d="M46.74,60.03c-3.76,7.49-15.91,13-31.75,13H0v4h14.99c14.59,0,26.91-4.49,32.96-11.62,0-.12.02-.25.02-.37,0-1.74-.43-3.42-1.23-5.01Z"/>
  <path class="cls-1" d="M51.1,60.03c.56-1.58.86-3.25.86-4.98s-.3-3.42-.86-5.01c-.62,1.77-1.57,3.44-2.81,4.98,1.24,1.55,2.19,3.23,2.81,5.01Z"/>
  <path class="cls-1" d="M47.94,34.62c-6.05-7.16-18.37-11.65-32.96-11.65l-14.99.1v4l14.99-.1c15.76,0,27.97,5.52,31.75,13.08.8-1.58,1.23-3.25,1.23-4.98,0-.15-.01-.29-.02-.44Z"/>
  <path class="cls-1" d="M47.94,54.6c-.07-1.58-.48-3.11-1.21-4.57-.36.71-.78,1.4-1.28,2.07.92.79,1.75,1.63,2.49,2.5Z"/>
  <path class="cls-1" d="M42.67,55.02c-5.71,4.83-15.63,8.02-27.68,8.02H0v4h14.99c12.8,0,23.85-3.45,30.45-9.11-.76-1.02-1.69-1.99-2.77-2.91Z"/>
  <path class="cls-1" d="M51.1,40.04c-.62,1.77-1.57,3.44-2.81,4.98,1.24,1.55,2.19,3.23,2.81,5.01.56-1.58.86-3.25.86-4.98s-.3-3.42-.86-5.01Z"/>
  <path class="cls-1" d="M47.95,55.42c.11-.13.23-.27.34-.41-.11-.14-.23-.27-.35-.41,0,.15.02.29.02.44,0,.13-.01.25-.02.37Z"/>
  <path class="cls-1" d="M51.96,35.06c0-12.99-16.19-22.08-36.97-22.08l-14.99.1v4l14.99-.1c18.8,0,32.55,7.86,32.96,17.64,1.41,1.67,2.48,3.48,3.16,5.42.56-1.58.86-3.25.86-4.98Z"/>
  <path class="cls-1" d="M14.99,53.05H0v4h14.99c9.09,0,17.31-1.74,23.67-4.78-1.5-.84-3.15-1.59-4.94-2.25-5.21,1.92-11.6,3.04-18.74,3.04Z"/>
  <path class="cls-1" d="M47.94,44.61c-.07-1.58-.48-3.11-1.21-4.57-.36.71-.78,1.4-1.28,2.07.92.79,1.75,1.63,2.49,2.5Z"/>
  <path class="cls-1" d="M45.44,47.94c-.76-1.02-1.69-1.99-2.77-2.91-1.16.98-2.49,1.9-3.98,2.73,1.43.69,2.76,1.44,3.99,2.25.99-.65,1.91-1.34,2.76-2.07Z"/>
  <path class="cls-1" d="M47.96,45.05c0,.13-.01.25-.02.37.11-.13.23-.27.34-.41-.11-.14-.23-.27-.35-.41,0,.15.02.29.02.44Z"/>
</svg>