<?xml version="1.0" encoding="UTF-8"?>
<svg id="Layer_1" data-name="Layer 1" xmlns="http://www.w3.org/2000/svg" viewBox="0 0 100 100">
  <defs>
    <style>
      .cls-1 {
        fill: #010101;
      }
    </style>
  </defs>
  <path class="cls-1" d="M99.91,16.91v-4c-22.64,0-36.66,16.72-50.18,33.82C36.26,29.66,22.34,12.96-.11,12.91v4c15.96.04,27.44,9.48,37.86,21.42C25.57,29.73,13.1,22.91-.11,22.91v4c12.69,0,24.85,6.97,36.97,15.71C22.82,37.24,9.57,32.9-.11,32.9v4c8.99,0,21.45,4.08,34.89,9.22-15.53-1.79-29.16-3.22-34.89-3.22v4c5.4,0,18.08,1.32,32.74,2.99-14.69,1.68-27.37,3-32.74,3v4c5.73,0,19.37-1.44,34.9-3.23C21.34,58.8,8.87,62.88-.11,62.88v4c9.67,0,22.88-4.32,36.88-9.67-12.11,8.72-24.24,15.67-36.88,15.67v4c13.25,0,25.74-6.85,37.94-15.48C27.37,73.35,15.87,82.82-.11,82.86v4c22.43-.05,36.37-16.71,49.84-33.75,13.47,17.07,27.47,33.75,50.08,33.75v-4c-16.35,0-28.02-9.75-38.61-21.97,12.41,8.86,25.11,15.98,38.61,15.98v-4c-12.62,0-24.74-6.93-36.82-15.63,13.96,5.34,27.14,9.64,36.82,9.64v-4c-9,0-21.49-4.08-34.95-9.23,15.57,1.79,29.25,3.24,34.95,3.24v-4c-5.37,0-18.05-1.32-32.73-3,14.66-1.68,27.32-3,32.73-3v-4c-5.73,0-19.38,1.44-34.92,3.23,13.45-5.14,25.93-9.22,34.92-9.22v-4c-9.68,0-22.86,4.3-36.83,9.64,12.09-8.7,24.21-15.63,36.83-15.63v-4c-13.41,0-26.04,7.02-38.38,15.79,10.57-12.13,22.21-21.79,38.48-21.79Z"/>
</svg>