<?xml version="1.0" encoding="UTF-8"?>
<svg id="Layer_1" data-name="Layer 1" xmlns="http://www.w3.org/2000/svg" viewBox="0 0 100 100">
  <defs>
    <style>
      .cls-1 {
        fill: #010101;
      }
    </style>
  </defs>
  <path class="cls-1" d="M57.04,14.99l-.1-14.99h-4l.1,14.99c0,7.12-1.13,13.51-3.06,18.74.66,1.8,1.42,3.46,2.25,4.96,3.05-6.37,4.8-14.59,4.8-23.7Z"/>
  <path class="cls-1" d="M47.9,45.46c.74-.85,1.44-1.78,2.09-2.78-.81-1.24-1.57-2.58-2.26-4.02-.84,1.5-1.76,2.84-2.76,4.01.92,1.09,1.89,2.02,2.92,2.79Z"/>
  <path class="cls-1" d="M42.07,45.44c-.68.51-1.38.94-2.1,1.3,1.47.74,3.01,1.15,4.61,1.21-.88-.74-1.71-1.58-2.51-2.51Z"/>
  <path class="cls-1" d="M16.98,14.99V0h-4v14.99c0,20.78,9.09,36.97,21.98,36.97,1.75,0,3.42-.3,5.01-.86-1.92-.68-3.73-1.75-5.39-3.15-9.72-.34-17.61-14.02-17.61-32.96Z"/>
  <path class="cls-1" d="M52.06,45.44c-.68.51-1.38.94-2.1,1.3,1.47.74,3.01,1.15,4.61,1.21-.88-.74-1.71-1.58-2.51-2.51Z"/>
  <path class="cls-1" d="M39.97,51.1c1.58.56,3.25.86,4.98.86s3.42-.3,5.01-.86c-1.77-.62-3.44-1.57-4.98-2.81-1.55,1.24-3.23,2.19-5.01,2.81Z"/>
  <path class="cls-1" d="M57.89,45.46c5.69-6.6,9.15-17.66,9.15-30.47l-.1-14.99h-4l.1,14.99c0,12.01-3.2,21.95-8.07,27.68.92,1.09,1.89,2.02,2.92,2.79Z"/>
  <path class="cls-1" d="M39.97,46.74c-7.49-3.76-13-15.91-13-31.75V0h-4v14.99c0,14.59,4.49,26.91,11.62,32.96.12,0,.25.02.37.02,1.74,0,3.42-.43,5.01-1.23Z"/>
  <path class="cls-1" d="M45.4,47.94c1.58-.07,3.11-.48,4.57-1.21-.71-.36-1.4-.78-2.07-1.28-.79.92-1.63,1.75-2.5,2.49Z"/>
  <path class="cls-1" d="M65.38,47.94c7.16-6.05,11.65-18.37,11.65-32.96l-.1-14.99h-4l.1,14.99c0,15.76-5.52,27.97-13.08,31.75,1.58.8,3.25,1.23,4.98,1.23.15,0,.29-.01.44-.02Z"/>
  <path class="cls-1" d="M44.98,42.67c-4.83-5.71-8.02-15.63-8.02-27.68V0h-4v14.99c0,12.8,3.45,23.85,9.11,30.45,1.02-.76,1.99-1.69,2.91-2.77Z"/>
  <path class="cls-1" d="M49.97,51.1c1.58.56,3.25.86,4.98.86s3.42-.3,5.01-.86c-1.77-.62-3.44-1.57-4.98-2.81-1.55,1.24-3.23,2.19-5.01,2.81Z"/>
  <path class="cls-1" d="M44.58,47.95c.13.11.27.23.41.34.14-.11.27-.23.41-.35-.15,0-.29.02-.44.02-.13,0-.25-.01-.37-.02Z"/>
  <path class="cls-1" d="M86.92,0h-4l.1,14.99c0,18.8-7.86,32.55-17.64,32.96-1.67,1.41-3.48,2.48-5.42,3.16,1.58.56,3.25.86,4.98.86,12.99,0,22.08-16.19,22.08-36.97l-.1-14.99Z"/>
  <path class="cls-1" d="M46.95,14.99V0h-4v14.99c0,9.09,1.74,17.31,4.78,23.67.84-1.5,1.59-3.15,2.25-4.94-1.92-5.21-3.04-11.6-3.04-18.74Z"/>
  <path class="cls-1" d="M52.06,45.44c1.02-.76,1.99-1.69,2.91-2.77-.98-1.16-1.9-2.49-2.73-3.98-.69,1.43-1.44,2.76-2.25,3.99.65.99,1.34,1.91,2.07,2.76Z"/>
  <path class="cls-1" d="M55.39,47.94c1.58-.07,3.11-.48,4.57-1.21-.71-.36-1.4-.78-2.07-1.28-.79.92-1.63,1.75-2.5,2.49Z"/>
  <path class="cls-1" d="M54.57,47.95c.13.11.27.23.41.34.14-.11.27-.23.41-.35-.15,0-.29.02-.44.02-.13,0-.25-.01-.37-.02Z"/>
</svg>