<?xml version="1.0" encoding="UTF-8"?>
<svg id="Layer_1" data-name="Layer 1" xmlns="http://www.w3.org/2000/svg" viewBox="0 0 100 100">
  <defs>
    <style>
      .cls-1 {
        fill: #010101;
      }
    </style>
  </defs>
  <path class="cls-1" d="M53.22,50.17C70.29,36.69,86.97,22.7,86.97.09h-4c0,16.35-9.75,28.02-21.97,38.61,8.86-12.41,15.98-25.11,15.98-38.61h-4c0,12.62-6.93,24.74-15.63,36.82,5.34-13.96,9.64-27.14,9.64-36.82h-4c0,9-4.08,21.49-9.23,34.95,1.79-15.57,3.24-29.25,3.24-34.95h-4c0,5.37-1.32,18.05-3,32.73-1.68-14.66-3-27.32-3-32.73h-4c0,5.73,1.44,19.38,3.23,34.92C41.09,21.56,37.01,9.08,37.01.09h-4c0,9.68,4.3,22.86,9.64,36.82C33.95,24.82,27.02,12.71,27.02.09h-4c0,13.41,7.02,26.04,15.79,38.38C26.68,27.9,17.03,16.26,17.03-.01h-4c0,22.64,16.72,36.66,33.82,50.18-17.07,13.47-33.77,27.39-33.82,49.85h4c.04-15.96,9.48-27.44,21.42-37.86-8.6,12.17-15.42,24.64-15.42,37.86h4c0-12.69,6.97-24.85,15.71-36.97-5.37,14.04-9.71,27.28-9.71,36.97h4c0-8.99,4.08-21.45,9.22-34.89-1.79,15.53-3.22,29.16-3.22,34.89h4c0-5.4,1.32-18.08,2.99-32.74,1.68,14.69,3,27.37,3,32.74h4c0-5.73-1.44-19.37-3.23-34.9,5.14,13.44,9.22,25.91,9.22,34.9h4c0-9.67-4.32-22.88-9.67-36.88,8.72,12.11,15.67,24.24,15.67,36.88h4c0-13.25-6.85-25.74-15.48-37.94,11.96,10.45,21.44,21.95,21.47,37.94h4c-.05-22.43-16.71-36.37-33.75-49.84Z"/>
</svg>