<?xml version="1.0" encoding="UTF-8"?>
<svg id="Layer_1" data-name="Layer 1" xmlns="http://www.w3.org/2000/svg" viewBox="0 0 100 100">
  <defs>
    <style>
      .cls-1 {
        fill: #010101;
      }
    </style>
  </defs>
  <path class="cls-1" d="M73.19,49.92c.7-.45,1.42-.88,2.16-1.29-.05-.53-.09-1.06-.13-1.59-.74.91-1.41,1.87-2.02,2.88Z"/>
  <path class="cls-1" d="M73.02,100h4c0-4.95-1.13-11.75-2.26-19.21-1.38-.39-2.78-.77-4.2-1.15,1.18,8.17,2.46,15.47,2.46,20.36Z"/>
  <path class="cls-1" d="M69.98,75.4c1.4.36,2.78.72,4.15,1.09-.13-.91-.25-1.83-.38-2.75-1.34-.18-2.69-.34-4.04-.49.09.72.18,1.43.27,2.14Z"/>
  <path class="cls-1" d="M63.55,68.82c1.31.07,2.61.17,3.91.28.05-.49.11-.98.17-1.46-1.36.17-2.71.38-4.03.63-.02.18-.04.36-.06.55Z"/>
  <path class="cls-1" d="M63.03,100h4c0-6.53-.33-13.94-.15-21.31-1.3-.33-2.62-.64-3.93-.94-.26,7.89.09,15.67.09,22.25Z"/>
  <path class="cls-1" d="M68.28,63.59c.06-.32.12-.64.19-.95-.85.39-1.68.81-2.5,1.25.77-.11,1.54-.21,2.31-.3Z"/>
  <path class="cls-1" d="M68.81,53.24c.05-.82.12-1.63.2-2.43.09.16.17.33.26.49-.06-.43-.11-.87-.16-1.31.05-.44.1-.88.16-1.31-.09.16-.17.33-.26.49-.08-.8-.15-1.61-.2-2.43-.92-.81-1.78-1.67-2.6-2.56.66,2.02,1.45,3.96,2.38,5.81-.93,1.84-1.72,3.79-2.38,5.81.82-.89,1.69-1.75,2.6-2.56Z"/>
  <path class="cls-1" d="M63.2,72.69c-.03.36-.05.72-.07,1.09,1.31.28,2.61.58,3.9.89.03-.56.06-1.12.1-1.68-1.31-.12-2.62-.23-3.92-.3Z"/>
  <path class="cls-1" d="M53.04,100h4c0-8.24.76-16.03,2.58-22.97-1.31-.27-2.61-.51-3.91-.73-1.88,7.28-2.67,15.33-2.67,23.7Z"/>
  <path class="cls-1" d="M61.44,68.73c.36.01.71.03,1.07.04.05-.1.09-.2.13-.3-.4.08-.81.17-1.2.26Z"/>
  <path class="cls-1" d="M56.8,72.53s0,0,0,.01c1.32.23,2.63.47,3.95.74.08-.23.15-.46.23-.69-1.4-.05-2.8-.07-4.17-.06Z"/>
  <path class="cls-1" d="M66.21,55.81c-1.66,1.81-3.15,3.77-4.45,5.87,1.07-.66,2.18-1.27,3.32-1.85.33-1.37.7-2.71,1.13-4.02Z"/>
  <path class="cls-1" d="M73.28,60.75c-.27-1.32-.51-2.64-.74-3.96,0,0,0,0,0,0-.02,1.38,0,2.78.06,4.19.23-.08.46-.15.69-.23Z"/>
  <path class="cls-1" d="M68.46,62.64c.1-.05.2-.09.3-.13-.02-.36-.03-.71-.04-1.07-.09.4-.18.8-.26,1.2Z"/>
  <path class="cls-1" d="M61.75,61.68c-2.14,1.32-4.12,2.82-5.95,4.5,1.33-.43,2.68-.81,4.07-1.14.58-1.15,1.21-2.28,1.88-3.36Z"/>
  <path class="cls-1" d="M43.04,100h4c0-10.09,2.17-17.99,5.98-24.12-1.48-.22-2.96-.39-4.41-.53-3.55,6.44-5.57,14.54-5.57,24.65Z"/>
  <path class="cls-1" d="M69.61,58.09c-.32.33-.64.66-.95,1,0,.78.03,1.56.06,2.35.26-1.14.55-2.26.89-3.35Z"/>
  <path class="cls-1" d="M70.01,57.67c-.1.04-.2.08-.3.12-.03.1-.06.2-.09.3.13-.14.26-.28.4-.42Z"/>
  <path class="cls-1" d="M64.2,64.17c.27-.05.54-.09.82-.13,1.09-1.76,2.3-3.42,3.65-4.95,0-.3,0-.6,0-.9-1.23.5-2.42,1.06-3.59,1.64-.34,1.42-.63,2.87-.88,4.34Z"/>
  <path class="cls-1" d="M63.62,68.28c.09-.79.2-1.58.31-2.36-.45.83-.88,1.68-1.28,2.55.32-.07.65-.13.97-.19Z"/>
  <path class="cls-1" d="M67.64,67.64c.48-.06.97-.12,1.46-.17-.11-1.31-.21-2.62-.28-3.93-.18.02-.36.04-.54.06-.25,1.33-.46,2.68-.64,4.05Z"/>
  <path class="cls-1" d="M41.07,75.26c-4.95,5.51-8.02,13.41-8.02,24.74h4c0-12.13,3.89-19.86,9.99-24.78-1.87-.13-3.69-.19-5.47-.15-.17.07-.34.13-.5.2Z"/>
  <path class="cls-1" d="M55.8,66.18c-2.53.82-4.93,1.84-7.17,3.1,1.5-.21,3.03-.37,4.59-.47.82-.92,1.68-1.8,2.59-2.63Z"/>
  <path class="cls-1" d="M64.64,64.64c-.2.12-.39.23-.58.35-.05.3-.09.61-.14.92.23-.43.47-.85.72-1.27Z"/>
  <path class="cls-1" d="M65.97,63.9c-.32.05-.64.09-.95.14-.12.2-.25.4-.37.61.43-.26.88-.51,1.32-.75Z"/>
  <path class="cls-1" d="M64.06,65c.04-.28.09-.55.14-.83-1.46.25-2.91.53-4.33.87-.6,1.18-1.16,2.38-1.67,3.62.29,0,.59,0,.88,0,1.53-1.36,3.2-2.58,4.97-3.67Z"/>
  <path class="cls-1" d="M57.7,69.98c-.75.74-1.45,1.53-2.13,2.35.39.06.78.12,1.18.19.02,0,.04,0,.06,0,.28-.86.58-1.71.9-2.55Z"/>
  <path class="cls-1" d="M31.48,76.56c-5.19,4.79-8.42,12.2-8.42,23.44h4c0-14.01,5.67-21.28,14.01-24.74.06-.06.12-.13.17-.19-3.5.09-6.79.55-9.76,1.49Z"/>
  <path class="cls-1" d="M45.54,71.24c.99-.71,2.02-1.37,3.09-1.97-2.8.4-5.49,1.02-8,1.91,1.61-.05,3.24-.03,4.91.05Z"/>
  <path class="cls-1" d="M62.51,68.77c-.56,1.23-1.07,2.5-1.54,3.82.74.03,1.48.06,2.23.11.09-1.3.21-2.59.35-3.87-.35-.02-.7-.04-1.04-.05Z"/>
  <path class="cls-1" d="M67.13,73c.86.08,1.72.17,2.58.26-.16-1.32-.31-2.65-.44-3.99-.6-.06-1.2-.11-1.8-.17-.14,1.29-.25,2.59-.34,3.89Z"/>
  <path class="cls-1" d="M57.81,69.7c-.04.1-.07.19-.11.29.13-.13.26-.25.39-.37-.09.03-.19.06-.28.09Z"/>
  <path class="cls-1" d="M59.09,68.67c-.34.3-.67.63-1,.95,1.09-.33,2.21-.63,3.35-.89-.78-.03-1.57-.05-2.35-.06Z"/>
  <path class="cls-1" d="M57.81,69.7c.13-.35.26-.7.4-1.04-1.68,0-3.35.04-4.99.15-.81.91-1.57,1.88-2.29,2.89.46.05.93.11,1.39.17,1.73-.86,3.57-1.57,5.49-2.17Z"/>
  <path class="cls-1" d="M56.74,72.53c-.45,0-.91.02-1.36.03-.84,1.04-1.63,2.14-2.36,3.31.89.13,1.78.27,2.68.42.33-1.28.7-2.53,1.09-3.76-.02,0-.04,0-.06,0Z"/>
  <path class="cls-1" d="M60.75,73.28c-.41,1.22-.8,2.47-1.13,3.75,1.11.23,2.22.47,3.33.72.04-1.32.11-2.65.19-3.97-.79-.17-1.59-.34-2.38-.5Z"/>
  <path class="cls-1" d="M47.04,75.22c.52.04,1.05.08,1.58.13.4-.73.83-1.44,1.27-2.14-.99.61-1.95,1.28-2.85,2Z"/>
  <path class="cls-1" d="M67.03,74.67c-.07,1.33-.12,2.67-.15,4.01,1.24.31,2.47.63,3.69.95-.2-1.39-.4-2.8-.58-4.24-.98-.25-1.96-.49-2.95-.73Z"/>
  <path class="cls-1" d="M13.07,100h4c0-13.86,5.82-20.7,14.42-23.44,2.61-2.41,5.71-4.15,9.15-5.37-15.37.45-27.56,7.2-27.56,28.81Z"/>
  <path class="cls-1" d="M49.89,73.21c.14-.09.28-.18.43-.26-.1.01-.19.02-.29.03-.05.07-.09.15-.14.23Z"/>
  <path class="cls-1" d="M52.32,71.87c-.68.34-1.35.7-2,1.08,1.65-.2,3.34-.33,5.07-.39.06-.07.12-.15.18-.22-1.09-.17-2.17-.33-3.25-.47Z"/>
  <path class="cls-1" d="M45.54,71.24c-1.55,1.12-2.99,2.39-4.3,3.82.11,0,.22,0,.33,0,2.6-1.02,5.45-1.69,8.46-2.08.29-.44.6-.86.9-1.29-1.82-.21-3.62-.36-5.39-.45Z"/>
  <path class="cls-1" d="M75.22,52.96c.04-.53.08-1.06.13-1.59-.74-.41-1.46-.84-2.16-1.29.61,1.01,1.29,1.97,2.02,2.88Z"/>
  <path class="cls-1" d="M73.75,26.25c.12-.92.25-1.84.38-2.75-1.36.37-2.74.74-4.15,1.09-.09.71-.18,1.42-.27,2.14,1.35-.15,2.7-.31,4.04-.49Z"/>
  <path class="cls-1" d="M77.02,0h-4c0,4.89-1.29,12.19-2.46,20.36,1.42-.38,2.82-.76,4.2-1.15,1.13-7.46,2.26-14.26,2.26-19.21Z"/>
  <path class="cls-1" d="M67.13,27c-.04-.56-.07-1.12-.1-1.68-1.29.31-2.59.61-3.9.89.02.36.05.72.07,1.09,1.3-.08,2.61-.18,3.92-.3Z"/>
  <path class="cls-1" d="M63.62,31.72c1.32.25,2.66.46,4.03.63-.06-.48-.12-.97-.17-1.46-1.3.11-2.61.21-3.91.28.02.18.04.36.06.55Z"/>
  <path class="cls-1" d="M68.46,37.36c-.06-.32-.13-.63-.19-.95-.77-.09-1.55-.19-2.31-.3.81.44,1.64.86,2.5,1.25Z"/>
  <path class="cls-1" d="M67.03,0h-4c0,6.58-.35,14.36-.09,22.25,1.32-.3,2.63-.61,3.93-.94-.18-7.38.15-14.78.15-21.31Z"/>
  <path class="cls-1" d="M60.98,27.41c-.08-.23-.15-.46-.23-.69-1.31.26-2.63.51-3.95.74,0,0,0,0,0,.01,1.38.02,2.77,0,4.17-.06Z"/>
  <path class="cls-1" d="M61.75,38.32c1.31,2.11,2.79,4.07,4.45,5.87-.43-1.31-.8-2.66-1.13-4.02-1.14-.58-2.25-1.19-3.32-1.85Z"/>
  <path class="cls-1" d="M57.03,0h-4c0,8.37.79,16.42,2.67,23.7,1.3-.22,2.6-.47,3.91-.73-1.82-6.94-2.58-14.72-2.58-22.97Z"/>
  <path class="cls-1" d="M62.51,31.23c-.36.02-.71.03-1.07.04.4.09.8.18,1.2.26-.05-.1-.09-.2-.13-.3Z"/>
  <path class="cls-1" d="M47.04,0h-4c0,10.11,2.02,18.21,5.57,24.65,1.45-.14,2.93-.31,4.41-.53-3.82-6.13-5.98-14.04-5.98-24.12Z"/>
  <path class="cls-1" d="M72.54,43.22c.23-1.32.47-2.64.74-3.96-.23-.08-.46-.15-.69-.23-.05,1.41-.07,2.81-.06,4.19,0,0,0,0,0,0Z"/>
  <path class="cls-1" d="M68.73,38.56c.01-.36.03-.71.04-1.07-.1-.05-.2-.09-.3-.13.08.4.17.81.26,1.2Z"/>
  <path class="cls-1" d="M55.8,33.82c1.83,1.68,3.81,3.18,5.95,4.5-.67-1.08-1.3-2.21-1.88-3.36-1.38-.33-2.74-.71-4.07-1.14Z"/>
  <path class="cls-1" d="M69.61,41.91c-.33-1.09-.63-2.21-.89-3.35-.03.78-.05,1.57-.06,2.35.3.34.63.67.95,1Z"/>
  <path class="cls-1" d="M69.71,42.21c.1.04.2.08.3.12-.14-.14-.26-.28-.4-.42.03.1.06.2.09.3Z"/>
  <path class="cls-1" d="M65.01,35.96c-.27-.04-.54-.09-.82-.13.25,1.47.54,2.92.88,4.34,1.16.59,2.36,1.14,3.59,1.64,0-.3,0-.6,0-.9-1.35-1.53-2.56-3.18-3.65-4.95Z"/>
  <path class="cls-1" d="M68.28,36.41c.18.02.36.04.54.06.07-1.31.17-2.62.28-3.93-.49-.05-.98-.11-1.46-.17.18,1.37.39,2.72.64,4.05Z"/>
  <path class="cls-1" d="M47.04,24.78c-6.1-4.92-9.99-12.66-9.99-24.78h-4c0,11.33,3.06,19.23,8.02,24.74.16.07.33.13.5.2,1.78.04,3.61-.02,5.47-.15Z"/>
  <path class="cls-1" d="M63.93,34.09c-.11-.78-.22-1.57-.31-2.36-.33-.06-.65-.12-.97-.19.4.87.83,1.72,1.28,2.55Z"/>
  <path class="cls-1" d="M53.22,31.19c-1.56-.1-3.09-.25-4.59-.47,2.24,1.26,4.65,2.27,7.17,3.1-.9-.83-1.77-1.7-2.59-2.63Z"/>
  <path class="cls-1" d="M64.06,35c.19.12.39.24.58.35-.25-.42-.49-.84-.72-1.27.04.31.09.61.14.92Z"/>
  <path class="cls-1" d="M64.64,35.36c.12.2.24.41.37.61.32.05.64.1.95.14-.45-.24-.89-.49-1.32-.75Z"/>
  <path class="cls-1" d="M59.09,31.33c-.3,0-.59,0-.88,0,.51,1.24,1.07,2.45,1.67,3.62,1.42.34,2.86.62,4.33.87-.05-.28-.09-.55-.14-.83-1.77-1.09-3.44-2.31-4.97-3.67Z"/>
  <path class="cls-1" d="M41.07,24.74c-8.34-3.46-14.01-10.74-14.01-24.74h-4c0,11.23,3.23,18.65,8.42,23.44,2.96.94,6.26,1.4,9.76,1.49-.06-.06-.12-.12-.17-.19Z"/>
  <path class="cls-1" d="M57.7,30.02c-.32-.84-.62-1.68-.9-2.55-.02,0-.04,0-.06,0-.39.07-.78.13-1.18.19.68.82,1.38,1.61,2.13,2.35Z"/>
  <path class="cls-1" d="M63.55,31.18c-.14-1.28-.26-2.58-.35-3.87-.75.04-1.49.08-2.23.11.46,1.31.98,2.58,1.54,3.82.35-.02.7-.03,1.04-.05Z"/>
  <path class="cls-1" d="M40.63,28.81c2.51.89,5.2,1.51,8,1.91-1.07-.6-2.1-1.25-3.09-1.97-1.66.08-3.3.1-4.91.05Z"/>
  <path class="cls-1" d="M67.13,27c.09,1.31.2,2.61.34,3.89.6-.05,1.2-.11,1.8-.17.13-1.34.28-2.67.44-3.99-.86.09-1.72.18-2.58.26Z"/>
  <path class="cls-1" d="M58.09,30.39c-.13-.13-.27-.24-.39-.37.04.1.07.19.11.29.09.03.19.06.28.09Z"/>
  <path class="cls-1" d="M58.09,30.39c.33.32.66.64,1,.95.78,0,1.56-.03,2.35-.06-1.14-.26-2.26-.55-3.35-.89Z"/>
  <path class="cls-1" d="M52.32,28.13c-.46.06-.93.12-1.39.17.72,1.01,1.48,1.97,2.29,2.89,1.64.1,3.31.15,4.99.15-.14-.34-.27-.69-.4-1.04-1.92-.6-3.76-1.31-5.49-2.17Z"/>
  <path class="cls-1" d="M56.74,27.47s.04,0,.06,0c-.4-1.23-.76-2.48-1.09-3.76-.9.15-1.79.3-2.68.42.73,1.17,1.52,2.27,2.36,3.31.45.02.9.03,1.36.03Z"/>
  <path class="cls-1" d="M63.13,26.22c-.08-1.32-.15-2.65-.19-3.97-1.11.25-2.22.49-3.33.72.34,1.28.72,2.53,1.13,3.75.8-.16,1.59-.33,2.38-.5Z"/>
  <path class="cls-1" d="M17.06,0h-4c0,21.61,12.19,28.36,27.56,28.81-3.44-1.22-6.54-2.97-9.15-5.37-8.6-2.74-14.42-9.57-14.42-23.44Z"/>
  <path class="cls-1" d="M69.98,24.6c.19-1.43.38-2.85.58-4.24-1.22.32-2.45.64-3.69.95.03,1.34.08,2.68.15,4.01.99-.24,1.98-.48,2.95-.73Z"/>
  <path class="cls-1" d="M48.61,24.65c-.53.05-1.05.09-1.58.13.9.73,1.85,1.39,2.85,2-.44-.69-.87-1.4-1.27-2.14Z"/>
  <path class="cls-1" d="M76.19,22.94c-.72,1.02-1.36,2.1-1.91,3.24-.18.02-.35.05-.53.07-.07.53-.13,1.06-.19,1.59-.32.81-.61,1.65-.86,2.51-1.14.13-2.27.26-3.42.38-.06.6-.11,1.2-.17,1.8.98.11,1.98.19,2.98.26-.27,1.27-.47,2.57-.62,3.91-.88-.07-1.76-.14-2.64-.24-.02.34-.04.68-.05,1.02.82.37,1.67.72,2.53,1.05-.05.69-.09,1.39-.11,2.09.23-.63.47-1.25.73-1.86.22.08.44.17.66.25.02-.62.05-1.24.09-1.86.06-.11.11-.23.17-.34.31.02.62.04.93.06.19-.88.4-1.75.6-2.63.29-.43.6-.85.92-1.26.28.01.57.02.85.03-.32,1.26-.57,2.57-.74,3.93-.54-.03-1.09-.04-1.63-.08-.17.79-.34,1.58-.5,2.37.62.21,1.24.41,1.87.6-.03.47-.06.93-.08,1.41.06-.05.12-.11.17-.16.15-.37.32-.73.49-1.09.19.06.39.11.58.17-.37.3-.73.61-1.07.92-.06.15-.12.31-.18.46-.02.78,0,1.58.01,2.39-.25-.07-.51-.15-.76-.22.23-.74.47-1.46.75-2.17,0-.1,0-.2,0-.3-.72.67-1.41,1.36-2.05,2.09-.16-.05-.32-.09-.48-.14,0,.01,0,.03,0,.04,0,.22.01.44.02.66-.05.06-.1.12-.15.18.04-.28.09-.56.14-.84,0-.01,0-.03,0-.04-.46-.15-.91-.32-1.36-.48,0-.71,0-1.41.02-2.11-.22.62-.43,1.25-.61,1.9-.19-.07-.38-.13-.57-.2.16.16.33.31.49.47-.09.32-.17.64-.25.96-.18-.52-.38-1.02-.54-1.55-.35-.13-.7-.26-1.04-.4,0,1.67.04,3.32.15,4.94.22.2.46.38.68.57-.08.45-.16.9-.22,1.36.2-.35.41-.69.62-1.04.52.43,1.06.84,1.61,1.24.03.37.07.73.11,1.1-.04.37-.08.74-.11,1.1-.55.4-1.08.81-1.61,1.24-.21-.34-.42-.68-.62-1.04.07.46.15.91.22,1.36-.23.19-.46.38-.68.57-.1,1.63-.15,3.28-.15,4.94.34-.14.7-.27,1.04-.4.16-.53.36-1.04.54-1.55.08.32.16.65.25.96-.16.16-.33.31-.49.47.19-.07.38-.13.57-.2.19.64.39,1.28.61,1.9-.02-.7-.02-1.4-.02-2.11.45-.16.9-.33,1.36-.48,0-.01,0-.03,0-.04-.05-.28-.09-.56-.14-.84.05.06.1.12.15.18,0,.22-.01.44-.02.66,0,.01,0,.03,0,.04.16-.05.32-.09.48-.14.64.73,1.33,1.43,2.05,2.09,0-.1,0-.2,0-.3-.28-.7-.52-1.43-.75-2.17.25-.07.5-.15.76-.22-.02.8-.03,1.6-.01,2.39.06.15.12.31.18.46.35.31.71.62,1.07.92-.2.05-.39.11-.58.17-.17-.36-.34-.72-.49-1.09-.06-.05-.12-.11-.17-.16.01.48.05.94.08,1.41-.63.19-1.25.39-1.87.6.16.79.33,1.58.5,2.37.54-.03,1.09-.05,1.63-.08.17,1.36.42,2.67.74,3.93-.28.01-.57.02-.85.03-.32-.41-.62-.83-.92-1.26-.2-.87-.41-1.75-.6-2.63-.31.02-.62.04-.93.06-.06-.11-.11-.22-.17-.34-.03-.62-.07-1.24-.09-1.86-.22.08-.44.17-.66.25-.26-.61-.51-1.22-.73-1.86.02.71.06,1.4.11,2.09-.86.33-1.71.68-2.53,1.05.02.34.03.68.05,1.02.88-.1,1.76-.16,2.64-.24.15,1.34.35,2.64.62,3.91-1,.08-1.99.15-2.98.26.05.6.11,1.2.17,1.8,1.15.11,2.29.24,3.42.38.25.86.54,1.7.86,2.51.07.53.12,1.06.19,1.59.18.02.36.05.53.07.55,1.14,1.18,2.22,1.91,3.24-.69-.19-1.37-.38-2.07-.57.21,1.45.42,2.88.63,4.29,1.33.37,2.65.75,3.93,1.12-.26-.89-.52-1.81-.78-2.73,1.4,1.52,3.06,2.85,5.01,3.96-1.37-.4-2.78-.81-4.22-1.22,2.34,8.13,4.33,14.73,4.33,18.1h4c0-3.47-1.67-9.46-3.76-16.69,3.85,2.12,8.8,3.4,15.07,3.59.61.07,1.18.11,1.68.11v-4.07c-.56,0-1.1-.02-1.64-.04-3.04-.38-7.61-1.65-13.08-3.23-1.51-.86-2.82-1.87-3.95-3.02-.18-.63-.36-1.25-.54-1.89-.4-.06-.81-.12-1.22-.18-.96-1.33-1.76-2.79-2.39-4.35.45.06.9.12,1.35.19.43.37.89.72,1.36,1.06.3,1.1.6,2.21.9,3.29,7.46,1.13,14.26,2.26,19.21,2.26v-4.07c-8.9,0-15.07-2.3-19.29-6.1,6.7-.08,13.35.19,19.29.19v-4.07c-7.78,0-13.75-1.61-18.33-4.37,5.71-1.08,11.88-1.55,18.33-1.55v-4.07c-6.98,0-12.89-1.06-17.91-2.96,5.02-1.9,10.93-2.96,17.91-2.96v-4.07c-6.46,0-12.62-.47-18.33-1.55,4.58-2.76,10.55-4.37,18.33-4.37v-4.07c-5.94,0-12.59.27-19.29.19,4.21-3.81,10.39-6.1,19.29-6.1v-4.07c-4.95,0-11.75,1.13-19.21,2.26-.3,1.08-.6,2.18-.9,3.29-.47.34-.92.69-1.36,1.06-.45.06-.9.12-1.35.19.63-1.57,1.42-3.02,2.39-4.35.4-.06.82-.12,1.22-.18.18-.64.36-1.26.54-1.89,1.13-1.15,2.45-2.16,3.95-3.02,5.47-1.58,10.04-2.85,13.08-3.23.54-.02,1.08-.04,1.64-.04v-4.07c-.51,0-1.07.04-1.68.11-6.27.19-11.22,1.47-15.07,3.59,2.09-7.22,3.76-13.22,3.76-16.69h-4c0,3.37-1.98,9.97-4.33,18.1,1.45-.42,2.85-.83,4.22-1.22-1.94,1.11-3.6,2.44-5.01,3.96.26-.93.53-1.84.78-2.73-1.28.37-2.6.74-3.93,1.12-.21,1.41-.43,2.84-.63,4.29.7-.19,1.38-.38,2.07-.57ZM72.99,50s0-.03,0-.04c.02.01.04.03.07.04-.02.01-.04.03-.07.04,0-.01,0-.03,0-.04ZM71.06,45.85c.06-.09.12-.19.19-.28-.04-.72-.05-1.43-.07-2.14.34.3.68.59,1.03.88-.33.41-.65.83-.96,1.25.01.27.04.55.06.83-.08-.18-.16-.36-.24-.55ZM71.18,56.56c.01-.71.03-1.42.07-2.14-.07-.09-.12-.19-.19-.28.08-.19.16-.37.24-.55-.02.27-.04.55-.06.83.31.43.63.84.96,1.25-.35.29-.69.58-1.03.88ZM77.75,62.93c.06.27.13.54.19.82-.19-.26-.38-.53-.56-.8.12,0,.24-.01.36-.02-.18-.8-.35-1.6-.52-2.41,1.14.85,2.38,1.64,3.71,2.34-1.06.01-2.12.04-3.19.07ZM82.43,45.6c-1.86.61-3.61,1.31-5.26,2.11-.43-.24-.88-.48-1.29-.73-.07.5-.13.99-.2,1.49-.11.06-.22.11-.33.17.04.45.1.91.15,1.37-.05.46-.1.92-.15,1.37.11.06.22.11.33.17.06.5.13.99.2,1.49.42-.26.86-.49,1.29-.73,1.65.8,3.4,1.51,5.26,2.11-1.68.29-3.33.62-4.94,1.01-.52-.49-1.01-.99-1.48-1.52-.04-.29-.1-.58-.14-.87-.13.08-.25.17-.39.26-.09-.11-.19-.21-.27-.32-.01.18-.02.35-.03.52-.47.31-.93.63-1.38.95-.34-1.37-.59-2.78-.79-4.24.03-.05.07-.11.1-.16.02.01.05.03.07.04-.02-.03-.03-.05-.05-.08.02-.03.03-.05.05-.08-.02.02-.05.03-.07.04-.03-.05-.07-.11-.1-.16.2-1.45.46-2.87.79-4.24.45.33.91.65,1.38.95.01.17.01.35.03.52.09-.11.18-.21.27-.32.13.08.25.17.39.26.04-.29.09-.58.14-.87.47-.53.96-1.03,1.48-1.52,1.61.39,3.26.72,4.94,1.01ZM77.23,39.48c.17-.8.34-1.61.52-2.41-.12,0-.24-.01-.36-.02.18-.27.37-.54.56-.8-.06.27-.13.54-.19.82,1.07.03,2.13.06,3.19.07-1.33.7-2.56,1.48-3.71,2.34Z"/>
  <path class="cls-1" d="M49.89,26.79c.05.07.09.15.14.23.1.01.19.02.29.03-.15-.09-.29-.18-.43-.26Z"/>
  <path class="cls-1" d="M55.57,27.66c-.06-.07-.12-.15-.18-.22-1.73-.06-3.42-.18-5.07-.39.65.38,1.32.74,2,1.08,1.08-.14,2.16-.3,3.25-.47Z"/>
  <path class="cls-1" d="M50.03,27.02c-3.01-.39-5.86-1.06-8.46-2.08-.11,0-.22,0-.33,0,1.31,1.43,2.75,2.7,4.3,3.82,1.77-.09,3.57-.24,5.39-.45-.3-.42-.61-.85-.9-1.29Z"/>
</svg>