<?xml version="1.0" encoding="UTF-8"?>
<svg id="Layer_1" data-name="Layer 1" xmlns="http://www.w3.org/2000/svg" viewBox="0 0 100 100">
  <defs>
    <style>
      .cls-1 {
        fill: #010101;
      }
    </style>
  </defs>
  <path class="cls-1" d="M25.88,23.51c-.21-1.45-.42-2.88-.63-4.29-1.33-.37-2.65-.75-3.93-1.12.42,1.46.85,2.96,1.29,4.51,1.07.3,2.17.6,3.28.91Z"/>
  <path class="cls-1" d="M39.25,26.72c.41-1.22.8-2.47,1.13-3.75-1.11-.23-2.21-.47-3.31-.72-.04,1.32-.1,2.65-.19,3.97.79.17,1.58.34,2.37.5Z"/>
  <path class="cls-1" d="M32.97,25.33c.07-1.33.12-2.67.15-4.01-1.24-.31-2.47-.63-3.69-.95.2,1.39.4,2.8.58,4.24.98.25,1.96.49,2.95.73Z"/>
  <path class="cls-1" d="M0,12.99v4c3.37,0,9.97,1.98,18.1,4.33-.45-1.56-.89-3.07-1.31-4.53-7.27-2.11-13.3-3.79-16.78-3.79Z"/>
  <path class="cls-1" d="M43.26,27.47c.45,0,.91-.02,1.36-.03.84-1.04,1.63-2.14,2.36-3.31-.89-.13-1.77-.27-2.67-.42-.33,1.28-.69,2.53-1.09,3.76.01,0,.03,0,.04,0Z"/>
  <path class="cls-1" d="M82.94,0c0,13.86-5.82,20.69-14.42,23.44-2.61,2.41-5.71,4.15-9.15,5.37,15.37-.45,27.56-7.2,27.56-28.81h-4Z"/>
  <path class="cls-1" d="M52.96,24.78c-.53-.04-1.06-.08-1.59-.13-.41.74-.84,1.46-1.29,2.16,1.01-.61,1.97-1.29,2.88-2.02Z"/>
  <path class="cls-1" d="M54.42,28.75c-1,.72-2.04,1.37-3.12,1.98,2.82-.4,5.53-1.02,8.06-1.92-1.62.05-3.27.03-4.94-.05Z"/>
  <path class="cls-1" d="M68.52,23.44c5.19-4.79,8.42-12.2,8.42-23.44h-4c0,14.03-5.69,21.3-14.05,24.76-.05.06-.11.12-.16.17,3.51-.09,6.81-.55,9.78-1.5Z"/>
  <path class="cls-1" d="M26.25,26.25c-.92-.12-1.84-.25-2.75-.38.37,1.36.74,2.74,1.09,4.15.71.09,1.42.18,2.14.27-.15-1.35-.31-2.7-.49-4.04Z"/>
  <path class="cls-1" d="M32.53,30.9c.14-1.29.25-2.59.34-3.89-.86-.08-1.72-.17-2.58-.26.16,1.32.31,2.65.44,3.99.6.06,1.2.11,1.8.17Z"/>
  <path class="cls-1" d="M0,22.98v4c4.89,0,12.19,1.29,20.36,2.46-.38-1.42-.76-2.82-1.15-4.2-7.46-1.13-14.26-2.26-19.21-2.26Z"/>
  <path class="cls-1" d="M37.49,31.23c.56-1.23,1.07-2.5,1.54-3.82-.73-.03-1.47-.06-2.21-.11-.09,1.3-.21,2.59-.35,3.87.34.02.68.04,1.02.05Z"/>
  <path class="cls-1" d="M42.33,29.99c.74-.74,1.44-1.52,2.1-2.33-.39-.06-.78-.12-1.18-.19-.01,0-.03,0-.04,0-.28.85-.57,1.69-.88,2.52Z"/>
  <path class="cls-1" d="M27,32.87c-.56.04-1.12.07-1.68.1.31,1.29.61,2.59.89,3.9.36-.02.72-.05,1.09-.07-.08-1.3-.18-2.61-.3-3.92Z"/>
  <path class="cls-1" d="M44.19,33.79c2.51-.82,4.89-1.82,7.12-3.06-1.49.21-3.01.36-4.55.46-.81.92-1.67,1.78-2.56,2.6Z"/>
  <path class="cls-1" d="M0,32.97v4c6.58,0,14.36.35,22.25.09-.3-1.32-.61-2.63-.94-3.93-7.38.18-14.78-.15-21.31-.15Z"/>
  <path class="cls-1" d="M36.1,34.03c.44-.81.86-1.64,1.25-2.5-.32.06-.63.13-.95.19-.09.77-.19,1.55-.3,2.31Z"/>
  <path class="cls-1" d="M31.18,36.45c.18-.02.36-.04.55-.06.25-1.32.46-2.66.63-4.03-.48.06-.97.12-1.46.17.11,1.3.21,2.61.28,3.91Z"/>
  <path class="cls-1" d="M58.9,24.76c4.98-5.51,8.05-13.41,8.05-24.76h-4c0,12.13-3.89,19.86-9.99,24.78,1.87.13,3.69.19,5.47.15.15-.06.31-.12.46-.18Z"/>
  <path class="cls-1" d="M49.95,27.02c-.29.44-.6.86-.9,1.28,1.81.21,3.61.36,5.37.45,1.55-1.12,3-2.39,4.31-3.82-.1,0-.2,0-.3,0-2.61,1.02-5.46,1.69-8.48,2.08Z"/>
  <path class="cls-1" d="M27.41,39.02c-.23.08-.46.15-.69.23.26,1.31.51,2.63.74,3.95,0,0,0,0,.01,0,.02-1.38,0-2.77-.06-4.17Z"/>
  <path class="cls-1" d="M56.96,0h-4c0,10.09-2.17,17.99-5.98,24.12,1.48.21,2.95.39,4.39.53,3.56-6.44,5.59-14.54,5.59-24.65Z"/>
  <path class="cls-1" d="M31.27,38.56c.09-.4.18-.8.26-1.2-.1.05-.2.09-.3.13.02.36.03.71.04,1.07Z"/>
  <path class="cls-1" d="M0,42.97v4c8.37,0,16.42-.79,23.7-2.67-.22-1.3-.47-2.6-.73-3.91-6.94,1.82-14.72,2.58-22.97,2.58Z"/>
  <path class="cls-1" d="M38.32,38.25c2.11-1.31,4.07-2.79,5.87-4.45-1.31.43-2.66.8-4.02,1.13-.58,1.14-1.19,2.25-1.85,3.32Z"/>
  <path class="cls-1" d="M47.68,28.13c.68-.34,1.35-.7,2-1.08-1.65.2-3.34.33-5.07.39-.06.07-.12.15-.18.22,1.09.17,2.17.33,3.25.47Z"/>
  <path class="cls-1" d="M50.08,26.81c-.13.08-.26.17-.4.24.09-.01.18-.02.27-.03.05-.07.09-.14.13-.21Z"/>
  <path class="cls-1" d="M42.21,30.29c-.13.35-.26.7-.4,1.04,1.67,0,3.32-.04,4.94-.15.81-.91,1.57-1.88,2.3-2.89-.46-.05-.91-.11-1.37-.17-1.73.85-3.56,1.57-5.47,2.16Z"/>
  <path class="cls-1" d="M43.21,27.47s0,0,0,0c-1.32-.23-2.64-.47-3.96-.74-.08.23-.15.46-.23.69,1.41.05,2.81.07,4.19.06Z"/>
  <path class="cls-1" d="M46.96,0h-4c0,8.24-.76,16.03-2.58,22.97,1.31.27,2.62.51,3.92.73,1.87-7.28,2.66-15.32,2.66-23.7Z"/>
  <path class="cls-1" d="M38.56,31.27c-.36-.01-.71-.03-1.07-.04-.05.1-.09.2-.13.3.4-.08.8-.17,1.2-.26Z"/>
  <path class="cls-1" d="M0,52.96v4c10.11,0,18.21-2.02,24.65-5.57-.14-1.45-.31-2.93-.53-4.41-6.13,3.82-14.04,5.98-24.12,5.98Z"/>
  <path class="cls-1" d="M33.82,44.2c1.68-1.83,3.18-3.81,4.5-5.95-1.08.67-2.21,1.3-3.36,1.88-.33,1.38-.71,2.74-1.14,4.07Z"/>
  <path class="cls-1" d="M40.91,31.33c.34-.3.67-.63,1-.95-1.09.33-2.21.63-3.35.89.79.03,1.57.05,2.35.06Z"/>
  <path class="cls-1" d="M41.91,30.39c.1-.03.2-.06.3-.09.04-.1.08-.2.12-.3-.14.14-.28.26-.42.4Z"/>
  <path class="cls-1" d="M35.96,34.99c-.04.27-.09.54-.13.82,1.47-.25,2.92-.54,4.34-.88.59-1.16,1.14-2.36,1.64-3.59-.3,0-.6,0-.9,0-1.53,1.35-3.18,2.56-4.95,3.65Z"/>
  <path class="cls-1" d="M34.09,36.07c-.78.11-1.57.22-2.36.31-.06.33-.12.65-.19.97.87-.4,1.72-.83,2.55-1.28Z"/>
  <path class="cls-1" d="M32.53,30.9c-.05.49-.11.98-.17,1.46,1.37-.18,2.72-.39,4.05-.64.02-.18.04-.36.06-.54-1.31-.07-2.62-.17-3.93-.28Z"/>
  <path class="cls-1" d="M36.81,27.31c.03-.36.05-.72.07-1.08-1.31-.29-2.62-.59-3.91-.9-.03.56-.06,1.12-.1,1.68,1.32.12,2.63.23,3.94.3Z"/>
  <path class="cls-1" d="M36.97,0h-4c0,6.53.33,13.94.15,21.31,1.31.33,2.62.64,3.95.94.26-7.9-.1-15.69-.1-22.25Z"/>
  <path class="cls-1" d="M24.78,52.96c-4.92,6.1-12.66,9.99-24.78,9.99v4c11.33,0,19.23-3.06,24.74-8.02.07-.16.13-.33.2-.5.04-1.78-.02-3.61-.15-5.47Z"/>
  <path class="cls-1" d="M31.19,46.78c-.1,1.56-.25,3.09-.47,4.59,1.26-2.24,2.27-4.65,3.1-7.17-.83.9-1.7,1.77-2.63,2.59Z"/>
  <path class="cls-1" d="M35,35.94c.12-.19.24-.39.35-.58-.42.25-.84.49-1.27.72.31-.04.61-.09.92-.14Z"/>
  <path class="cls-1" d="M35.35,35.36c.2-.12.41-.24.61-.37.05-.32.1-.64.14-.95-.24.45-.49.89-.75,1.32Z"/>
  <path class="cls-1" d="M31.33,40.91c0,.3,0,.59,0,.88,1.24-.51,2.45-1.07,3.62-1.67.34-1.42.62-2.86.87-4.33-.28.05-.55.09-.83.14-1.09,1.77-2.31,3.44-3.67,4.97Z"/>
  <path class="cls-1" d="M31.18,36.45c-1.28.14-2.58.26-3.87.35.04.75.08,1.49.11,2.23,1.31-.46,2.58-.98,3.82-1.54-.02-.35-.03-.7-.05-1.04Z"/>
  <path class="cls-1" d="M30.29,26.74c-.09-.72-.18-1.43-.27-2.14-1.4-.36-2.78-.72-4.15-1.09.13.91.25,1.83.38,2.75,1.34.18,2.69.34,4.04.49Z"/>
  <path class="cls-1" d="M30.02,42.3c-.84.32-1.68.62-2.55.9,0,.02,0,.04,0,.06.07.39.13.78.19,1.18.82-.68,1.61-1.38,2.35-2.13Z"/>
  <path class="cls-1" d="M24.74,58.93c-3.46,8.34-10.74,14.01-24.74,14.01v4c11.23,0,18.65-3.23,23.44-8.42.94-2.96,1.4-6.26,1.49-9.76-.06.06-.12.12-.19.17Z"/>
  <path class="cls-1" d="M26.98,0h-4c0,4.95,1.13,11.75,2.26,19.21,1.38.39,2.78.77,4.2,1.15-1.18-8.17-2.46-15.47-2.46-20.36Z"/>
  <path class="cls-1" d="M30.73,30.73c-1.34-.13-2.67-.28-3.99-.44.09.86.18,1.72.26,2.58,1.31-.09,2.61-.2,3.89-.34-.05-.6-.11-1.2-.17-1.8Z"/>
  <path class="cls-1" d="M28.81,59.37c.89-2.51,1.51-5.2,1.91-8-.6,1.07-1.25,2.1-1.97,3.09.08,1.66.1,3.3.05,4.91Z"/>
  <path class="cls-1" d="M30.3,42.19c.03-.09.06-.19.09-.28-.13.13-.24.27-.37.39.1-.04.19-.07.28-.11Z"/>
  <path class="cls-1" d="M30.39,41.91c.32-.33.64-.66.95-1,0-.78-.03-1.56-.06-2.35-.26,1.14-.55,2.26-.89,3.35Z"/>
  <path class="cls-1" d="M28.13,47.68c.06.46.12.93.17,1.39,1.01-.72,1.97-1.48,2.89-2.29.1-1.64.15-3.31.15-4.99-.34.14-.69.27-1.04.4-.6,1.92-1.31,3.76-2.17,5.49Z"/>
  <path class="cls-1" d="M22.6,22.6c-1.54-.43-3.05-.87-4.51-1.29.37,1.28.74,2.6,1.12,3.93,1.41.21,2.84.43,4.29.63-.3-1.11-.6-2.2-.91-3.28Z"/>
  <path class="cls-1" d="M24.6,30.02c-1.43-.19-2.85-.38-4.24-.58.32,1.22.64,2.45.95,3.69,1.34-.03,2.68-.08,4.01-.15-.24-.99-.48-1.98-.73-2.95Z"/>
  <path class="cls-1" d="M16.99,0h-4c0,3.48,1.69,9.51,3.79,16.78,1.47.42,2.98.87,4.53,1.31-2.34-8.13-4.33-14.73-4.33-18.1Z"/>
  <path class="cls-1" d="M26.22,36.87c-1.32.08-2.65.15-3.97.19.25,1.11.49,2.22.72,3.33,1.28-.34,2.53-.72,3.75-1.13-.16-.8-.33-1.59-.5-2.38Z"/>
  <path class="cls-1" d="M27.47,43.26s0-.04,0-.06c-1.23.4-2.48.76-3.76,1.09.15.9.3,1.79.42,2.68,1.17-.73,2.27-1.52,3.31-2.36.02-.45.03-.9.03-1.36Z"/>
  <path class="cls-1" d="M0,82.94v4c21.61,0,28.36-12.19,28.81-27.56-1.22,3.44-2.97,6.54-5.37,9.15-2.74,8.6-9.57,14.42-23.44,14.42Z"/>
  <path class="cls-1" d="M24.65,51.39c.05.53.09,1.05.13,1.58.73-.9,1.39-1.85,2-2.85-.69.44-1.4.87-2.14,1.27Z"/>
  <path class="cls-1" d="M26.79,50.11c.07-.05.16-.09.23-.14.01-.1.02-.19.03-.29-.09.15-.18.29-.26.43Z"/>
  <path class="cls-1" d="M27.66,44.43c-.07.06-.15.12-.22.18-.06,1.73-.18,3.42-.39,5.07.38-.65.74-1.32,1.08-2-.14-1.08-.3-2.16-.47-3.25Z"/>
  <path class="cls-1" d="M24.94,58.43c0,.11,0,.22,0,.33,1.43-1.31,2.7-2.75,3.82-4.3-.09-1.77-.24-3.57-.45-5.39-.42.3-.85.61-1.29.9-.39,3.01-1.06,5.86-2.08,8.46Z"/>
</svg>