<?xml version="1.0" encoding="UTF-8"?>
<svg id="Layer_1" data-name="Layer 1" xmlns="http://www.w3.org/2000/svg" viewBox="0 0 100 100">
  <defs>
    <style>
      .cls-1 {
        fill: #010101;
      }
    </style>
  </defs>
  <path class="cls-1" d="M49.92,26.81c-.45-.7-.88-1.42-1.29-2.16-.53.05-1.06.09-1.59.13.91.74,1.87,1.41,2.88,2.02Z"/>
  <path class="cls-1" d="M100,26.98v-4c-4.95,0-11.75,1.13-19.21,2.26-.39,1.38-.77,2.78-1.15,4.2,8.17-1.18,15.47-2.46,20.36-2.46Z"/>
  <path class="cls-1" d="M75.4,30.02c.36-1.4.72-2.78,1.09-4.15-.91.13-1.83.25-2.75.38-.18,1.34-.34,2.69-.49,4.04.72-.09,1.43-.18,2.14-.27Z"/>
  <path class="cls-1" d="M68.82,36.45c.07-1.31.17-2.61.28-3.91-.49-.05-.98-.11-1.46-.17.17,1.36.38,2.71.63,4.03.18.02.36.04.55.06Z"/>
  <path class="cls-1" d="M100,36.97v-4c-6.53,0-13.94.33-21.31.15-.33,1.3-.64,2.62-.94,3.93,7.89.26,15.67-.09,22.25-.09Z"/>
  <path class="cls-1" d="M63.59,31.72c-.32-.06-.64-.12-.95-.19.39.85.81,1.68,1.25,2.5-.11-.77-.21-1.54-.3-2.31Z"/>
  <path class="cls-1" d="M53.24,31.19c-.82-.05-1.63-.12-2.43-.2.16-.09.33-.17.49-.26-.43.06-.87.11-1.31.16-.44-.05-.88-.1-1.31-.16.16.09.33.17.49.26-.8.08-1.61.15-2.43.2-.81.92-1.67,1.78-2.56,2.6,2.02-.66,3.96-1.45,5.81-2.38,1.84.93,3.79,1.72,5.81,2.38-.89-.82-1.75-1.69-2.56-2.6Z"/>
  <path class="cls-1" d="M72.69,36.8c.36.03.72.05,1.09.07.28-1.31.58-2.61.89-3.9-.56-.03-1.12-.06-1.68-.1-.12,1.31-.23,2.62-.3,3.92Z"/>
  <path class="cls-1" d="M100,46.96v-4c-8.24,0-16.03-.76-22.97-2.58-.27,1.31-.51,2.61-.73,3.91,7.28,1.88,15.33,2.67,23.7,2.67Z"/>
  <path class="cls-1" d="M68.73,38.56c.01-.36.03-.71.04-1.07-.1-.05-.2-.09-.3-.13.08.4.17.81.26,1.2Z"/>
  <path class="cls-1" d="M72.53,43.2s0,0,.01,0c.23-1.32.47-2.63.74-3.95-.23-.08-.46-.15-.69-.23-.05,1.4-.07,2.8-.06,4.17Z"/>
  <path class="cls-1" d="M55.81,33.79c1.81,1.66,3.77,3.15,5.87,4.45-.66-1.07-1.27-2.18-1.85-3.32-1.37-.33-2.71-.7-4.02-1.13Z"/>
  <path class="cls-1" d="M60.75,26.72c-1.32.27-2.64.51-3.96.74,0,0,0,0,0,0,1.38.02,2.78,0,4.19-.06-.08-.23-.15-.46-.23-.69Z"/>
  <path class="cls-1" d="M62.64,31.54c-.05-.1-.09-.2-.13-.3-.36.02-.71.03-1.07.04.4.09.8.18,1.2.26Z"/>
  <path class="cls-1" d="M61.68,38.25c1.32,2.14,2.82,4.12,4.5,5.95-.43-1.33-.81-2.68-1.14-4.07-1.15-.58-2.28-1.21-3.36-1.88Z"/>
  <path class="cls-1" d="M100,56.96v-4c-10.09,0-17.99-2.17-24.12-5.98-.22,1.48-.39,2.96-.53,4.41,6.44,3.55,14.54,5.57,24.65,5.57Z"/>
  <path class="cls-1" d="M58.09,30.39c.33.32.66.64,1,.95.78,0,1.56-.03,2.35-.06-1.14-.26-2.26-.55-3.35-.89Z"/>
  <path class="cls-1" d="M57.67,29.99c.04.1.08.2.12.3.1.03.2.06.3.09-.14-.13-.28-.26-.42-.4Z"/>
  <path class="cls-1" d="M64.17,35.8c-.05-.27-.09-.54-.13-.82-1.76-1.09-3.42-2.3-4.95-3.65-.3,0-.6,0-.9,0,.5,1.23,1.06,2.42,1.64,3.59,1.42.34,2.87.63,4.34.88Z"/>
  <path class="cls-1" d="M68.28,36.38c-.79-.09-1.58-.2-2.36-.31.83.45,1.68.88,2.55,1.28-.07-.32-.13-.65-.19-.97Z"/>
  <path class="cls-1" d="M67.64,32.36c-.06-.48-.12-.97-.17-1.46-1.31.11-2.62.21-3.93.28.02.18.04.36.06.54,1.33.25,2.68.46,4.05.64Z"/>
  <path class="cls-1" d="M75.26,58.93c5.51,4.95,13.41,8.02,24.74,8.02v-4c-12.13,0-19.86-3.89-24.78-9.99-.13,1.87-.19,3.69-.15,5.47.07.17.13.34.2.5Z"/>
  <path class="cls-1" d="M66.18,44.2c.82,2.53,1.84,4.93,3.1,7.17-.21-1.5-.37-3.03-.47-4.59-.92-.82-1.8-1.68-2.63-2.59Z"/>
  <path class="cls-1" d="M64.64,35.36c.12.2.23.39.35.58.3.05.61.09.92.14-.43-.23-.85-.47-1.27-.72Z"/>
  <path class="cls-1" d="M63.9,34.03c.05.32.09.64.14.95.2.12.4.25.61.37-.26-.43-.51-.88-.75-1.32Z"/>
  <path class="cls-1" d="M65,35.94c-.28-.04-.55-.09-.83-.14.25,1.46.53,2.91.87,4.33,1.18.6,2.38,1.16,3.62,1.67,0-.29,0-.59,0-.88-1.36-1.53-2.58-3.2-3.67-4.97Z"/>
  <path class="cls-1" d="M69.98,42.3c.74.75,1.53,1.45,2.35,2.13.06-.39.12-.78.19-1.18,0-.02,0-.04,0-.06-.86-.28-1.71-.58-2.55-.9Z"/>
  <path class="cls-1" d="M76.56,68.52c4.79,5.19,12.2,8.42,23.44,8.42v-4c-14.01,0-21.28-5.67-24.74-14.01-.06-.06-.13-.12-.19-.17.09,3.5.55,6.79,1.49,9.76Z"/>
  <path class="cls-1" d="M71.24,54.46c-.71-.99-1.37-2.02-1.97-3.09.4,2.8,1.02,5.49,1.91,8-.05-1.61-.03-3.24.05-4.91Z"/>
  <path class="cls-1" d="M68.77,37.49c1.23.56,2.5,1.07,3.82,1.54.03-.74.06-1.48.11-2.23-1.3-.09-2.59-.21-3.87-.35-.02.35-.04.7-.05,1.04Z"/>
  <path class="cls-1" d="M73,32.87c.08-.86.17-1.72.26-2.58-1.32.16-2.65.31-3.99.44-.06.6-.11,1.2-.17,1.8,1.29.14,2.59.25,3.89.34Z"/>
  <path class="cls-1" d="M69.7,42.19c.1.04.19.07.29.11-.13-.13-.25-.26-.37-.39.03.09.06.19.09.28Z"/>
  <path class="cls-1" d="M68.67,40.91c.3.34.63.67.95,1-.33-1.09-.63-2.21-.89-3.35-.03.78-.05,1.57-.06,2.35Z"/>
  <path class="cls-1" d="M69.7,42.19c-.35-.13-.7-.26-1.04-.4,0,1.68.04,3.35.15,4.99.91.81,1.88,1.57,2.89,2.29.05-.46.11-.93.17-1.39-.86-1.73-1.57-3.57-2.17-5.49Z"/>
  <path class="cls-1" d="M72.53,43.26c0,.45.02.91.03,1.36,1.04.84,2.14,1.63,3.31,2.36.13-.89.27-1.78.42-2.68-1.28-.33-2.53-.7-3.76-1.09,0,.02,0,.04,0,.06Z"/>
  <path class="cls-1" d="M73.28,39.25c1.22.41,2.47.8,3.75,1.13.23-1.11.47-2.22.72-3.33-1.32-.04-2.65-.11-3.97-.19-.17.79-.34,1.59-.5,2.38Z"/>
  <path class="cls-1" d="M75.22,52.96c.04-.52.08-1.05.13-1.58-.73-.4-1.44-.83-2.14-1.27.61.99,1.28,1.95,2,2.85Z"/>
  <path class="cls-1" d="M74.67,32.97c1.33.07,2.67.12,4.01.15.31-1.24.63-2.47.95-3.69-1.39.2-2.8.4-4.24.58-.25.98-.49,1.96-.73,2.95Z"/>
  <path class="cls-1" d="M100,86.93v-4c-13.86,0-20.7-5.82-23.44-14.42-2.41-2.61-4.15-5.71-5.37-9.15.45,15.37,7.2,27.56,28.81,27.56Z"/>
  <path class="cls-1" d="M73.21,50.11c-.09-.14-.18-.28-.26-.43.01.1.02.19.03.29.07.05.15.09.23.14Z"/>
  <path class="cls-1" d="M71.87,47.68c.34.68.7,1.35,1.08,2-.2-1.65-.33-3.34-.39-5.07-.07-.06-.15-.12-.22-.18-.17,1.09-.33,2.17-.47,3.25Z"/>
  <path class="cls-1" d="M71.24,54.46c1.12,1.55,2.39,2.99,3.82,4.3,0-.11,0-.22,0-.33-1.02-2.6-1.69-5.45-2.08-8.46-.44-.29-.86-.6-1.29-.9-.21,1.82-.36,3.62-.45,5.39Z"/>
  <path class="cls-1" d="M52.96,24.78c-.53-.04-1.06-.08-1.59-.13-.41.74-.84,1.46-1.29,2.16,1.01-.61,1.97-1.29,2.88-2.02Z"/>
  <path class="cls-1" d="M26.25,26.25c-.92-.12-1.84-.25-2.75-.38.37,1.36.74,2.74,1.09,4.15.71.09,1.42.18,2.14.27-.15-1.35-.31-2.7-.49-4.04Z"/>
  <path class="cls-1" d="M0,22.98v4c4.89,0,12.19,1.29,20.36,2.46-.38-1.42-.76-2.82-1.15-4.2-7.46-1.13-14.26-2.26-19.21-2.26Z"/>
  <path class="cls-1" d="M27,32.87c-.56.04-1.12.07-1.68.1.31,1.29.61,2.59.89,3.9.36-.02.72-.05,1.09-.07-.08-1.3-.18-2.61-.3-3.92Z"/>
  <path class="cls-1" d="M31.72,36.38c.25-1.32.46-2.66.63-4.03-.48.06-.97.12-1.46.17.11,1.3.21,2.61.28,3.91.18-.02.36-.04.55-.06Z"/>
  <path class="cls-1" d="M37.36,31.54c-.32.06-.63.13-.95.19-.09.77-.19,1.55-.3,2.31.44-.81.86-1.64,1.25-2.5Z"/>
  <path class="cls-1" d="M0,32.97v4c6.58,0,14.36.35,22.25.09-.3-1.32-.61-2.63-.94-3.93-7.38.18-14.78-.15-21.31-.15Z"/>
  <path class="cls-1" d="M27.41,39.02c-.23.08-.46.15-.69.23.26,1.31.51,2.63.74,3.95,0,0,0,0,.01,0,.02-1.38,0-2.77-.06-4.17Z"/>
  <path class="cls-1" d="M38.32,38.25c2.11-1.31,4.07-2.79,5.87-4.45-1.31.43-2.66.8-4.02,1.13-.58,1.14-1.19,2.25-1.85,3.32Z"/>
  <path class="cls-1" d="M0,42.97v4c8.37,0,16.42-.79,23.7-2.67-.22-1.3-.47-2.6-.73-3.91-6.94,1.82-14.72,2.58-22.97,2.58Z"/>
  <path class="cls-1" d="M31.23,37.49c.02.36.03.71.04,1.07.09-.4.18-.8.26-1.2-.1.05-.2.09-.3.13Z"/>
  <path class="cls-1" d="M0,52.96v4c10.11,0,18.21-2.02,24.65-5.57-.14-1.45-.31-2.93-.53-4.41-6.13,3.82-14.04,5.98-24.12,5.98Z"/>
  <path class="cls-1" d="M43.22,27.46c-1.32-.23-2.64-.47-3.96-.74-.08.23-.15.46-.23.69,1.41.05,2.81.07,4.19.06,0,0,0,0,0,0Z"/>
  <path class="cls-1" d="M38.56,31.27c-.36-.01-.71-.03-1.07-.04-.05.1-.09.2-.13.3.4-.08.81-.17,1.2-.26Z"/>
  <path class="cls-1" d="M33.82,44.2c1.68-1.83,3.18-3.81,4.5-5.95-1.08.67-2.21,1.3-3.36,1.88-.33,1.38-.71,2.74-1.14,4.07Z"/>
  <path class="cls-1" d="M41.91,30.39c-1.09.33-2.21.63-3.35.89.78.03,1.57.05,2.35.06.34-.3.67-.63,1-.95Z"/>
  <path class="cls-1" d="M42.21,30.29c.04-.1.08-.2.12-.3-.14.14-.28.26-.42.4.1-.03.2-.06.3-.09Z"/>
  <path class="cls-1" d="M35.96,34.99c-.04.27-.09.54-.13.82,1.47-.25,2.92-.54,4.34-.88.59-1.16,1.14-2.36,1.64-3.59-.3,0-.6,0-.9,0-1.53,1.35-3.18,2.56-4.95,3.65Z"/>
  <path class="cls-1" d="M36.41,31.72c.02-.18.04-.36.06-.54-1.31-.07-2.62-.17-3.93-.28-.05.49-.11.98-.17,1.46,1.37-.18,2.72-.39,4.05-.64Z"/>
  <path class="cls-1" d="M24.78,52.96c-4.92,6.1-12.66,9.99-24.78,9.99v4c11.33,0,19.23-3.06,24.74-8.02.07-.16.13-.33.2-.5.04-1.78-.02-3.61-.15-5.47Z"/>
  <path class="cls-1" d="M34.09,36.07c-.78.11-1.57.22-2.36.31-.06.33-.12.65-.19.97.87-.4,1.72-.83,2.55-1.28Z"/>
  <path class="cls-1" d="M31.19,46.78c-.1,1.56-.25,3.09-.47,4.59,1.26-2.24,2.27-4.65,3.1-7.17-.83.9-1.7,1.77-2.63,2.59Z"/>
  <path class="cls-1" d="M35,35.94c.12-.19.24-.39.35-.58-.42.25-.84.49-1.27.72.31-.04.61-.09.92-.14Z"/>
  <path class="cls-1" d="M35.36,35.36c.2-.12.41-.24.61-.37.05-.32.1-.64.14-.95-.24.45-.49.89-.75,1.32Z"/>
  <path class="cls-1" d="M31.33,40.91c0,.3,0,.59,0,.88,1.24-.51,2.45-1.07,3.62-1.67.34-1.42.62-2.86.87-4.33-.28.05-.55.09-.83.14-1.09,1.77-2.31,3.44-3.67,4.97Z"/>
  <path class="cls-1" d="M24.74,58.93c-3.46,8.34-10.74,14.01-24.74,14.01v4c11.23,0,18.65-3.23,23.44-8.42.94-2.96,1.4-6.26,1.49-9.76-.06.06-.12.12-.19.17Z"/>
  <path class="cls-1" d="M30.02,42.3c-.84.32-1.68.62-2.55.9,0,.02,0,.04,0,.06.07.39.13.78.19,1.18.82-.68,1.61-1.38,2.35-2.13Z"/>
  <path class="cls-1" d="M31.18,36.45c-1.28.14-2.58.26-3.87.35.04.75.08,1.49.11,2.23,1.31-.46,2.58-.98,3.82-1.54-.02-.35-.03-.7-.05-1.04Z"/>
  <path class="cls-1" d="M28.81,59.37c.89-2.51,1.51-5.2,1.91-8-.6,1.07-1.25,2.1-1.97,3.09.08,1.66.1,3.3.05,4.91Z"/>
  <path class="cls-1" d="M27,32.87c1.31-.09,2.61-.2,3.89-.34-.05-.6-.11-1.2-.17-1.8-1.34-.13-2.67-.28-3.99-.44.09.86.18,1.72.26,2.58Z"/>
  <path class="cls-1" d="M30.39,41.91c-.13.13-.24.27-.37.39.1-.04.19-.07.29-.11.03-.09.06-.19.09-.28Z"/>
  <path class="cls-1" d="M30.39,41.91c.32-.33.64-.66.95-1,0-.78-.03-1.56-.06-2.35-.26,1.14-.55,2.26-.89,3.35Z"/>
  <path class="cls-1" d="M28.13,47.68c.06.46.12.93.17,1.39,1.01-.72,1.97-1.48,2.89-2.29.1-1.64.15-3.31.15-4.99-.34.14-.69.27-1.04.4-.6,1.92-1.31,3.76-2.17,5.49Z"/>
  <path class="cls-1" d="M27.47,43.26s0-.04,0-.06c-1.23.4-2.48.76-3.76,1.09.15.9.3,1.79.42,2.68,1.17-.73,2.27-1.52,3.31-2.36.02-.45.03-.9.03-1.36Z"/>
  <path class="cls-1" d="M26.22,36.87c-1.32.08-2.65.15-3.97.19.25,1.11.49,2.22.72,3.33,1.28-.34,2.53-.72,3.75-1.13-.16-.8-.33-1.59-.5-2.38Z"/>
  <path class="cls-1" d="M0,82.94v4c21.61,0,28.36-12.19,28.81-27.56-1.22,3.44-2.97,6.54-5.37,9.15-2.74,8.6-9.57,14.42-23.44,14.42Z"/>
  <path class="cls-1" d="M24.6,30.02c-1.43-.19-2.85-.38-4.24-.58.32,1.22.64,2.45.95,3.69,1.34-.03,2.68-.08,4.01-.15-.24-.99-.48-1.98-.73-2.95Z"/>
  <path class="cls-1" d="M24.65,51.39c.05.53.09,1.05.13,1.58.73-.9,1.39-1.85,2-2.85-.69.44-1.4.87-2.14,1.27Z"/>
  <path class="cls-1" d="M22.94,23.81c1.02.72,2.1,1.36,3.24,1.91.02.18.05.35.07.53.53.07,1.06.13,1.59.19.81.32,1.65.61,2.51.86.13,1.14.26,2.27.38,3.42.6.06,1.2.11,1.8.17.11-.98.19-1.98.26-2.98,1.27.27,2.57.47,3.91.62-.07.88-.14,1.76-.24,2.64.34.02.68.04,1.02.05.37-.82.72-1.67,1.05-2.53.69.05,1.39.09,2.09.11-.63-.23-1.25-.47-1.86-.73.08-.22.17-.44.25-.66-.62-.02-1.24-.05-1.86-.09-.11-.06-.23-.11-.34-.17.02-.31.04-.62.06-.93-.88-.19-1.75-.4-2.63-.6-.43-.29-.85-.6-1.26-.92.01-.28.02-.57.03-.85,1.26.32,2.57.57,3.93.74-.03.54-.04,1.09-.08,1.63.79.17,1.58.34,2.37.5.21-.62.41-1.24.6-1.87.47.03.93.06,1.41.08-.05-.06-.11-.12-.16-.17-.37-.15-.73-.32-1.09-.49.06-.19.11-.39.17-.58.3.37.61.73.92,1.07.15.06.31.12.46.18.78.02,1.58,0,2.39-.01-.07.25-.15.51-.22.76-.74-.23-1.46-.47-2.17-.75-.1,0-.2,0-.3,0,.67.72,1.36,1.41,2.09,2.05-.05.16-.09.32-.14.48.01,0,.03,0,.04,0,.22,0,.44-.01.66-.02.06.05.12.1.18.15-.28-.04-.56-.09-.84-.14-.01,0-.03,0-.04,0-.15.46-.32.91-.48,1.36-.71,0-1.41,0-2.11-.02.62.22,1.25.43,1.9.61-.07.19-.13.38-.2.57.16-.16.31-.33.47-.49.32.09.64.17.96.25-.52.18-1.02.38-1.55.54-.13.35-.26.7-.4,1.04,1.67,0,3.32-.04,4.94-.15.2-.22.38-.46.57-.68.45.08.9.16,1.36.22-.35-.2-.69-.41-1.04-.62.43-.52.84-1.06,1.24-1.61.37-.03.73-.07,1.1-.11.37.04.74.08,1.1.11.4.55.81,1.08,1.24,1.61-.34.21-.68.42-1.04.62.46-.07.91-.15,1.36-.22.19.23.38.46.57.68,1.63.1,3.28.15,4.94.15-.14-.34-.27-.7-.4-1.04-.53-.16-1.04-.36-1.55-.54.32-.08.65-.16.96-.25.16.16.31.33.47.49-.07-.19-.13-.38-.2-.57.64-.19,1.28-.39,1.9-.61-.7.02-1.4.02-2.11.02-.16-.45-.33-.9-.48-1.36-.01,0-.03,0-.04,0-.28.05-.56.09-.84.14.06-.05.12-.1.18-.15.22,0,.44.01.66.02.01,0,.03,0,.04,0-.05-.16-.09-.32-.14-.48.73-.64,1.43-1.33,2.09-2.05-.1,0-.2,0-.3,0-.7.28-1.43.52-2.17.75-.07-.25-.15-.5-.22-.76.8.02,1.6.03,2.39.01.15-.06.31-.12.46-.18.31-.35.62-.71.92-1.07.05.2.11.39.17.58-.36.17-.72.34-1.09.49-.05.06-.11.12-.16.17.48-.01.94-.05,1.41-.08.19.63.39,1.25.6,1.87.79-.16,1.58-.33,2.37-.5-.03-.54-.05-1.09-.08-1.63,1.36-.17,2.67-.42,3.93-.74.01.28.02.57.03.85-.41.32-.83.62-1.26.92-.87.2-1.75.41-2.63.6.02.31.04.62.06.93-.11.06-.22.11-.34.17-.62.03-1.24.07-1.86.09.08.22.17.44.25.66-.61.26-1.22.51-1.86.73.71-.02,1.4-.06,2.09-.11.33.86.68,1.71,1.05,2.53.34-.02.68-.03,1.02-.05-.1-.88-.16-1.76-.24-2.64,1.34-.15,2.64-.35,3.91-.62.08,1,.15,1.99.26,2.98.6-.05,1.2-.11,1.8-.17.11-1.15.24-2.29.38-3.42.86-.25,1.7-.54,2.51-.86.53-.07,1.06-.12,1.59-.19.02-.18.05-.36.07-.53,1.14-.55,2.22-1.18,3.24-1.91-.19.69-.38,1.37-.57,2.07,1.45-.21,2.88-.42,4.29-.63.37-1.33.75-2.65,1.12-3.93-.89.26-1.81.52-2.73.78,1.52-1.4,2.85-3.06,3.96-5.01-.4,1.37-.81,2.78-1.22,4.22,8.13-2.34,14.73-4.33,18.1-4.33v-4c-3.47,0-9.46,1.67-16.69,3.76,2.12-3.85,3.4-8.8,3.59-15.07.07-.61.11-1.18.11-1.68h-4.07c0,.56-.02,1.1-.04,1.64-.38,3.04-1.65,7.61-3.23,13.08-.86,1.51-1.87,2.82-3.02,3.95-.63.18-1.25.36-1.89.54-.06.4-.12.81-.18,1.22-1.33.96-2.79,1.76-4.35,2.39.06-.45.12-.9.19-1.35.37-.43.72-.89,1.06-1.36,1.1-.3,2.21-.6,3.29-.9,1.13-7.46,2.26-14.26,2.26-19.21h-4.07c0,8.9-2.3,15.07-6.1,19.29-.08-6.7.19-13.35.19-19.29h-4.07c0,7.78-1.61,13.75-4.37,18.33-1.08-5.71-1.55-11.88-1.55-18.33h-4.07c0,6.98-1.06,12.89-2.96,17.91-1.9-5.02-2.96-10.93-2.96-17.91h-4.07c0,6.46-.47,12.62-1.55,18.33-2.76-4.58-4.37-10.55-4.37-18.33h-4.07c0,5.94.27,12.59.19,19.29-3.81-4.21-6.1-10.39-6.1-19.29h-4.07c0,4.95,1.13,11.75,2.26,19.21,1.08.3,2.18.6,3.29.9.34.47.69.92,1.06,1.36.06.45.12.9.19,1.35-1.57-.63-3.02-1.42-4.35-2.39-.06-.4-.12-.82-.18-1.22-.64-.18-1.26-.36-1.89-.54-1.15-1.13-2.16-2.45-3.02-3.95-1.58-5.47-2.85-10.04-3.23-13.08-.02-.54-.04-1.08-.04-1.64h-4.07c0,.51.04,1.07.11,1.68.19,6.27,1.47,11.22,3.59,15.07-7.22-2.09-13.22-3.76-16.69-3.76v4c3.37,0,9.97,1.98,18.1,4.33-.42-1.45-.83-2.85-1.22-4.22,1.11,1.94,2.44,3.6,3.96,5.01-.93-.26-1.84-.53-2.73-.78.37,1.28.74,2.6,1.12,3.93,1.41.21,2.84.43,4.29.63-.19-.7-.38-1.38-.57-2.07ZM50,27.01s-.03,0-.04,0c.01-.02.03-.04.04-.07.01.02.03.04.04.07-.01,0-.03,0-.04,0ZM45.85,28.94c-.09-.06-.19-.12-.28-.19-.72.04-1.43.05-2.14.07.3-.34.59-.68.88-1.03.41.33.83.65,1.25.96.27-.01.55-.04.83-.06-.18.08-.36.16-.55.24ZM56.56,28.82c-.71-.01-1.42-.03-2.14-.07-.09.07-.19.12-.28.19-.19-.08-.37-.16-.55-.24.27.02.55.04.83.06.43-.31.84-.63,1.25-.96.29.35.58.69.88,1.03ZM62.93,22.25c.27-.06.54-.13.82-.19-.26.19-.53.38-.8.56,0-.12-.01-.24-.02-.36-.8.18-1.6.35-2.41.52.85-1.14,1.64-2.38,2.34-3.71.01,1.06.04,2.12.07,3.19ZM45.6,17.57c.61,1.86,1.31,3.61,2.11,5.26-.24.43-.48.88-.73,1.29.5.07.99.13,1.49.2.06.11.11.22.17.33.45-.04.91-.1,1.37-.15.46.05.92.1,1.37.15.06-.11.11-.22.17-.33.5-.06.99-.13,1.49-.2-.26-.42-.49-.86-.73-1.29.8-1.65,1.51-3.4,2.11-5.26.29,1.68.62,3.33,1.01,4.94-.49.52-.99,1.01-1.52,1.48-.29.04-.58.1-.87.14.08.13.17.25.26.39-.11.09-.21.19-.32.27.18.01.35.02.52.03.31.47.63.93.95,1.38-1.37.34-2.78.59-4.24.79-.05-.03-.11-.07-.16-.1.01-.02.03-.05.04-.07-.03.02-.05.03-.08.05-.03-.02-.05-.03-.08-.05.02.02.03.05.04.07-.05.03-.11.07-.16.1-1.45-.2-2.87-.46-4.24-.79.33-.45.65-.91.95-1.38.17-.01.35-.01.52-.03-.11-.09-.21-.18-.32-.27.08-.13.17-.25.26-.39-.29-.04-.58-.09-.87-.14-.53-.47-1.03-.96-1.52-1.48.39-1.61.72-3.26,1.01-4.94ZM39.48,22.77c-.8-.17-1.61-.34-2.41-.52,0,.12-.01.24-.02.36-.27-.18-.54-.37-.8-.56.27.06.54.13.82.19.03-1.07.06-2.13.07-3.19.7,1.33,1.48,2.56,2.34,3.71Z"/>
  <path class="cls-1" d="M26.79,50.11c.07-.05.15-.09.23-.14.01-.1.02-.19.03-.29-.09.15-.18.29-.26.43Z"/>
  <path class="cls-1" d="M27.66,44.43c-.07.06-.15.12-.22.18-.06,1.73-.18,3.42-.39,5.07.38-.65.74-1.32,1.08-2-.14-1.08-.3-2.16-.47-3.25Z"/>
  <path class="cls-1" d="M27.02,49.97c-.39,3.01-1.06,5.86-2.08,8.46,0,.11,0,.22,0,.33,1.43-1.31,2.7-2.75,3.82-4.3-.09-1.77-.24-3.57-.45-5.39-.42.3-.85.61-1.29.9Z"/>
</svg>