<?xml version="1.0" encoding="UTF-8"?>
<svg id="Layer_1" data-name="Layer 1" xmlns="http://www.w3.org/2000/svg" viewBox="0 0 100 100">
  <defs>
    <style>
      .cls-1 {
        fill: #010101;
      }
    </style>
  </defs>
  <path class="cls-1" d="M69.98,24.6c.19-1.43.38-2.85.58-4.24-1.22.32-2.45.64-3.69.95.03,1.34.08,2.68.15,4.01.99-.24,1.98-.48,2.95-.73Z"/>
  <path class="cls-1" d="M77.4,22.6c.43-1.54.87-3.05,1.29-4.51-1.28.37-2.6.74-3.93,1.12-.21,1.41-.43,2.84-.63,4.29,1.11-.3,2.2-.6,3.28-.91Z"/>
  <path class="cls-1" d="M63.11,26.22c-.08-1.32-.14-2.65-.19-3.97-1.1.25-2.21.49-3.31.72.34,1.28.72,2.53,1.13,3.75.79-.16,1.58-.33,2.37-.5Z"/>
  <path class="cls-1" d="M25.22,25.22c4.38,2.37,9.67,3.42,15.41,3.58-3.44-1.22-6.54-2.97-9.15-5.37-8.6-2.74-14.42-9.57-14.42-23.44h-4c0,7.01,1.29,12.44,3.55,16.61,3.9,2.11,6.69,5.06,8.61,8.61Z"/>
  <path class="cls-1" d="M48.63,24.65c-.53.05-1.06.09-1.59.13.91.74,1.87,1.41,2.88,2.02-.45-.7-.88-1.42-1.29-2.16Z"/>
  <path class="cls-1" d="M56.74,27.47s.03,0,.04,0c-.4-1.23-.76-2.48-1.09-3.76-.89.15-1.78.29-2.67.42.73,1.17,1.52,2.27,2.36,3.31.45.02.9.03,1.36.03Z"/>
  <path class="cls-1" d="M100,16.99v-4c-3.48,0-9.51,1.69-16.78,3.79-.42,1.47-.87,2.98-1.31,4.53,8.13-2.34,14.73-4.33,18.1-4.33Z"/>
  <path class="cls-1" d="M41.1,24.76c-8.36-3.45-14.05-10.73-14.05-24.76h-4c0,11.23,3.23,18.65,8.42,23.44,2.97.95,6.27,1.4,9.78,1.5-.05-.06-.11-.12-.16-.17Z"/>
  <path class="cls-1" d="M57.67,29.99c-.31-.83-.61-1.67-.88-2.52-.01,0-.03,0-.04,0-.39.07-.78.13-1.18.19.67.81,1.37,1.59,2.1,2.33Z"/>
  <path class="cls-1" d="M100,26.98v-4c-4.95,0-11.75,1.13-19.21,2.26-.39,1.38-.77,2.78-1.15,4.2,8.17-1.18,15.47-2.46,20.36-2.46Z"/>
  <path class="cls-1" d="M73.26,30.29c.72-.09,1.43-.18,2.14-.27.36-1.4.72-2.78,1.09-4.15-.91.13-1.83.25-2.75.38-.18,1.34-.34,2.69-.49,4.04Z"/>
  <path class="cls-1" d="M69.27,30.73c.13-1.34.28-2.67.44-3.99-.86.09-1.72.18-2.58.26.09,1.31.2,2.61.34,3.89.6-.05,1.2-.11,1.8-.17Z"/>
  <path class="cls-1" d="M63.53,31.18c-.14-1.28-.26-2.58-.35-3.87-.74.04-1.48.08-2.21.11.46,1.31.98,2.58,1.54,3.82.34-.02.68-.03,1.02-.05Z"/>
  <path class="cls-1" d="M45.58,28.75c-1.68.08-3.33.1-4.94.05,2.53.9,5.24,1.52,8.06,1.92-1.08-.6-2.12-1.26-3.12-1.98Z"/>
  <path class="cls-1" d="M100,36.97v-4c-6.53,0-13.94.33-21.31.15-.33,1.3-.64,2.62-.94,3.93,7.89.26,15.67-.09,22.25-.09Z"/>
  <path class="cls-1" d="M68.28,36.38c.18.02.36.04.55.06.07-1.31.17-2.61.28-3.91-.49-.05-.98-.11-1.46-.17.17,1.36.38,2.71.63,4.03Z"/>
  <path class="cls-1" d="M47.04,24.78c-6.1-4.92-9.99-12.66-9.99-24.78h-4c0,11.34,3.08,19.25,8.05,24.76.15.06.31.12.46.18,1.78.04,3.61-.02,5.47-.15Z"/>
  <path class="cls-1" d="M53.24,31.19c-1.54-.1-3.06-.25-4.55-.46,2.22,1.24,4.61,2.25,7.12,3.06-.89-.82-1.75-1.69-2.56-2.6Z"/>
  <path class="cls-1" d="M72.69,36.8c.36.03.72.05,1.09.07.28-1.31.58-2.61.89-3.9-.56-.03-1.12-.06-1.68-.1-.12,1.31-.23,2.62-.3,3.92Z"/>
  <path class="cls-1" d="M62.64,31.54c.39.85.81,1.68,1.25,2.5-.11-.77-.21-1.54-.3-2.31-.32-.06-.64-.12-.95-.19Z"/>
  <path class="cls-1" d="M50.05,27.02c-3.02-.39-5.87-1.06-8.48-2.08-.1,0-.2,0-.3,0,1.32,1.43,2.76,2.7,4.31,3.82,1.77-.09,3.56-.24,5.37-.45-.3-.42-.61-.84-.9-1.28Z"/>
  <path class="cls-1" d="M72.53,43.2s0,0,.01,0c.23-1.32.47-2.63.74-3.95-.23-.08-.46-.15-.69-.23-.05,1.41-.07,2.8-.06,4.17Z"/>
  <path class="cls-1" d="M47.04,0h-4c0,10.11,2.02,18.21,5.59,24.65,1.45-.14,2.92-.31,4.39-.53-3.82-6.13-5.98-14.04-5.98-24.12Z"/>
  <path class="cls-1" d="M55.81,33.79c1.81,1.66,3.77,3.15,5.87,4.45-.66-1.07-1.27-2.18-1.85-3.32-1.37-.33-2.71-.7-4.02-1.13Z"/>
  <path class="cls-1" d="M68.73,38.56c.01-.36.03-.71.04-1.07-.1-.05-.2-.09-.3-.13.08.4.17.81.26,1.2Z"/>
  <path class="cls-1" d="M100,46.96v-4c-8.24,0-16.03-.76-22.97-2.58-.27,1.31-.51,2.61-.73,3.91,7.28,1.88,15.33,2.67,23.7,2.67Z"/>
  <path class="cls-1" d="M55.57,27.66c-.06-.07-.12-.15-.18-.22-1.73-.06-3.42-.18-5.07-.39.65.38,1.32.74,2,1.08,1.08-.14,2.16-.3,3.25-.47Z"/>
  <path class="cls-1" d="M49.92,26.81c.04.07.09.14.13.21.09.01.18.02.27.03-.13-.08-.27-.16-.4-.24Z"/>
  <path class="cls-1" d="M57.79,30.29c-1.91-.6-3.74-1.31-5.47-2.16-.46.06-.91.12-1.37.17.72,1.01,1.49,1.98,2.3,2.89,1.63.1,3.28.15,4.94.15-.14-.34-.27-.7-.4-1.04Z"/>
  <path class="cls-1" d="M61.68,38.25c1.32,2.14,2.82,4.12,4.5,5.95-.43-1.33-.81-2.68-1.14-4.07-1.15-.58-2.28-1.21-3.36-1.88Z"/>
  <path class="cls-1" d="M60.98,27.41c-.08-.23-.15-.46-.23-.69-1.32.27-2.64.51-3.96.74,0,0,0,0,0,0,1.38.02,2.78,0,4.19-.06Z"/>
  <path class="cls-1" d="M57.03,0h-4c0,8.38.78,16.42,2.66,23.7,1.3-.22,2.61-.47,3.92-.73-1.82-6.94-2.58-14.72-2.58-22.97Z"/>
  <path class="cls-1" d="M62.51,31.23c-.36.02-.71.03-1.07.04.4.09.8.18,1.2.26-.05-.1-.09-.2-.13-.3Z"/>
  <path class="cls-1" d="M100,56.96v-4c-10.09,0-17.99-2.17-24.12-5.98-.22,1.48-.39,2.96-.53,4.41,6.44,3.55,14.54,5.57,24.65,5.57Z"/>
  <path class="cls-1" d="M61.44,31.27c-1.14-.26-2.26-.55-3.35-.89.33.32.66.64,1,.95.78,0,1.56-.03,2.35-.06Z"/>
  <path class="cls-1" d="M58.09,30.39c-.14-.13-.28-.26-.42-.4.04.1.08.2.12.3.1.03.2.06.3.09Z"/>
  <path class="cls-1" d="M59.09,31.33c-.3,0-.6,0-.9,0,.5,1.23,1.06,2.42,1.64,3.59,1.42.34,2.87.63,4.34.88-.05-.27-.09-.54-.13-.82-1.76-1.09-3.42-2.3-4.95-3.65Z"/>
  <path class="cls-1" d="M66.18,44.2c.82,2.53,1.84,4.93,3.1,7.17-.21-1.5-.37-3.03-.47-4.59-.92-.82-1.8-1.68-2.63-2.59Z"/>
  <path class="cls-1" d="M67.03,0h-4c0,6.57-.36,14.35-.1,22.25,1.32-.3,2.64-.61,3.95-.94-.18-7.38.15-14.78.15-21.31Z"/>
  <path class="cls-1" d="M67.64,32.36c-.06-.48-.12-.97-.17-1.46-1.31.11-2.62.21-3.93.28.02.18.04.36.06.54,1.33.25,2.68.46,4.05.64Z"/>
  <path class="cls-1" d="M75.26,58.93c5.51,4.95,13.41,8.02,24.74,8.02v-4c-12.13,0-19.86-3.89-24.78-9.99-.13,1.87-.19,3.69-.15,5.47.07.17.13.33.2.5Z"/>
  <path class="cls-1" d="M68.46,37.36c-.07-.32-.13-.65-.19-.97-.79-.09-1.58-.2-2.36-.31.83.45,1.68.88,2.55,1.28Z"/>
  <path class="cls-1" d="M67.13,27c-.04-.56-.07-1.12-.1-1.68-1.29.31-2.6.61-3.91.9.02.36.05.72.07,1.08,1.31-.08,2.62-.18,3.94-.3Z"/>
  <path class="cls-1" d="M65,35.94c.3.05.61.09.92.14-.43-.23-.85-.47-1.27-.72.12.2.23.39.35.58Z"/>
  <path class="cls-1" d="M64.04,34.99c.2.12.4.25.61.37-.26-.43-.51-.88-.75-1.32.05.32.09.64.14.95Z"/>
  <path class="cls-1" d="M65,35.94c-.28-.04-.55-.09-.83-.14.25,1.46.53,2.91.87,4.33,1.18.6,2.38,1.16,3.62,1.67,0-.29,0-.59,0-.88-1.36-1.53-2.58-3.2-3.67-4.97Z"/>
  <path class="cls-1" d="M68.77,37.49c1.23.56,2.5,1.07,3.82,1.54.03-.74.06-1.48.11-2.23-1.3-.09-2.59-.21-3.87-.35-.02.35-.04.7-.05,1.04Z"/>
  <path class="cls-1" d="M71.19,59.37c-.05-1.61-.03-3.24.05-4.91-.71-.99-1.37-2.02-1.97-3.09.4,2.8,1.02,5.49,1.91,8Z"/>
  <path class="cls-1" d="M69.1,32.53c1.29.14,2.59.25,3.89.34.08-.86.17-1.72.26-2.58-1.32.16-2.65.31-3.99.44-.06.6-.11,1.2-.17,1.8Z"/>
  <path class="cls-1" d="M69.98,42.3c.74.75,1.53,1.45,2.35,2.13.06-.39.12-.78.19-1.18,0-.02,0-.04,0-.06-.86-.28-1.71-.58-2.55-.9Z"/>
  <path class="cls-1" d="M76.56,68.52c4.79,5.19,12.2,8.42,23.44,8.42v-4c-14.01,0-21.28-5.67-24.74-14.01-.06-.06-.13-.12-.19-.17.09,3.5.55,6.79,1.49,9.76Z"/>
  <path class="cls-1" d="M73.75,26.25c.12-.92.25-1.84.38-2.75-1.36.37-2.74.74-4.15,1.09-.09.71-.18,1.42-.27,2.14,1.35-.15,2.7-.31,4.04-.49Z"/>
  <path class="cls-1" d="M77.02,0h-4c0,4.89-1.29,12.19-2.46,20.36,1.42-.38,2.82-.76,4.2-1.15,1.13-7.46,2.26-14.26,2.26-19.21Z"/>
  <path class="cls-1" d="M69.7,42.19c.09.04.19.07.28.11-.13-.13-.25-.26-.37-.39.03.09.06.19.09.28Z"/>
  <path class="cls-1" d="M69.61,41.91c-.33-1.09-.63-2.21-.89-3.35-.03.78-.05,1.57-.06,2.35.3.34.63.67.95,1Z"/>
  <path class="cls-1" d="M68.66,41.79c0,1.68.04,3.35.15,4.99.91.81,1.88,1.57,2.89,2.29.05-.46.11-.93.17-1.39-.86-1.73-1.57-3.57-2.17-5.49-.35-.13-.7-.26-1.04-.4Z"/>
  <path class="cls-1" d="M87.01,0h-4c0,3.37-1.98,9.97-4.33,18.1,1.56-.45,3.07-.89,4.53-1.31,2.11-7.27,3.79-13.3,3.79-16.78Z"/>
  <path class="cls-1" d="M73.28,39.25c1.22.41,2.47.8,3.75,1.13.23-1.11.47-2.22.72-3.33-1.32-.04-2.65-.11-3.97-.19-.17.79-.34,1.59-.5,2.38Z"/>
  <path class="cls-1" d="M72.53,43.26c0,.45.02.91.03,1.36,1.04.84,2.14,1.63,3.31,2.36.13-.89.27-1.78.42-2.68-1.28-.33-2.53-.7-3.76-1.09,0,.02,0,.04,0,.06Z"/>
  <path class="cls-1" d="M75.22,52.96c.04-.52.08-1.05.13-1.58-.73-.4-1.44-.83-2.14-1.27.61.99,1.28,1.95,2,2.85Z"/>
  <path class="cls-1" d="M74.78,74.78c3.55,1.92,6.5,4.71,8.61,8.61,4.17,2.26,9.61,3.55,16.61,3.55v-4c-13.86,0-20.7-5.82-23.44-14.42-2.41-2.61-4.15-5.71-5.37-9.15.17,5.74,1.22,11.03,3.58,15.41Z"/>
  <path class="cls-1" d="M74.67,32.97c1.33.07,2.67.12,4.01.15.31-1.24.63-2.47.95-3.69-1.39.2-2.8.4-4.24.58-.25.98-.49,1.96-.73,2.95Z"/>
  <path class="cls-1" d="M77.4,22.6c-.3,1.07-.6,2.17-.91,3.28,1.45-.21,2.88-.42,4.29-.63.37-1.33.75-2.65,1.12-3.93-1.46.42-2.96.85-4.51,1.29Z"/>
  <path class="cls-1" d="M73.21,50.11c-.09-.14-.18-.28-.26-.43.01.1.02.19.03.29.07.05.15.09.23.14Z"/>
  <path class="cls-1" d="M71.87,47.68c.34.68.7,1.35,1.08,2-.2-1.65-.33-3.34-.39-5.07-.07-.06-.15-.12-.22-.18-.17,1.09-.33,2.17-.47,3.25Z"/>
  <path class="cls-1" d="M71.24,54.46c1.12,1.55,2.39,2.99,3.82,4.3,0-.11,0-.22,0-.33-1.02-2.6-1.69-5.45-2.08-8.46-.44-.29-.86-.6-1.29-.9-.21,1.82-.36,3.62-.45,5.39Z"/>
  <path class="cls-1" d="M36.89,73.78c.08,1.32.14,2.65.19,3.97,1.1-.25,2.21-.49,3.31-.72-.34-1.28-.72-2.53-1.13-3.75-.79.16-1.58.33-2.37.5Z"/>
  <path class="cls-1" d="M43.26,72.53s-.03,0-.04,0c.4,1.23.76,2.48,1.09,3.76.89-.15,1.78-.29,2.67-.42-.73-1.17-1.52-2.27-2.36-3.31-.45-.02-.9-.03-1.36-.03Z"/>
  <path class="cls-1" d="M74.78,74.78c-4.38-2.37-9.67-3.42-15.41-3.58,3.44,1.22,6.54,2.97,9.15,5.37,8.6,2.74,14.42,9.57,14.42,23.44h4c0-7.01-1.29-12.44-3.55-16.61-3.9-2.11-6.69-5.06-8.61-8.61Z"/>
  <path class="cls-1" d="M30.02,75.4c-.19,1.43-.38,2.85-.58,4.24,1.22-.32,2.45-.64,3.69-.95-.03-1.34-.08-2.68-.15-4.01-.99.24-1.98.48-2.95.73Z"/>
  <path class="cls-1" d="M0,83.01v4c3.48,0,9.51-1.69,16.78-3.79.42-1.47.87-2.98,1.31-4.53-8.13,2.34-14.73,4.33-18.1,4.33Z"/>
  <path class="cls-1" d="M51.37,75.35c.53-.05,1.06-.09,1.59-.13-.91-.74-1.87-1.41-2.88-2.02.45.7.88,1.42,1.29,2.16Z"/>
  <path class="cls-1" d="M22.6,77.4c-.43,1.54-.87,3.05-1.29,4.51,1.28-.37,2.6-.74,3.93-1.12.21-1.41.43-2.84.63-4.29-1.11.3-2.2.6-3.28.91Z"/>
  <path class="cls-1" d="M26.74,69.71c-.72.09-1.43.18-2.14.27-.36,1.4-.72,2.78-1.09,4.15.91-.13,1.83-.25,2.75-.38.18-1.34.34-2.69.49-4.04Z"/>
  <path class="cls-1" d="M58.9,75.24c8.36,3.45,14.05,10.73,14.05,24.76h4c0-11.23-3.23-18.65-8.42-23.44-2.97-.95-6.27-1.4-9.78-1.5.05.06.11.12.16.17Z"/>
  <path class="cls-1" d="M54.42,71.25c1.68-.08,3.33-.1,4.94-.05-2.53-.9-5.24-1.52-8.06-1.92,1.08.6,2.12,1.26,3.12,1.98Z"/>
  <path class="cls-1" d="M36.47,68.82c.14,1.28.26,2.58.35,3.87.74-.04,1.48-.08,2.21-.11-.46-1.31-.98-2.58-1.54-3.82-.34.02-.68.03-1.02.05Z"/>
  <path class="cls-1" d="M0,73.02v4c4.95,0,11.75-1.13,19.21-2.26.39-1.38.77-2.78,1.15-4.2-8.17,1.18-15.47,2.46-20.36,2.46Z"/>
  <path class="cls-1" d="M42.33,70.01c.31.83.61,1.67.88,2.52.01,0,.03,0,.04,0,.39-.07.78-.13,1.18-.19-.67-.81-1.37-1.59-2.1-2.33Z"/>
  <path class="cls-1" d="M30.73,69.27c-.13,1.34-.28,2.67-.44,3.99.86-.09,1.72-.18,2.58-.26-.09-1.31-.2-2.61-.34-3.89-.6.05-1.2.11-1.8.17Z"/>
  <path class="cls-1" d="M46.76,68.81c1.54.1,3.06.25,4.55.46-2.22-1.24-4.61-2.25-7.12-3.06.89.82,1.75,1.69,2.56,2.6Z"/>
  <path class="cls-1" d="M37.36,68.46c-.39-.85-.81-1.68-1.25-2.5.11.77.21,1.54.3,2.31.32.06.64.12.95.19Z"/>
  <path class="cls-1" d="M27.31,63.2c-.36-.03-.72-.05-1.09-.07-.28,1.31-.58,2.61-.89,3.9.56.03,1.12.06,1.68.1.12-1.31.23-2.62.3-3.92Z"/>
  <path class="cls-1" d="M52.96,75.22c6.1,4.92,9.99,12.66,9.99,24.78h4c0-11.34-3.08-19.25-8.05-24.76-.15-.06-.31-.12-.46-.18-1.78-.04-3.61.02-5.47.15Z"/>
  <path class="cls-1" d="M31.72,63.62c-.18-.02-.36-.04-.55-.06-.07,1.31-.17,2.61-.28,3.91.49.05.98.11,1.46.17-.17-1.36-.38-2.71-.63-4.03Z"/>
  <path class="cls-1" d="M0,63.03v4c6.53,0,13.94-.33,21.31-.15.33-1.3.64-2.62.94-3.93-7.89-.26-15.67.09-22.25.09Z"/>
  <path class="cls-1" d="M49.95,72.98c3.02.39,5.87,1.06,8.48,2.08.1,0,.2,0,.3,0-1.32-1.43-2.76-2.7-4.31-3.82-1.77.09-3.56.24-5.37.45.3.42.61.84.9,1.28Z"/>
  <path class="cls-1" d="M0,53.04v4c8.24,0,16.03.76,22.97,2.58.27-1.31.51-2.61.73-3.91-7.28-1.88-15.33-2.67-23.7-2.67Z"/>
  <path class="cls-1" d="M27.47,56.8s0,0-.01,0c-.23,1.32-.47,2.63-.74,3.95.23.08.46.15.69.23.05-1.4.07-2.8.06-4.17Z"/>
  <path class="cls-1" d="M44.19,66.21c-1.81-1.66-3.77-3.15-5.87-4.45.66,1.07,1.27,2.18,1.85,3.32,1.37.33,2.71.7,4.02,1.13Z"/>
  <path class="cls-1" d="M52.96,100h4c0-10.11-2.02-18.21-5.59-24.65-1.45.14-2.92.31-4.39.53,3.82,6.13,5.98,14.04,5.98,24.12Z"/>
  <path class="cls-1" d="M31.27,61.44c-.01.36-.03.71-.04,1.07.1.05.2.09.3.13-.08-.4-.17-.81-.26-1.2Z"/>
  <path class="cls-1" d="M44.43,72.34c.06.07.12.15.18.22,1.73.06,3.42.18,5.07.39-.65-.38-1.32-.74-2-1.08-1.08.14-2.16.3-3.25.47Z"/>
  <path class="cls-1" d="M50.08,73.19c-.04-.07-.09-.14-.13-.21-.09-.01-.18-.02-.27-.03.13.08.27.16.4.24Z"/>
  <path class="cls-1" d="M42.21,69.71c1.91.6,3.74,1.31,5.47,2.16.46-.06.91-.12,1.37-.17-.72-1.01-1.49-1.98-2.3-2.89-1.63-.1-3.28-.15-4.94-.15.14.34.27.7.4,1.04Z"/>
  <path class="cls-1" d="M39.02,72.59c.08.23.15.46.23.69,1.32-.27,2.64-.51,3.96-.74,0,0,0,0,0,0-1.38-.02-2.78,0-4.19.06Z"/>
  <path class="cls-1" d="M0,43.04v4c10.09,0,17.99,2.17,24.12,5.98.22-1.48.39-2.96.53-4.41-6.44-3.55-14.54-5.57-24.65-5.57Z"/>
  <path class="cls-1" d="M42.97,100h4c0-8.38-.78-16.43-2.66-23.7-1.3.22-2.61.47-3.92.73,1.82,6.94,2.58,14.72,2.58,22.97Z"/>
  <path class="cls-1" d="M38.32,61.75c-1.32-2.14-2.82-4.12-4.5-5.95.43,1.33.81,2.68,1.14,4.07,1.15.58,2.28,1.21,3.36,1.88Z"/>
  <path class="cls-1" d="M37.49,68.77c.36-.02.71-.03,1.07-.04-.4-.09-.8-.18-1.2-.26.05.1.09.2.13.3Z"/>
  <path class="cls-1" d="M38.56,68.73c1.14.26,2.26.55,3.35.89-.33-.32-.66-.64-1-.95-.78,0-1.56.03-2.35.06Z"/>
  <path class="cls-1" d="M41.91,69.61c.14.13.28.26.42.4-.04-.1-.08-.2-.12-.3-.1-.03-.2-.06-.3-.09Z"/>
  <path class="cls-1" d="M40.91,68.67c.3,0,.6,0,.9,0-.5-1.23-1.06-2.42-1.64-3.59-1.42-.34-2.87-.63-4.34-.88.05.27.09.54.13.82,1.76,1.09,3.42,2.3,4.95,3.65Z"/>
  <path class="cls-1" d="M32.97,100h4c0-6.57.36-14.35.1-22.25-1.32.3-2.64.61-3.95.94.18,7.38-.15,14.78-.15,21.31Z"/>
  <path class="cls-1" d="M31.54,62.64c.07.32.13.65.19.97.79.09,1.58.2,2.36.31-.83-.45-1.68-.88-2.55-1.28Z"/>
  <path class="cls-1" d="M32.87,73c.04.56.07,1.12.1,1.68,1.29-.31,2.6-.61,3.91-.9-.02-.36-.05-.72-.07-1.08-1.31.08-2.62.18-3.94.3Z"/>
  <path class="cls-1" d="M24.74,41.07c-5.51-4.95-13.41-8.02-24.74-8.02v4c12.13,0,19.86,3.89,24.78,9.99.13-1.87.19-3.69.15-5.47-.07-.17-.13-.34-.2-.5Z"/>
  <path class="cls-1" d="M33.82,55.8c-.82-2.53-1.84-4.93-3.1-7.17.21,1.5.37,3.03.47,4.59.92.82,1.8,1.68,2.63,2.59Z"/>
  <path class="cls-1" d="M32.36,67.64c.06.48.12.97.17,1.46,1.31-.11,2.62-.21,3.93-.28-.02-.18-.04-.36-.06-.54-1.33-.25-2.68-.46-4.05-.64Z"/>
  <path class="cls-1" d="M35.36,64.64c-.12-.2-.23-.39-.35-.58-.3-.05-.61-.09-.92-.14.43.23.85.47,1.27.72Z"/>
  <path class="cls-1" d="M35.96,65.01c-.2-.12-.4-.25-.61-.37.26.43.51.88.75,1.32-.05-.32-.09-.64-.14-.95Z"/>
  <path class="cls-1" d="M35,64.06c.28.04.55.09.83.14-.25-1.46-.53-2.91-.87-4.33-1.18-.6-2.38-1.16-3.62-1.67,0,.29,0,.59,0,.88,1.36,1.53,2.58,3.2,3.67,4.97Z"/>
  <path class="cls-1" d="M28.81,40.63c.05,1.61.03,3.24-.05,4.91.71.99,1.37,2.02,1.97,3.09-.4-2.8-1.02-5.49-1.91-8Z"/>
  <path class="cls-1" d="M30.9,67.47c-1.29-.14-2.59-.25-3.89-.34-.08.86-.17,1.72-.26,2.58,1.32-.16,2.65-.31,3.99-.44.06-.6.11-1.2.17-1.8Z"/>
  <path class="cls-1" d="M31.23,62.51c-1.23-.56-2.5-1.07-3.82-1.54-.03.74-.06,1.48-.11,2.23,1.3.09,2.59.21,3.87.35.02-.35.04-.7.05-1.04Z"/>
  <path class="cls-1" d="M23.44,31.48c-4.79-5.19-12.2-8.42-23.44-8.42v4c14.01,0,21.28,5.67,24.74,14.01.06.06.13.12.19.17-.09-3.5-.55-6.79-1.49-9.76Z"/>
  <path class="cls-1" d="M26.25,73.75c-.12.92-.25,1.84-.38,2.75,1.36-.37,2.74-.74,4.15-1.09.09-.71.18-1.42.27-2.14-1.35.15-2.7.31-4.04.49Z"/>
  <path class="cls-1" d="M30.02,57.7c-.74-.75-1.53-1.45-2.35-2.13-.06.39-.12.78-.19,1.18,0,.02,0,.04,0,.06.86.28,1.71.58,2.55.9Z"/>
  <path class="cls-1" d="M22.98,100h4c0-4.89,1.29-12.19,2.46-20.36-1.42.38-2.82.76-4.2,1.15-1.13,7.46-2.26,14.26-2.26,19.21Z"/>
  <path class="cls-1" d="M30.3,57.81c-.1-.04-.19-.07-.29-.11.13.13.25.26.37.39-.03-.09-.06-.19-.09-.28Z"/>
  <path class="cls-1" d="M30.39,58.09c.33,1.09.63,2.21.89,3.35.03-.78.05-1.57.06-2.35-.3-.34-.63-.67-.95-1Z"/>
  <path class="cls-1" d="M31.34,58.21c0-1.68-.04-3.35-.15-4.99-.91-.81-1.88-1.57-2.89-2.29-.05.46-.11.93-.17,1.39.86,1.73,1.57,3.57,2.17,5.49.35.13.7.26,1.04.4Z"/>
  <path class="cls-1" d="M25.33,67.03c-1.33-.07-2.67-.12-4.01-.15-.31,1.24-.63,2.47-.95,3.69,1.39-.2,2.8-.4,4.24-.58.25-.98.49-1.96.73-2.95Z"/>
  <path class="cls-1" d="M25.22,25.22c-3.55-1.92-6.5-4.71-8.61-8.61-4.17-2.26-9.61-3.55-16.61-3.55v4c13.86,0,20.7,5.82,23.44,14.42,2.41,2.61,4.15,5.71,5.37,9.15-.17-5.74-1.22-11.03-3.58-15.41Z"/>
  <path class="cls-1" d="M27.47,56.74c0-.45-.02-.91-.03-1.36-1.04-.84-2.14-1.63-3.31-2.36-.13.89-.27,1.78-.42,2.68,1.28.33,2.53.7,3.76,1.09,0-.02,0-.04,0-.06Z"/>
  <path class="cls-1" d="M12.99,100h4c0-3.37,1.98-9.97,4.33-18.1-1.56.45-3.07.89-4.53,1.31-2.11,7.27-3.79,13.3-3.79,16.78Z"/>
  <path class="cls-1" d="M23.51,74.12c-1.45.21-2.88.42-4.29.63-.37,1.33-.75,2.65-1.12,3.93,1.46-.42,2.96-.85,4.51-1.29.3-1.07.6-2.17.91-3.28Z"/>
  <path class="cls-1" d="M24.78,47.04c-.04.52-.08,1.05-.13,1.58.73.4,1.44.83,2.14,1.27-.61-.99-1.28-1.95-2-2.85Z"/>
  <path class="cls-1" d="M26.72,60.75c-1.22-.41-2.47-.8-3.75-1.13-.23,1.11-.47,2.22-.72,3.33,1.32.04,2.65.11,3.97.19.17-.79.34-1.59.5-2.38Z"/>
  <path class="cls-1" d="M26.79,49.89c.09.14.18.28.26.43-.01-.1-.02-.19-.03-.29-.07-.05-.15-.09-.23-.14Z"/>
  <path class="cls-1" d="M28.13,52.32c-.34-.68-.7-1.35-1.08-2,.2,1.65.33,3.34.39,5.07.07.06.15.12.22.18.17-1.09.33-2.17.47-3.25Z"/>
  <path class="cls-1" d="M28.76,45.54c-1.12-1.55-2.39-2.99-3.82-4.3,0,.11,0,.22,0,.33,1.02,2.6,1.69,5.45,2.08,8.46.44.29.86.6,1.29.9.21-1.82.36-3.62.45-5.39Z"/>
</svg>