<?xml version="1.0" encoding="UTF-8"?>
<svg id="Layer_1" data-name="Layer 1" xmlns="http://www.w3.org/2000/svg" viewBox="0 0 100 100">
  <defs>
    <style>
      .cls-1 {
        fill: #010101;
      }
    </style>
  </defs>
  <polygon class="cls-1" points="13.03 43.04 13.03 100 17.03 100 17.03 47.04 82.97 47.04 82.97 100 86.97 100 86.97 43.04 13.03 43.04"/>
  <polygon class="cls-1" points="23.02 100 27.02 100 27.02 57.03 72.98 57.03 72.98 100 76.98 100 76.98 53.04 23.02 53.04 23.02 100"/>
  <polygon class="cls-1" points="33.01 100 37.01 100 37.01 67.03 62.99 67.03 62.99 100 66.99 100 66.99 63.03 33.01 63.03 33.01 100"/>
  <polygon class="cls-1" points="43.01 100 47 100 47 77.02 53 77.02 53 100 56.99 100 56.99 73.02 43.01 73.02 43.01 100"/>
</svg>