<?xml version="1.0" encoding="UTF-8"?>
<svg id="Layer_1" data-name="Layer 1" xmlns="http://www.w3.org/2000/svg" viewBox="0 0 100 100">
  <defs>
    <style>
      .cls-1 {
        fill: #010101;
      }
    </style>
  </defs>
  <polygon class="cls-1" points="13.07 13.07 13.07 100 17.06 100 17.06 17.06 100 17.06 100 13.07 13.07 13.07"/>
  <polygon class="cls-1" points="23.06 100 27.06 100 27.06 27.06 100 27.06 100 23.06 23.06 23.06 23.06 100"/>
  <polygon class="cls-1" points="33.05 100 37.05 100 37.05 37.05 100 37.05 100 33.05 33.05 33.05 33.05 100"/>
  <polygon class="cls-1" points="43.04 100 47.04 100 47.04 47.04 100 47.04 100 43.04 43.04 43.04 43.04 100"/>
  <polygon class="cls-1" points="53.04 100 57.03 100 57.03 57.03 100 57.03 100 53.04 53.04 53.04 53.04 100"/>
  <polygon class="cls-1" points="63.03 100 67.03 100 67.03 67.03 100 67.03 100 63.03 63.03 63.03 63.03 100"/>
  <polygon class="cls-1" points="73.02 100 77.02 100 77.02 77.02 100 77.02 100 73.02 73.02 73.02 73.02 100"/>
  <polygon class="cls-1" points="83.01 100 87.01 100 87.01 87.01 100 87.01 100 83.01 83.01 83.01 83.01 100"/>
</svg>