<?xml version="1.0" encoding="UTF-8"?>
<svg id="Layer_1" data-name="Layer 1" xmlns="http://www.w3.org/2000/svg" viewBox="0 0 100 100">
  <defs>
    <style>
      .cls-1 {
        fill: #010101;
      }
    </style>
  </defs>
  <polygon class="cls-1" points="0 13.07 0 17.06 82.94 17.06 82.94 100 86.93 100 86.93 13.07 0 13.07"/>
  <polygon class="cls-1" points="0 27.06 72.94 27.06 72.94 100 76.94 100 76.94 23.06 0 23.06 0 27.06"/>
  <polygon class="cls-1" points="0 37.05 62.95 37.05 62.95 100 66.95 100 66.95 33.05 0 33.05 0 37.05"/>
  <polygon class="cls-1" points="0 47.04 52.96 47.04 52.96 100 56.96 100 56.96 43.04 0 43.04 0 47.04"/>
  <polygon class="cls-1" points="0 57.03 42.97 57.03 42.97 100 46.96 100 46.96 53.04 0 53.04 0 57.03"/>
  <polygon class="cls-1" points="0 67.03 32.97 67.03 32.97 100 36.97 100 36.97 63.03 0 63.03 0 67.03"/>
  <polygon class="cls-1" points="0 77.02 22.98 77.02 22.98 100 26.98 100 26.98 73.02 0 73.02 0 77.02"/>
  <polygon class="cls-1" points="0 87.01 12.99 87.01 12.99 100 16.99 100 16.99 83.01 0 83.01 0 87.01"/>
</svg>