<?xml version="1.0" encoding="UTF-8"?>
<svg id="Layer_1" data-name="Layer 1" xmlns="http://www.w3.org/2000/svg" viewBox="0 0 100 100">
  <defs>
    <style>
      .cls-1 {
        fill: #010101;
      }
    </style>
  </defs>
  <polygon class="cls-1" points="53 13.07 53 100 56.99 100 56.99 17.06 99.96 17.06 99.96 13.07 53 13.07"/>
  <polygon class="cls-1" points=".04 17.06 43 17.06 43 100 47 100 47 13.07 .04 13.07 .04 17.06"/>
  <polygon class="cls-1" points="62.99 100 66.99 100 66.99 27.06 99.96 27.06 99.96 23.06 62.99 23.06 62.99 100"/>
  <polygon class="cls-1" points=".04 27.06 33.01 27.06 33.01 100 37.01 100 37.01 23.06 .04 23.06 .04 27.06"/>
  <polygon class="cls-1" points="72.98 100 76.98 100 76.98 37.05 99.96 37.05 99.96 33.05 72.98 33.05 72.98 100"/>
  <polygon class="cls-1" points=".04 37.05 23.02 37.05 23.02 100 27.02 100 27.02 33.05 .04 33.05 .04 37.05"/>
  <polygon class="cls-1" points="82.97 100 86.97 100 86.97 87.01 99.96 87.01 99.96 83.01 86.97 83.01 86.97 77.02 99.96 77.02 99.96 73.02 86.97 73.02 86.97 67.03 99.96 67.03 99.96 63.03 86.97 63.03 86.97 57.03 99.96 57.03 99.96 53.04 86.97 53.04 86.97 47.04 99.96 47.04 99.96 43.04 82.97 43.04 82.97 100"/>
  <polygon class="cls-1" points=".04 47.04 13.03 47.04 13.03 53.04 .04 53.04 .04 57.03 13.03 57.03 13.03 63.03 .04 63.03 .04 67.03 13.03 67.03 13.03 73.02 .04 73.02 .04 77.02 13.03 77.02 13.03 83.01 .04 83.01 .04 87.01 13.03 87.01 13.03 100 17.02 100 17.02 43.04 .04 43.04 .04 47.04"/>
</svg>