<?xml version="1.0" encoding="UTF-8"?>
<svg id="Layer_1" data-name="Layer 1" xmlns="http://www.w3.org/2000/svg" viewBox="0 0 100 100">
  <defs>
    <style>
      .cls-1 {
        fill: #010101;
      }
    </style>
  </defs>
  <polygon class="cls-1" points="17.06 0 13.07 0 13.07 86.93 100 86.93 100 82.94 17.06 82.94 17.06 0"/>
  <polygon class="cls-1" points="27.06 0 23.06 0 23.06 76.94 100 76.94 100 72.94 27.06 72.94 27.06 0"/>
  <polygon class="cls-1" points="37.05 0 33.05 0 33.05 66.95 100 66.95 100 62.95 37.05 62.95 37.05 0"/>
  <polygon class="cls-1" points="47.04 0 43.04 0 43.04 56.96 100 56.96 100 52.96 47.04 52.96 47.04 0"/>
  <polygon class="cls-1" points="57.03 0 53.04 0 53.04 46.96 100 46.96 100 42.97 57.03 42.97 57.03 0"/>
  <polygon class="cls-1" points="67.03 0 63.03 0 63.03 36.97 100 36.97 100 32.97 67.03 32.97 67.03 0"/>
  <polygon class="cls-1" points="77.02 0 73.02 0 73.02 26.98 100 26.98 100 22.98 77.02 22.98 77.02 0"/>
  <polygon class="cls-1" points="87.01 12.99 87.01 0 83.01 0 83.01 16.99 100 16.99 100 12.99 87.01 12.99"/>
</svg>