<?xml version="1.0" encoding="UTF-8"?>
<svg id="Layer_1" data-name="Layer 1" xmlns="http://www.w3.org/2000/svg" viewBox="0 0 100 100">
  <defs>
    <style>
      .cls-1 {
        fill: #010101;
      }
    </style>
  </defs>
  <polygon class="cls-1" points="82.94 0 82.94 82.94 0 82.94 0 86.93 86.93 86.93 86.93 0 82.94 0"/>
  <polygon class="cls-1" points="76.94 0 72.94 0 72.94 72.94 0 72.94 0 76.94 76.94 76.94 76.94 0"/>
  <polygon class="cls-1" points="66.95 0 62.95 0 62.95 62.95 0 62.95 0 66.95 66.95 66.95 66.95 0"/>
  <polygon class="cls-1" points="56.96 0 52.96 0 52.96 52.96 0 52.96 0 56.96 56.96 56.96 56.96 0"/>
  <polygon class="cls-1" points="46.96 0 42.97 0 42.97 42.97 0 42.97 0 46.96 46.96 46.96 46.96 0"/>
  <polygon class="cls-1" points="36.97 0 32.97 0 32.97 32.97 0 32.97 0 36.97 36.97 36.97 36.97 0"/>
  <polygon class="cls-1" points="26.98 0 22.98 0 22.98 22.98 0 22.98 0 26.98 26.98 26.98 26.98 0"/>
  <polygon class="cls-1" points="16.99 0 12.99 0 12.99 12.99 0 12.99 0 16.99 16.99 16.99 16.99 0"/>
</svg>