<?xml version="1.0" encoding="UTF-8"?>
<svg id="Layer_1" data-name="Layer 1" xmlns="http://www.w3.org/2000/svg" viewBox="0 0 100 100">
  <defs>
    <style>
      .cls-1 {
        fill: #010101;
      }
    </style>
  </defs>
  <polygon class="cls-1" points="43.01 82.94 .04 82.94 .04 86.93 47 86.93 47 0 43.01 0 43.01 82.94"/>
  <polygon class="cls-1" points="56.99 0 53 0 53 86.93 99.96 86.93 99.96 82.94 56.99 82.94 56.99 0"/>
  <polygon class="cls-1" points="37.01 0 33.01 0 33.01 72.94 .04 72.94 .04 76.94 37.01 76.94 37.01 0"/>
  <polygon class="cls-1" points="66.99 0 62.99 0 62.99 76.94 99.96 76.94 99.96 72.94 66.99 72.94 66.99 0"/>
  <polygon class="cls-1" points="27.02 0 23.02 0 23.02 62.95 .04 62.95 .04 66.95 27.02 66.95 27.02 0"/>
  <polygon class="cls-1" points="76.98 0 72.98 0 72.98 66.95 99.96 66.95 99.96 62.95 76.98 62.95 76.98 0"/>
  <polygon class="cls-1" points="17.03 0 13.03 0 13.03 12.99 .04 12.99 .04 16.99 13.03 16.99 13.03 22.98 .04 22.98 .04 26.98 13.03 26.98 13.03 32.97 .04 32.97 .04 36.97 13.03 36.97 13.03 42.97 .04 42.97 .04 46.96 13.03 46.96 13.03 52.96 .04 52.96 .04 56.96 17.03 56.96 17.03 0"/>
  <polygon class="cls-1" points="99.96 16.99 99.96 12.99 86.97 12.99 86.97 0 82.97 0 82.97 56.96 99.96 56.96 99.96 52.96 86.97 52.96 86.97 46.96 99.96 46.96 99.96 42.97 86.97 42.97 86.97 36.97 99.96 36.97 99.96 32.97 86.97 32.97 86.97 26.98 99.96 26.98 99.96 22.98 86.97 22.98 86.97 16.99 99.96 16.99"/>
</svg>