<?xml version="1.0" encoding="UTF-8"?>
<svg id="Layer_1" data-name="Layer 1" xmlns="http://www.w3.org/2000/svg" viewBox="0 0 100 100">
  <defs>
    <style>
      .cls-1 {
        fill: #010101;
      }
    </style>
  </defs>
  <polygon class="cls-1" points="0 56.96 82.94 56.96 82.94 99.92 86.93 99.92 86.93 52.96 0 52.96 0 56.96"/>
  <polygon class="cls-1" points="82.94 0 82.94 42.97 0 42.97 0 46.96 86.93 46.96 86.93 0 82.94 0"/>
  <polygon class="cls-1" points="0 66.95 72.94 66.95 72.94 99.92 76.94 99.92 76.94 62.95 0 62.95 0 66.95"/>
  <polygon class="cls-1" points="76.94 0 72.94 0 72.94 32.97 0 32.97 0 36.97 76.94 36.97 76.94 0"/>
  <polygon class="cls-1" points="0 76.94 62.95 76.94 62.95 99.92 66.95 99.92 66.95 72.94 0 72.94 0 76.94"/>
  <polygon class="cls-1" points="66.95 0 62.95 0 62.95 22.98 0 22.98 0 26.98 66.95 26.98 66.95 0"/>
  <polygon class="cls-1" points="0 86.93 12.99 86.93 12.99 99.92 16.99 99.92 16.99 86.93 22.98 86.93 22.98 99.92 26.98 99.92 26.98 86.93 32.97 86.93 32.97 99.92 36.97 99.92 36.97 86.93 42.97 86.93 42.97 99.92 46.96 99.92 46.96 86.93 52.96 86.93 52.96 99.92 56.96 99.92 56.96 82.94 0 82.94 0 86.93"/>
  <polygon class="cls-1" points="56.96 0 52.96 0 52.96 12.99 46.96 12.99 46.96 0 42.97 0 42.97 12.99 36.97 12.99 36.97 0 32.97 0 32.97 12.99 26.98 12.99 26.98 0 22.98 0 22.98 12.99 16.99 12.99 16.99 0 12.99 0 12.99 12.99 0 12.99 0 16.99 56.96 16.99 56.96 0"/>
</svg>