<?xml version="1.0" encoding="UTF-8"?>
<svg id="Layer_1" xmlns="http://www.w3.org/2000/svg" version="1.1" viewBox="0 0 100 100">
  <!-- Generator: Adobe Illustrator 29.8.2, SVG Export Plug-In . SVG Version: 2.1.1 Build 3)  -->
  <defs>
    <style>
      .st0 {
        fill: #010101;
      }
    </style>
  </defs>
  <polygon class="st0" points="43 43 0 43 0 47 47 47 47 0 43 0 43 43"/>
  <polygon class="st0" points="37 0 33 0 33 13 27 13 27 0 23 0 23 13 17 13 17 0 13 0 13 13 0 13 0 17 33 17 33 23 0 23 0 27 33 27 33 33 0 33 0 37 37 37 37 0"/>
  <polygon class="st0" points="0 57 43 57 43 100 47 100 47 53 0 53 0 57"/>
  <polygon class="st0" points="0 67 33 67 33 73 0 73 0 77 33 77 33 83 0 83 0 87 13 87 13 100 17 100 17 87 23 87 23 100 27 100 27 87 33 87 33 100 37 100 37 63 0 63 0 67"/>
  <polygon class="st0" points="57 0 53 0 53 47 100 47 100 43 57 43 57 0"/>
  <polygon class="st0" points="53 100 57 100 57 57 100 57 100 53 53 53 53 100"/>
  <polygon class="st0" points="63 100 67 100 67 87 73 87 73 100 77 100 77 87 83 87 83 100 87 100 87 87 100 87 100 83 67 83 67 77 100 77 100 73 67 73 67 67 100 67 100 63 63 63 63 100"/>
  <polygon class="st0" points="100 17 100 13 87 13 87 0 83 0 83 13 77 13 77 0 73 0 73 13 67 13 67 0 63 0 63 37 100 37 100 33 67 33 67 27 100 27 100 23 67 23 67 17 100 17"/>
</svg>