<?xml version="1.0" encoding="UTF-8"?>
<svg id="Layer_1" data-name="Layer 1" xmlns="http://www.w3.org/2000/svg" viewBox="0 0 100 100">
  <defs>
    <style>
      .cls-1 {
        fill: #010101;
      }
    </style>
  </defs>
  <polygon class="cls-1" points="53 82.97 17.03 82.97 17.03 47 23.02 47 23.02 43.01 13.03 43.01 13.03 86.97 56.99 86.97 56.99 76.98 53 76.98 53 82.97"/>
  <polygon class="cls-1" points="27.02 37.01 33.01 37.01 33.01 33.01 23.02 33.01 23.02 43.01 27.02 43.01 27.02 37.01"/>
  <polygon class="cls-1" points="62.99 72.98 56.99 72.98 56.99 76.98 66.99 76.98 66.99 66.99 62.99 66.99 62.99 72.98"/>
  <polygon class="cls-1" points="27.02 47 23.02 47 23.02 76.98 53 76.98 53 72.98 27.02 72.98 27.02 47"/>
  <rect class="cls-1" x="53" y="66.99" width="4" height="6"/>
  <rect class="cls-1" x="27.02" y="43.01" width="6" height="4"/>
  <polygon class="cls-1" points="72.98 62.99 66.99 62.99 66.99 66.99 76.98 66.99 76.98 56.99 72.98 56.99 72.98 62.99"/>
  <polygon class="cls-1" points="37.01 27.02 43.01 27.02 43.01 23.02 33.01 23.02 33.01 33.01 37.01 33.01 37.01 27.02"/>
  <rect class="cls-1" x="56.99" y="62.99" width="6" height="4"/>
  <rect class="cls-1" x="33.01" y="37.01" width="4" height="6"/>
  <polygon class="cls-1" points="37.01 62.99 37.01 47 33.01 47 33.01 66.99 53 66.99 53 62.99 37.01 62.99"/>
  <rect class="cls-1" x="62.99" y="56.99" width="4" height="6"/>
  <rect class="cls-1" x="37.01" y="33.01" width="6" height="4"/>
  <rect class="cls-1" x="37.01" y="43.01" width="6" height="4"/>
  <rect class="cls-1" x="53" y="56.99" width="4" height="6"/>
  <polygon class="cls-1" points="86.97 13.03 43.01 13.03 43.01 23.02 47 23.02 47 17.03 82.97 17.03 82.97 53 76.98 53 76.98 56.99 86.97 56.99 86.97 13.03"/>
  <rect class="cls-1" x="43.01" y="27.02" width="4" height="6"/>
  <rect class="cls-1" x="66.99" y="53" width="6" height="4"/>
  <rect class="cls-1" x="43.01" y="37.01" width="4" height="6"/>
  <rect class="cls-1" x="56.99" y="53" width="6" height="4"/>
  <polygon class="cls-1" points="47 47 43.01 47 43.01 56.99 53 56.99 53 53 47 53 47 47"/>
  <polygon class="cls-1" points="72.98 27.02 72.98 53 76.98 53 76.98 23.02 47 23.02 47 27.02 72.98 27.02"/>
  <polygon class="cls-1" points="62.99 37.01 62.99 53 66.99 53 66.99 33.01 47 33.01 47 37.01 62.99 37.01"/>
  <polygon class="cls-1" points="47 43.01 47 47 53 47 53 53 56.99 53 56.99 43.01 47 43.01"/>
</svg>