<?xml version="1.0" encoding="UTF-8"?>
<svg id="Layer_1" data-name="Layer 1" xmlns="http://www.w3.org/2000/svg" viewBox="0 0 100 100">
  <defs>
    <style>
      .cls-1 {
        fill: #010101;
      }
    </style>
  </defs>
  <path class="cls-1" d="M100,17.06v-4h-16.99v9.99h-9.99v9.99h-9.99v9.99h-9.99v9.99h-9.99v9.99h-9.99v9.99h-9.99v9.99h-9.99v16.99h4v-12.99h6v12.99h4v-12.99h6v12.99h4v-12.99h6v12.99h4v-12.99h6v12.99h4v-12.99h6v12.99h4v-12.99h6v12.99h4v-12.99h6v12.99h4v-12.99h12.99v-4h-12.99v-6h12.99v-4h-12.99v-6h12.99v-4h-12.99v-6h12.99v-4h-12.99v-6h12.99v-4h-12.99v-6h12.99v-4h-12.99v-6h12.99v-4h-12.99v-6h12.99ZM67.03,37.05h6v6h-6v-6ZM57.03,67.03h6v6h-6v-6ZM53.04,73.02h-6v-6h6v6ZM57.03,63.03v-6h6v6h-6ZM67.03,67.03h6v6h-6v-6ZM67.03,63.03v-6h6v6h-6ZM67.03,53.04v-6h6v6h-6ZM57.03,47.04h6v6h-6v-6ZM47.04,57.03h6v6h-6v-6ZM37.05,67.03h6v6h-6v-6ZM27.06,83.01v-6h6v6h-6ZM37.05,83.01v-6h6v6h-6ZM47.04,83.01v-6h6v6h-6ZM57.03,83.01v-6h6v6h-6ZM67.03,83.01v-6h6v6h-6ZM83.01,83.01h-6v-6h6v6ZM83.01,73.02h-6v-6h6v6ZM83.01,63.03h-6v-6h6v6ZM83.01,53.04h-6v-6h6v6ZM83.01,43.04h-6v-6h6v6ZM83.01,33.05h-6v-6h6v6Z"/>
</svg>