<?xml version="1.0" encoding="UTF-8"?>
<svg id="Layer_1" data-name="Layer 1" xmlns="http://www.w3.org/2000/svg" viewBox="0 0 100 100">
  <defs>
    <style>
      .cls-1 {
        fill: #010101;
      }
    </style>
  </defs>
  <polygon class="cls-1" points="-.01 12.63 -.01 17.43 26.97 36.31 -.01 22.82 -.01 27.22 28.47 41.46 -.01 32.91 -.01 37.11 29.47 45.95 -.01 43.01 -.01 47 29.97 50 -.01 53 -.01 56.99 29.47 54.05 -.01 62.89 -.01 67.09 28.47 58.54 -.01 72.78 -.01 77.18 27.06 63.64 -.01 82.57 -.01 87.37 49.97 52.42 99.91 87.37 99.91 82.57 72.93 63.69 99.91 77.18 99.91 72.78 71.43 58.54 99.91 67.09 99.91 62.89 70.43 54.05 99.91 56.99 99.91 53 69.93 50 99.91 47 99.91 43.01 70.43 45.95 99.91 37.11 99.91 32.91 71.43 41.46 99.91 27.22 99.91 22.82 73.19 36.18 100.01 17.43 100.01 12.63 49.97 47.62 -.01 12.63"/>
</svg>