<?xml version="1.0" encoding="UTF-8"?>
<svg id="Layer_1" data-name="Layer 1" xmlns="http://www.w3.org/2000/svg" viewBox="0 0 100 100">
  <defs>
    <style>
      .cls-1 {
        fill: #010101;
      }
    </style>
  </defs>
  <path class="cls-1" d="M12.99,100h4v-12.99h6v12.99h4v-12.99h6v12.99h4v-12.99h6v12.99h4v-12.99h6v12.99h4v-12.99h6v12.99h4v-12.99h6v12.99h4v-12.99h6v12.99h4v-16.99h-9.99v-9.99h-9.99v-9.99h-9.99v-9.99h-9.99v-9.99h-9.99v-9.99h-9.99v-9.99h-9.99v-9.99H0v4h12.99v6H0v4h12.99v6H0v4h12.99v6H0v4h12.99v6H0v4h12.99v6H0v4h12.99v6H0v4h12.99v6H0v4h12.99v12.99ZM26.98,83.01v-6h6v6h-6ZM32.97,57.03v6h-6v-6h6ZM26.98,53.04v-6h6v6h-6ZM42.97,73.02h-6v-6h6v6ZM46.96,67.03h6v6h-6v-6ZM36.97,63.03v-6h6v6h-6ZM32.97,67.03v6h-6v-6h6ZM36.97,83.01v-6h6v6h-6ZM46.96,83.01v-6h6v6h-6ZM56.96,83.01v-6h6v6h-6ZM72.94,77.02v6h-6v-6h6ZM62.95,67.03v6h-6v-6h6ZM52.96,57.03v6h-6v-6h6ZM42.97,47.04v6h-6v-6h6ZM32.97,37.05v6h-6v-6h6ZM16.99,27.06h6v6h-6v-6ZM16.99,37.05h6v6h-6v-6ZM16.99,47.04h6v6h-6v-6ZM16.99,57.03h6v6h-6v-6ZM16.99,67.03h6v6h-6v-6ZM16.99,77.02h6v6h-6v-6Z"/>
</svg>