<?xml version="1.0" encoding="UTF-8"?>
<svg id="Layer_1" data-name="Layer 1" xmlns="http://www.w3.org/2000/svg" viewBox="0 0 100 100">
  <defs>
    <style>
      .cls-1 {
        fill: #010101;
      }
    </style>
  </defs>
  <path class="cls-1" d="M13.03,100h4v-12.99h6v12.99h4v-12.99h6v12.99h4v-12.99h6v12.99h4v-12.99h6v12.99h4v-12.99h6v12.99h4v-12.99h6v12.99h4v-12.99h6v12.99h4v-12.99h12.99v-4h-12.99v-6h12.99v-4h-12.99v-6h12.99v-4h-12.99v-6h12.99v-4h-12.99v-6h12.99v-4h-12.99v-6h12.99v-4h-12.99v-6h12.99v-4h-12.99v-6h12.99v-4h-16.99v9.99h-9.99v9.99h-9.99v9.99h-9.99v9.99h-6v-9.99h-9.99v-9.99h-9.99v-9.99h-9.99v-9.99H.04v4h12.99v6H.04v4h12.99v6H.04v4h12.99v6H.04v4h12.99v6H.04v4h12.99v6H.04v4h12.99v6H.04v4h12.99v6H.04v4h12.99v12.99ZM27.02,83.01v-6h6v6h-6ZM33.01,57.03v6h-6v-6h6ZM27.02,53.04v-6h6v6h-6ZM72.98,57.03v6h-6v-6h6ZM66.99,53.04v-6h6v6h-6ZM72.98,67.03v6h-6v-6h6ZM62.99,63.03h-6v-6h6v6ZM62.99,67.03v6h-6v-6h6ZM53,73.02h-6v-6h6v6ZM43.01,73.02h-6v-6h6v6ZM37.01,63.03v-6h6v6h-6ZM33.01,67.03v6h-6v-6h6ZM37.01,83.01v-6h6v6h-6ZM47,83.01v-6h6v6h-6ZM56.99,83.01v-6h6v6h-6ZM66.99,83.01v-6h6v6h-6ZM82.97,83.01h-6v-6h6v6ZM82.97,73.02h-6v-6h6v6ZM82.97,63.03h-6v-6h6v6ZM82.97,53.04h-6v-6h6v6ZM82.97,43.04h-6v-6h6v6ZM76.98,27.06h6v6h-6v-6ZM66.99,37.05h6v6h-6v-6ZM56.99,47.04h6v6h-6v-6ZM53,57.03v6h-6v-6h6ZM43.01,47.04v6h-6v-6h6ZM33.01,37.05v6h-6v-6h6ZM17.03,27.06h6v6h-6v-6ZM17.03,37.05h6v6h-6v-6ZM17.03,47.04h6v6h-6v-6ZM17.03,57.03h6v6h-6v-6ZM17.03,67.03h6v6h-6v-6ZM17.03,77.02h6v6h-6v-6Z"/>
</svg>