<?xml version="1.0" encoding="UTF-8"?>
<svg id="Layer_1" xmlns="http://www.w3.org/2000/svg" version="1.1" viewBox="0 0 100 100">
  <!-- Generator: Adobe Illustrator 29.8.2, SVG Export Plug-In . SVG Version: 2.1.1 Build 3)  -->
  <defs>
    <style>
      .st0 {
        fill: #010101;
      }
    </style>
  </defs>
  <polygon class="st0" points="82.6 0 63.7 27 77.2 0 72.8 0 58.5 28.5 67.1 0 62.9 0 54 29.5 57 0 53 0 50 30 47 0 43 0 46 29.5 37.1 0 32.9 0 41.5 28.5 27.2 0 22.8 0 36.4 27.1 17.4 0 12.6 0 47.6 50 12.6 99.9 17.4 99.9 36.3 72.9 22.8 99.9 27.2 99.9 41.5 71.4 32.9 99.9 37.1 99.9 46 70.4 43 99.9 47 99.9 50 69.9 53 99.9 57 99.9 54 70.4 62.9 99.9 67.1 99.9 58.5 71.4 72.8 99.9 77.2 99.9 63.8 73.2 82.6 100 87.4 100 52.4 50 87.4 0 82.6 0"/>
</svg>