<?xml version="1.0" encoding="UTF-8"?>
<svg id="Layer_1" data-name="Layer 1" xmlns="http://www.w3.org/2000/svg" viewBox="0 0 100 100">
  <defs>
    <style>
      .cls-1 {
        fill: #010101;
      }
    </style>
  </defs>
  <path class="cls-1" d="M100,17.03v-4h-12.99V.04h-4v12.99h-6V.04h-4v12.99h-6V.04h-4v12.99h-6V.04h-4v12.99h-6V.04h-4v12.99h-6V.04h-4v12.99h-6V.04h-4v12.99h-6V.04h-4v16.99h9.99v9.99h9.99v9.99h9.99v9.99h9.99v6h-9.99v9.99h-9.99v9.99h-9.99v9.99h-9.99v16.99h4v-12.99h6v12.99h4v-12.99h6v12.99h4v-12.99h6v12.99h4v-12.99h6v12.99h4v-12.99h6v12.99h4v-12.99h6v12.99h4v-12.99h6v12.99h4v-12.99h12.99v-4h-12.99v-6h12.99v-4h-12.99v-6h12.99v-4h-12.99v-6h12.99v-4h-12.99v-6h12.99v-4h-12.99v-6h12.99v-4h-12.99v-6h12.99v-4h-12.99v-6h12.99ZM73.02,17.03v6h-6v-6h6ZM57.03,66.99h6v6h-6v-6ZM53.04,72.98h-6v-6h6v6ZM57.03,62.99v-6h6v6h-6ZM67.03,66.99h6v6h-6v-6ZM67.03,62.99v-6h6v6h-6ZM67.03,53v-6h6v6h-6ZM67.03,43.01v-6h6v6h-6ZM57.03,27.02h6v6h-6v-6ZM53.04,33.01h-6v-6h6v6ZM63.03,37.01v6h-6v-6h6ZM67.03,33.01v-6h6v6h-6ZM63.03,17.03v6h-6v-6h6ZM53.04,17.03v6h-6v-6h6ZM43.04,17.03v6h-6v-6h6ZM27.06,23.02v-6h6v6h-6ZM37.05,33.01v-6h6v6h-6ZM47.04,43.01v-6h6v6h-6ZM57.03,47h6v6h-6v-6ZM47.04,56.99h6v6h-6v-6ZM37.05,66.99h6v6h-6v-6ZM27.06,82.97v-6h6v6h-6ZM37.05,82.97v-6h6v6h-6ZM47.04,82.97v-6h6v6h-6ZM57.03,82.97v-6h6v6h-6ZM67.03,82.97v-6h6v6h-6ZM83.01,82.97h-6v-6h6v6ZM83.01,72.98h-6v-6h6v6ZM83.01,62.99h-6v-6h6v6ZM83.01,53h-6v-6h6v6ZM83.01,43.01h-6v-6h6v6ZM83.01,33.01h-6v-6h6v6ZM83.01,23.02h-6v-6h6v6Z"/>
</svg>