<?xml version="1.0" encoding="UTF-8"?>
<svg id="Layer_1" data-name="Layer 1" xmlns="http://www.w3.org/2000/svg" viewBox="0 0 100 100">
  <defs>
    <style>
      .cls-1 {
        fill: #010101;
      }
    </style>
  </defs>
  <path class="cls-1" d="M86.97,0h-4v12.99h-6V0h-4v12.99h-6V0h-4v12.99h-6V0h-4v12.99h-6V0h-4v12.99h-6V0h-4v12.99h-6V0h-4v12.99h-6V0h-4v12.99H.04v4h12.99v6H.04v4h12.99v6H.04v4h12.99v6H.04v4h12.99v6H.04v4h12.99v6H.04v4h12.99v6H.04v4h12.99v6H.04v4h16.99v-9.99h9.99v-9.99h9.99v-9.99h9.99v-9.99h6v9.99h9.99v9.99h9.99v9.99h9.99v9.99h16.99v-4h-12.99v-6h12.99v-4h-12.99v-6h12.99v-4h-12.99v-6h12.99v-4h-12.99v-6h12.99v-4h-12.99v-6h12.99v-4h-12.99v-6h12.99v-4h-12.99v-6h12.99v-4h-12.99V0ZM72.98,16.99v6h-6v-6h6ZM66.99,42.97v-6h6v6h-6ZM72.98,46.96v6h-6v-6h6ZM27.02,42.97v-6h6v6h-6ZM33.01,46.96v6h-6v-6h6ZM27.02,32.97v-6h6v6h-6ZM37.01,36.97h6v6h-6v-6ZM37.01,32.97v-6h6v6h-6ZM47,26.98h6v6h-6v-6ZM56.99,26.98h6v6h-6v-6ZM62.99,36.97v6h-6v-6h6ZM66.99,32.97v-6h6v6h-6ZM62.99,16.99v6h-6v-6h6ZM53,16.99v6h-6v-6h6ZM43.01,16.99v6h-6v-6h6ZM33.01,16.99v6h-6v-6h6ZM17.03,16.99h6v6h-6v-6ZM17.03,26.98h6v6h-6v-6ZM17.03,36.97h6v6h-6v-6ZM17.03,46.96h6v6h-6v-6ZM17.03,56.96h6v6h-6v-6ZM23.02,72.94h-6v-6h6v6ZM33.01,62.95h-6v-6h6v6ZM43.01,52.96h-6v-6h6v6ZM47,42.97v-6h6v6h-6ZM56.99,52.96v-6h6v6h-6ZM66.99,62.95v-6h6v6h-6ZM82.97,72.94h-6v-6h6v6ZM82.97,62.95h-6v-6h6v6ZM82.97,52.96h-6v-6h6v6ZM82.97,42.97h-6v-6h6v6ZM82.97,32.97h-6v-6h6v6ZM82.97,22.98h-6v-6h6v6Z"/>
</svg>