<?xml version="1.0" encoding="UTF-8"?>
<svg id="Layer_1" data-name="Layer 1" xmlns="http://www.w3.org/2000/svg" viewBox="0 0 100 100">
  <defs>
    <style>
      .cls-1 {
        fill: #010101;
      }
    </style>
  </defs>
  <path class="cls-1" d="M43.01,13.03h-6V.04h-4v12.99h-6V.04h-4v12.99h-6V.04h-4v12.99H.04v4h12.99v6H.04v4h12.99v6H.04v4h12.99v6H.04v4h16.99v-9.99h9.99v-9.99h9.99v-9.99h9.99V.04h-4v12.99ZM17.03,17.03h6v6h-6v-6ZM23.02,33.01h-6v-6h6v6ZM33.01,23.02h-6v-6h6v6Z"/>
  <path class="cls-1" d="M37.01,72.98h-9.99v-9.99h-9.99v-9.99H.04v4h12.99v6H.04v4h12.99v6H.04v4h12.99v6H.04v4h12.99v12.99h4v-12.99h6v12.99h4v-12.99h6v12.99h4v-12.99h6v12.99h4v-16.99h-9.99v-9.99ZM17.03,66.99h6v6h-6v-6ZM17.03,82.97v-6h6v6h-6ZM27.02,82.97v-6h6v6h-6Z"/>
  <path class="cls-1" d="M86.97.04h-4v12.99h-6V.04h-4v12.99h-6V.04h-4v12.99h-6V.04h-4v16.99h9.99v9.99h9.99v9.99h9.99v9.99h16.99v-4h-12.99v-6h12.99v-4h-12.99v-6h12.99v-4h-12.99v-6h12.99v-4h-12.99V.04ZM66.99,23.02v-6h6v6h-6ZM82.97,33.01h-6v-6h6v6ZM82.97,23.02h-6v-6h6v6Z"/>
  <path class="cls-1" d="M82.97,62.99h-9.99v9.99h-9.99v9.99h-9.99v16.99h4v-12.99h6v12.99h4v-12.99h6v12.99h4v-12.99h6v12.99h4v-12.99h12.99v-4h-12.99v-6h12.99v-4h-12.99v-6h12.99v-4h-12.99v-6h12.99v-4h-16.99v9.99ZM66.99,82.97v-6h6v6h-6ZM82.97,82.97h-6v-6h6v6ZM82.97,72.98h-6v-6h6v6Z"/>
</svg>